M48
; DRILL file {KiCad (5.1.10)-1} date 11/02/21 11:53:19
; FORMAT={3:3/ absolute / metric / suppress leading zeros}
; #@! TF.CreationDate,2021-11-02T11:53:19+09:00
; #@! TF.GenerationSoftware,Kicad,Pcbnew,(5.1.10)-1
; #@! TF.FileFunction,Plated,1,2,PTH
FMAT,2
METRIC,TZ
T1C0.300
T2C0.450
T3C0.900
%
G90
G05
T1
X2100Y-8700
X2985Y-24500
X3000Y-17500
X3200Y-10500
X3790Y-12924
X3900Y-8100
X3900Y-9500
X3900Y-15000
X4100Y-15700
X4500Y-14000
X5375Y-21500
X6000Y-7500
X6379Y-23121
X6500Y-27000
X7300Y-28800
X7500Y-18500
X8510Y-20190
X8700Y-8200
X8700Y-9000
X8700Y-10200
X10000Y-31800
X10000Y-33300
X10500Y-27000
X11300Y-10500
X12600Y-27000
X12700Y-29300
X14200Y-10500
X14200Y-15000
X15225Y-20525
X16238Y-7538
X16825Y-9365
X17900Y-30200
X17900Y-32000
X19000Y-31000
T3
X5000Y-27460
X5000Y-30000
X5000Y-32540
X15000Y-27460
X15000Y-30000
X15000Y-32540
T2
G00X6800Y-37950
M15
G01X6800Y-37150
M16
G05
G00X13200Y-37150
M15
G01X13200Y-37950
M16
G05
T0
M30
