G04 #@! TF.GenerationSoftware,KiCad,Pcbnew,(5.1.10)-1*
G04 #@! TF.CreationDate,2021-11-02T11:53:18+09:00*
G04 #@! TF.ProjectId,fishsensor,66697368-7365-46e7-936f-722e6b696361,rev?*
G04 #@! TF.SameCoordinates,Original*
G04 #@! TF.FileFunction,Soldermask,Bot*
G04 #@! TF.FilePolarity,Negative*
%FSLAX46Y46*%
G04 Gerber Fmt 4.6, Leading zero omitted, Abs format (unit mm)*
G04 Created by KiCad (PCBNEW (5.1.10)-1) date 2021-11-02 11:53:18*
%MOMM*%
%LPD*%
G01*
G04 APERTURE LIST*
%ADD10R,1.150000X1.450000*%
%ADD11O,1.050000X1.900000*%
%ADD12R,1.750000X1.900000*%
%ADD13R,0.400000X1.400000*%
%ADD14R,2.000000X0.900000*%
%ADD15R,0.900000X2.000000*%
%ADD16R,5.000000X5.000000*%
%ADD17C,1.800000*%
%ADD18R,1.800000X1.800000*%
G04 APERTURE END LIST*
D10*
X12320000Y-35320000D03*
X7680000Y-35320000D03*
D11*
X6800000Y-37550000D03*
X13200000Y-37550000D03*
D12*
X11125000Y-37550000D03*
D13*
X10000000Y-34900000D03*
X9350000Y-34900000D03*
X8700000Y-34900000D03*
X11300000Y-34900000D03*
X10650000Y-34900000D03*
D12*
X8875000Y-37550000D03*
D14*
X1500000Y-7445000D03*
X1500000Y-8715000D03*
X1500000Y-9985000D03*
X1500000Y-11255000D03*
X1500000Y-12525000D03*
X1500000Y-13795000D03*
X1500000Y-15065000D03*
X1500000Y-16335000D03*
X1500000Y-17605000D03*
X1500000Y-18875000D03*
X1500000Y-20145000D03*
X1500000Y-21415000D03*
X1500000Y-22685000D03*
X1500000Y-23955000D03*
D15*
X4285000Y-24955000D03*
X5555000Y-24955000D03*
X6825000Y-24955000D03*
X8095000Y-24955000D03*
X9365000Y-24955000D03*
X10635000Y-24955000D03*
X11905000Y-24955000D03*
X13175000Y-24955000D03*
X14445000Y-24955000D03*
X15715000Y-24955000D03*
D14*
X18500000Y-23955000D03*
X18500000Y-22685000D03*
X18500000Y-21415000D03*
X18500000Y-20145000D03*
X18500000Y-18875000D03*
X18500000Y-17605000D03*
X18500000Y-16335000D03*
X18500000Y-15065000D03*
X18500000Y-13795000D03*
X18500000Y-12525000D03*
X18500000Y-11255000D03*
X18500000Y-9985000D03*
X18500000Y-8715000D03*
X18500000Y-7445000D03*
D16*
X11000000Y-14945000D03*
D17*
X15000000Y-27460000D03*
X15000000Y-30000000D03*
D18*
X15000000Y-32540000D03*
D17*
X5000000Y-27460000D03*
X5000000Y-30000000D03*
D18*
X5000000Y-32540000D03*
M02*
