G04 #@! TF.GenerationSoftware,KiCad,Pcbnew,(5.1.10)-1*
G04 #@! TF.CreationDate,2021-11-02T11:53:18+09:00*
G04 #@! TF.ProjectId,fishsensor,66697368-7365-46e7-936f-722e6b696361,rev?*
G04 #@! TF.SameCoordinates,Original*
G04 #@! TF.FileFunction,Legend,Top*
G04 #@! TF.FilePolarity,Positive*
%FSLAX46Y46*%
G04 Gerber Fmt 4.6, Leading zero omitted, Abs format (unit mm)*
G04 Created by KiCad (PCBNEW (5.1.10)-1) date 2021-11-02 11:53:18*
%MOMM*%
%LPD*%
G01*
G04 APERTURE LIST*
%ADD10C,0.150000*%
%ADD11C,0.120000*%
%ADD12C,0.100000*%
G04 APERTURE END LIST*
D10*
X3571428Y-32880952D02*
X3571428Y-32119047D01*
X3952380Y-32500000D02*
X3190476Y-32500000D01*
X3571428Y-30880952D02*
X3571428Y-30119047D01*
X12761904Y-5000000D02*
X12666666Y-4952380D01*
X12523809Y-4952380D01*
X12380952Y-5000000D01*
X12285714Y-5095238D01*
X12238095Y-5190476D01*
X12190476Y-5380952D01*
X12190476Y-5523809D01*
X12238095Y-5714285D01*
X12285714Y-5809523D01*
X12380952Y-5904761D01*
X12523809Y-5952380D01*
X12619047Y-5952380D01*
X12761904Y-5904761D01*
X12809523Y-5857142D01*
X12809523Y-5523809D01*
X12619047Y-5523809D01*
X9904761Y-5952380D02*
X9571428Y-5476190D01*
X9333333Y-5952380D02*
X9333333Y-4952380D01*
X9714285Y-4952380D01*
X9809523Y-5000000D01*
X9857142Y-5047619D01*
X9904761Y-5142857D01*
X9904761Y-5285714D01*
X9857142Y-5380952D01*
X9809523Y-5428571D01*
X9714285Y-5476190D01*
X9333333Y-5476190D01*
X10238095Y-5952380D02*
X10761904Y-5285714D01*
X10238095Y-5285714D02*
X10761904Y-5952380D01*
X6809523Y-4952380D02*
X7380952Y-4952380D01*
X7095238Y-5952380D02*
X7095238Y-4952380D01*
X7619047Y-5952380D02*
X8142857Y-5285714D01*
X7619047Y-5285714D02*
X8142857Y-5952380D01*
D11*
X4237258Y-18522500D02*
X3762742Y-18522500D01*
X4237258Y-17477500D02*
X3762742Y-17477500D01*
X13522500Y-31762742D02*
X13522500Y-32237258D01*
X12477500Y-31762742D02*
X12477500Y-32237258D01*
X2420000Y-21260000D02*
X3350000Y-21260000D01*
X5580000Y-21260000D02*
X4650000Y-21260000D01*
X5580000Y-21260000D02*
X5580000Y-19100000D01*
X2420000Y-21260000D02*
X2420000Y-19800000D01*
X18760000Y-30080000D02*
X18760000Y-29150000D01*
X18760000Y-26920000D02*
X18760000Y-27850000D01*
X18760000Y-26920000D02*
X16600000Y-26920000D01*
X18760000Y-30080000D02*
X17300000Y-30080000D01*
X10140580Y-36010000D02*
X9859420Y-36010000D01*
X10140580Y-34990000D02*
X9859420Y-34990000D01*
X8390000Y-31100000D02*
X8390000Y-32900000D01*
X11610000Y-32900000D02*
X11610000Y-30450000D01*
X14430000Y-25470000D02*
X14430000Y-21330000D01*
X17270000Y-21330000D02*
X17570000Y-21330000D01*
X17570000Y-21330000D02*
X17570000Y-25470000D01*
X14730000Y-25470000D02*
X14430000Y-25470000D01*
X17570000Y-25470000D02*
X17270000Y-25470000D01*
X14430000Y-21330000D02*
X14730000Y-21330000D01*
X15762742Y-9477500D02*
X16237258Y-9477500D01*
X15762742Y-10522500D02*
X16237258Y-10522500D01*
X12762742Y-34977500D02*
X13237258Y-34977500D01*
X12762742Y-36022500D02*
X13237258Y-36022500D01*
X16140580Y-9010000D02*
X15859420Y-9010000D01*
X16140580Y-7990000D02*
X15859420Y-7990000D01*
X9859420Y-28490000D02*
X10140580Y-28490000D01*
X9859420Y-29510000D02*
X10140580Y-29510000D01*
X6130000Y-6170000D02*
X6130000Y-8830000D01*
X11270000Y-6170000D02*
X6130000Y-6170000D01*
X11270000Y-8830000D02*
X6130000Y-8830000D01*
X11270000Y-6170000D02*
X11270000Y-8830000D01*
X12540000Y-6170000D02*
X13870000Y-6170000D01*
X13870000Y-6170000D02*
X13870000Y-7500000D01*
D10*
X7850000Y-11350000D02*
X7850000Y-11875000D01*
X12150000Y-11350000D02*
X12150000Y-11875000D01*
X12150000Y-15650000D02*
X12150000Y-15125000D01*
X7850000Y-15650000D02*
X7850000Y-15125000D01*
X12150000Y-11350000D02*
X11625000Y-11350000D01*
X12150000Y-15650000D02*
X11625000Y-15650000D01*
X7850000Y-11350000D02*
X8375000Y-11350000D01*
D11*
X8990000Y-20620000D02*
X8990000Y-23050000D01*
X12060000Y-22380000D02*
X12060000Y-20620000D01*
X17522500Y-32237258D02*
X17522500Y-31762742D01*
X16477500Y-32237258D02*
X16477500Y-31762742D01*
X3762742Y-17022500D02*
X4237258Y-17022500D01*
X3762742Y-15977500D02*
X4237258Y-15977500D01*
X15762742Y-12022500D02*
X16237258Y-12022500D01*
X15762742Y-10977500D02*
X16237258Y-10977500D01*
X15762742Y-18022500D02*
X16237258Y-18022500D01*
X15762742Y-16977500D02*
X16237258Y-16977500D01*
X3762742Y-13522500D02*
X4237258Y-13522500D01*
X3762742Y-12477500D02*
X4237258Y-12477500D01*
X3762742Y-12022500D02*
X4237258Y-12022500D01*
X3762742Y-10977500D02*
X4237258Y-10977500D01*
X1977500Y-26762742D02*
X1977500Y-27237258D01*
X3022500Y-26762742D02*
X3022500Y-27237258D01*
X3762742Y-15522500D02*
X4237258Y-15522500D01*
X3762742Y-14477500D02*
X4237258Y-14477500D01*
X3762742Y-23522500D02*
X4237258Y-23522500D01*
X3762742Y-22477500D02*
X4237258Y-22477500D01*
X3859420Y-10010000D02*
X4140580Y-10010000D01*
X3859420Y-8990000D02*
X4140580Y-8990000D01*
X16140580Y-12990000D02*
X15859420Y-12990000D01*
X16140580Y-14010000D02*
X15859420Y-14010000D01*
X15859420Y-16010000D02*
X16140580Y-16010000D01*
X15859420Y-14990000D02*
X16140580Y-14990000D01*
X16140580Y-6490000D02*
X15859420Y-6490000D01*
X16140580Y-7510000D02*
X15859420Y-7510000D01*
X6990000Y-20859420D02*
X6990000Y-21140580D01*
X8010000Y-20859420D02*
X8010000Y-21140580D01*
X14010000Y-21140580D02*
X14010000Y-20859420D01*
X12990000Y-21140580D02*
X12990000Y-20859420D01*
X6859420Y-36010000D02*
X7140580Y-36010000D01*
X6859420Y-34990000D02*
X7140580Y-34990000D01*
X15859420Y-20010000D02*
X16140580Y-20010000D01*
X15859420Y-18990000D02*
X16140580Y-18990000D01*
D12*
X116666Y-31733333D02*
X616666Y-31733333D01*
X716666Y-31766666D01*
X783333Y-31833333D01*
X816666Y-31933333D01*
X816666Y-32000000D01*
X816666Y-31033333D02*
X816666Y-31433333D01*
X816666Y-31233333D02*
X116666Y-31233333D01*
X216666Y-31300000D01*
X283333Y-31366666D01*
X316666Y-31433333D01*
X6316666Y-18450000D02*
X5983333Y-18683333D01*
X6316666Y-18850000D02*
X5616666Y-18850000D01*
X5616666Y-18583333D01*
X5650000Y-18516666D01*
X5683333Y-18483333D01*
X5750000Y-18450000D01*
X5850000Y-18450000D01*
X5916666Y-18483333D01*
X5950000Y-18516666D01*
X5983333Y-18583333D01*
X5983333Y-18850000D01*
X6316666Y-17783333D02*
X6316666Y-18183333D01*
X6316666Y-17983333D02*
X5616666Y-17983333D01*
X5716666Y-18050000D01*
X5783333Y-18116666D01*
X5816666Y-18183333D01*
X5616666Y-17550000D02*
X5616666Y-17116666D01*
X5883333Y-17350000D01*
X5883333Y-17250000D01*
X5916666Y-17183333D01*
X5950000Y-17150000D01*
X6016666Y-17116666D01*
X6183333Y-17116666D01*
X6250000Y-17150000D01*
X6283333Y-17183333D01*
X6316666Y-17250000D01*
X6316666Y-17450000D01*
X6283333Y-17516666D01*
X6250000Y-17550000D01*
X13316666Y-29950000D02*
X12983333Y-30183333D01*
X13316666Y-30350000D02*
X12616666Y-30350000D01*
X12616666Y-30083333D01*
X12650000Y-30016666D01*
X12683333Y-29983333D01*
X12750000Y-29950000D01*
X12850000Y-29950000D01*
X12916666Y-29983333D01*
X12950000Y-30016666D01*
X12983333Y-30083333D01*
X12983333Y-30350000D01*
X13316666Y-29283333D02*
X13316666Y-29683333D01*
X13316666Y-29483333D02*
X12616666Y-29483333D01*
X12716666Y-29550000D01*
X12783333Y-29616666D01*
X12816666Y-29683333D01*
X12683333Y-29016666D02*
X12650000Y-28983333D01*
X12616666Y-28916666D01*
X12616666Y-28750000D01*
X12650000Y-28683333D01*
X12683333Y-28650000D01*
X12750000Y-28616666D01*
X12816666Y-28616666D01*
X12916666Y-28650000D01*
X13316666Y-29050000D01*
X13316666Y-28616666D01*
X6883333Y-20566666D02*
X6850000Y-20633333D01*
X6783333Y-20700000D01*
X6683333Y-20800000D01*
X6650000Y-20866666D01*
X6650000Y-20933333D01*
X6816666Y-20900000D02*
X6783333Y-20966666D01*
X6716666Y-21033333D01*
X6583333Y-21066666D01*
X6350000Y-21066666D01*
X6216666Y-21033333D01*
X6150000Y-20966666D01*
X6116666Y-20900000D01*
X6116666Y-20766666D01*
X6150000Y-20700000D01*
X6216666Y-20633333D01*
X6350000Y-20600000D01*
X6583333Y-20600000D01*
X6716666Y-20633333D01*
X6783333Y-20700000D01*
X6816666Y-20766666D01*
X6816666Y-20900000D01*
X6183333Y-20333333D02*
X6150000Y-20300000D01*
X6116666Y-20233333D01*
X6116666Y-20066666D01*
X6150000Y-20000000D01*
X6183333Y-19966666D01*
X6250000Y-19933333D01*
X6316666Y-19933333D01*
X6416666Y-19966666D01*
X6816666Y-20366666D01*
X6816666Y-19933333D01*
X18883333Y-31066666D02*
X18850000Y-31133333D01*
X18783333Y-31200000D01*
X18683333Y-31300000D01*
X18650000Y-31366666D01*
X18650000Y-31433333D01*
X18816666Y-31400000D02*
X18783333Y-31466666D01*
X18716666Y-31533333D01*
X18583333Y-31566666D01*
X18350000Y-31566666D01*
X18216666Y-31533333D01*
X18150000Y-31466666D01*
X18116666Y-31400000D01*
X18116666Y-31266666D01*
X18150000Y-31200000D01*
X18216666Y-31133333D01*
X18350000Y-31100000D01*
X18583333Y-31100000D01*
X18716666Y-31133333D01*
X18783333Y-31200000D01*
X18816666Y-31266666D01*
X18816666Y-31400000D01*
X18816666Y-30433333D02*
X18816666Y-30833333D01*
X18816666Y-30633333D02*
X18116666Y-30633333D01*
X18216666Y-30700000D01*
X18283333Y-30766666D01*
X18316666Y-30833333D01*
X9550000Y-34750000D02*
X9516666Y-34783333D01*
X9416666Y-34816666D01*
X9350000Y-34816666D01*
X9250000Y-34783333D01*
X9183333Y-34716666D01*
X9150000Y-34650000D01*
X9116666Y-34516666D01*
X9116666Y-34416666D01*
X9150000Y-34283333D01*
X9183333Y-34216666D01*
X9250000Y-34150000D01*
X9350000Y-34116666D01*
X9416666Y-34116666D01*
X9516666Y-34150000D01*
X9550000Y-34183333D01*
X10216666Y-34816666D02*
X9816666Y-34816666D01*
X10016666Y-34816666D02*
X10016666Y-34116666D01*
X9950000Y-34216666D01*
X9883333Y-34283333D01*
X9816666Y-34316666D01*
X10883333Y-34816666D02*
X10483333Y-34816666D01*
X10683333Y-34816666D02*
X10683333Y-34116666D01*
X10616666Y-34216666D01*
X10550000Y-34283333D01*
X10483333Y-34316666D01*
X7616666Y-32533333D02*
X8183333Y-32533333D01*
X8250000Y-32500000D01*
X8283333Y-32466666D01*
X8316666Y-32400000D01*
X8316666Y-32266666D01*
X8283333Y-32200000D01*
X8250000Y-32166666D01*
X8183333Y-32133333D01*
X7616666Y-32133333D01*
X7850000Y-31500000D02*
X8316666Y-31500000D01*
X7583333Y-31666666D02*
X8083333Y-31833333D01*
X8083333Y-31400000D01*
X18483333Y-24333333D02*
X18516666Y-24233333D01*
X18516666Y-24066666D01*
X18483333Y-24000000D01*
X18450000Y-23966666D01*
X18383333Y-23933333D01*
X18316666Y-23933333D01*
X18250000Y-23966666D01*
X18216666Y-24000000D01*
X18183333Y-24066666D01*
X18150000Y-24200000D01*
X18116666Y-24266666D01*
X18083333Y-24300000D01*
X18016666Y-24333333D01*
X17950000Y-24333333D01*
X17883333Y-24300000D01*
X17850000Y-24266666D01*
X17816666Y-24200000D01*
X17816666Y-24033333D01*
X17850000Y-23933333D01*
X17816666Y-23700000D02*
X18516666Y-23533333D01*
X18016666Y-23400000D01*
X18516666Y-23266666D01*
X17816666Y-23100000D01*
X18516666Y-22466666D02*
X18516666Y-22866666D01*
X18516666Y-22666666D02*
X17816666Y-22666666D01*
X17916666Y-22733333D01*
X17983333Y-22800000D01*
X18016666Y-22866666D01*
X18316666Y-10450000D02*
X17983333Y-10683333D01*
X18316666Y-10850000D02*
X17616666Y-10850000D01*
X17616666Y-10583333D01*
X17650000Y-10516666D01*
X17683333Y-10483333D01*
X17750000Y-10450000D01*
X17850000Y-10450000D01*
X17916666Y-10483333D01*
X17950000Y-10516666D01*
X17983333Y-10583333D01*
X17983333Y-10850000D01*
X18316666Y-9783333D02*
X18316666Y-10183333D01*
X18316666Y-9983333D02*
X17616666Y-9983333D01*
X17716666Y-10050000D01*
X17783333Y-10116666D01*
X17816666Y-10183333D01*
X18316666Y-9116666D02*
X18316666Y-9516666D01*
X18316666Y-9316666D02*
X17616666Y-9316666D01*
X17716666Y-9383333D01*
X17783333Y-9450000D01*
X17816666Y-9516666D01*
X12550000Y-34816666D02*
X12316666Y-34483333D01*
X12150000Y-34816666D02*
X12150000Y-34116666D01*
X12416666Y-34116666D01*
X12483333Y-34150000D01*
X12516666Y-34183333D01*
X12550000Y-34250000D01*
X12550000Y-34350000D01*
X12516666Y-34416666D01*
X12483333Y-34450000D01*
X12416666Y-34483333D01*
X12150000Y-34483333D01*
X13216666Y-34816666D02*
X12816666Y-34816666D01*
X13016666Y-34816666D02*
X13016666Y-34116666D01*
X12950000Y-34216666D01*
X12883333Y-34283333D01*
X12816666Y-34316666D01*
X13650000Y-34116666D02*
X13716666Y-34116666D01*
X13783333Y-34150000D01*
X13816666Y-34183333D01*
X13850000Y-34250000D01*
X13883333Y-34383333D01*
X13883333Y-34550000D01*
X13850000Y-34683333D01*
X13816666Y-34750000D01*
X13783333Y-34783333D01*
X13716666Y-34816666D01*
X13650000Y-34816666D01*
X13583333Y-34783333D01*
X13550000Y-34750000D01*
X13516666Y-34683333D01*
X13483333Y-34550000D01*
X13483333Y-34383333D01*
X13516666Y-34250000D01*
X13550000Y-34183333D01*
X13583333Y-34150000D01*
X13650000Y-34116666D01*
X18250000Y-8950000D02*
X18283333Y-8983333D01*
X18316666Y-9083333D01*
X18316666Y-9150000D01*
X18283333Y-9250000D01*
X18216666Y-9316666D01*
X18150000Y-9350000D01*
X18016666Y-9383333D01*
X17916666Y-9383333D01*
X17783333Y-9350000D01*
X17716666Y-9316666D01*
X17650000Y-9250000D01*
X17616666Y-9150000D01*
X17616666Y-9083333D01*
X17650000Y-8983333D01*
X17683333Y-8950000D01*
X18316666Y-8283333D02*
X18316666Y-8683333D01*
X18316666Y-8483333D02*
X17616666Y-8483333D01*
X17716666Y-8550000D01*
X17783333Y-8616666D01*
X17816666Y-8683333D01*
X17616666Y-7850000D02*
X17616666Y-7783333D01*
X17650000Y-7716666D01*
X17683333Y-7683333D01*
X17750000Y-7650000D01*
X17883333Y-7616666D01*
X18050000Y-7616666D01*
X18183333Y-7650000D01*
X18250000Y-7683333D01*
X18283333Y-7716666D01*
X18316666Y-7783333D01*
X18316666Y-7850000D01*
X18283333Y-7916666D01*
X18250000Y-7950000D01*
X18183333Y-7983333D01*
X18050000Y-8016666D01*
X17883333Y-8016666D01*
X17750000Y-7983333D01*
X17683333Y-7950000D01*
X17650000Y-7916666D01*
X17616666Y-7850000D01*
X8250000Y-29116666D02*
X8283333Y-29150000D01*
X8316666Y-29250000D01*
X8316666Y-29316666D01*
X8283333Y-29416666D01*
X8216666Y-29483333D01*
X8150000Y-29516666D01*
X8016666Y-29550000D01*
X7916666Y-29550000D01*
X7783333Y-29516666D01*
X7716666Y-29483333D01*
X7650000Y-29416666D01*
X7616666Y-29316666D01*
X7616666Y-29250000D01*
X7650000Y-29150000D01*
X7683333Y-29116666D01*
X8316666Y-28783333D02*
X8316666Y-28650000D01*
X8283333Y-28583333D01*
X8250000Y-28550000D01*
X8150000Y-28483333D01*
X8016666Y-28450000D01*
X7750000Y-28450000D01*
X7683333Y-28483333D01*
X7650000Y-28516666D01*
X7616666Y-28583333D01*
X7616666Y-28716666D01*
X7650000Y-28783333D01*
X7683333Y-28816666D01*
X7750000Y-28850000D01*
X7916666Y-28850000D01*
X7983333Y-28816666D01*
X8016666Y-28783333D01*
X8050000Y-28716666D01*
X8050000Y-28583333D01*
X8016666Y-28516666D01*
X7983333Y-28483333D01*
X7916666Y-28450000D01*
X7966666Y-16116666D02*
X7966666Y-16683333D01*
X8000000Y-16750000D01*
X8033333Y-16783333D01*
X8100000Y-16816666D01*
X8233333Y-16816666D01*
X8300000Y-16783333D01*
X8333333Y-16750000D01*
X8366666Y-16683333D01*
X8366666Y-16116666D01*
X8633333Y-16116666D02*
X9066666Y-16116666D01*
X8833333Y-16383333D01*
X8933333Y-16383333D01*
X9000000Y-16416666D01*
X9033333Y-16450000D01*
X9066666Y-16516666D01*
X9066666Y-16683333D01*
X9033333Y-16750000D01*
X9000000Y-16783333D01*
X8933333Y-16816666D01*
X8733333Y-16816666D01*
X8666666Y-16783333D01*
X8633333Y-16750000D01*
X9966666Y-18616666D02*
X9966666Y-19183333D01*
X10000000Y-19250000D01*
X10033333Y-19283333D01*
X10100000Y-19316666D01*
X10233333Y-19316666D01*
X10300000Y-19283333D01*
X10333333Y-19250000D01*
X10366666Y-19183333D01*
X10366666Y-18616666D01*
X11066666Y-19316666D02*
X10666666Y-19316666D01*
X10866666Y-19316666D02*
X10866666Y-18616666D01*
X10800000Y-18716666D01*
X10733333Y-18783333D01*
X10666666Y-18816666D01*
X18816666Y-33116666D02*
X18483333Y-33350000D01*
X18816666Y-33516666D02*
X18116666Y-33516666D01*
X18116666Y-33250000D01*
X18150000Y-33183333D01*
X18183333Y-33150000D01*
X18250000Y-33116666D01*
X18350000Y-33116666D01*
X18416666Y-33150000D01*
X18450000Y-33183333D01*
X18483333Y-33250000D01*
X18483333Y-33516666D01*
X18816666Y-32783333D02*
X18816666Y-32650000D01*
X18783333Y-32583333D01*
X18750000Y-32550000D01*
X18650000Y-32483333D01*
X18516666Y-32450000D01*
X18250000Y-32450000D01*
X18183333Y-32483333D01*
X18150000Y-32516666D01*
X18116666Y-32583333D01*
X18116666Y-32716666D01*
X18150000Y-32783333D01*
X18183333Y-32816666D01*
X18250000Y-32850000D01*
X18416666Y-32850000D01*
X18483333Y-32816666D01*
X18516666Y-32783333D01*
X18550000Y-32716666D01*
X18550000Y-32583333D01*
X18516666Y-32516666D01*
X18483333Y-32483333D01*
X18416666Y-32450000D01*
X6316666Y-16616666D02*
X5983333Y-16850000D01*
X6316666Y-17016666D02*
X5616666Y-17016666D01*
X5616666Y-16750000D01*
X5650000Y-16683333D01*
X5683333Y-16650000D01*
X5750000Y-16616666D01*
X5850000Y-16616666D01*
X5916666Y-16650000D01*
X5950000Y-16683333D01*
X5983333Y-16750000D01*
X5983333Y-17016666D01*
X5916666Y-16216666D02*
X5883333Y-16283333D01*
X5850000Y-16316666D01*
X5783333Y-16350000D01*
X5750000Y-16350000D01*
X5683333Y-16316666D01*
X5650000Y-16283333D01*
X5616666Y-16216666D01*
X5616666Y-16083333D01*
X5650000Y-16016666D01*
X5683333Y-15983333D01*
X5750000Y-15950000D01*
X5783333Y-15950000D01*
X5850000Y-15983333D01*
X5883333Y-16016666D01*
X5916666Y-16083333D01*
X5916666Y-16216666D01*
X5950000Y-16283333D01*
X5983333Y-16316666D01*
X6050000Y-16350000D01*
X6183333Y-16350000D01*
X6250000Y-16316666D01*
X6283333Y-16283333D01*
X6316666Y-16216666D01*
X6316666Y-16083333D01*
X6283333Y-16016666D01*
X6250000Y-15983333D01*
X6183333Y-15950000D01*
X6050000Y-15950000D01*
X5983333Y-15983333D01*
X5950000Y-16016666D01*
X5916666Y-16083333D01*
X18316666Y-11616666D02*
X17983333Y-11850000D01*
X18316666Y-12016666D02*
X17616666Y-12016666D01*
X17616666Y-11750000D01*
X17650000Y-11683333D01*
X17683333Y-11650000D01*
X17750000Y-11616666D01*
X17850000Y-11616666D01*
X17916666Y-11650000D01*
X17950000Y-11683333D01*
X17983333Y-11750000D01*
X17983333Y-12016666D01*
X17616666Y-11383333D02*
X17616666Y-10916666D01*
X18316666Y-11216666D01*
X18316666Y-17616666D02*
X17983333Y-17850000D01*
X18316666Y-18016666D02*
X17616666Y-18016666D01*
X17616666Y-17750000D01*
X17650000Y-17683333D01*
X17683333Y-17650000D01*
X17750000Y-17616666D01*
X17850000Y-17616666D01*
X17916666Y-17650000D01*
X17950000Y-17683333D01*
X17983333Y-17750000D01*
X17983333Y-18016666D01*
X17616666Y-17016666D02*
X17616666Y-17150000D01*
X17650000Y-17216666D01*
X17683333Y-17250000D01*
X17783333Y-17316666D01*
X17916666Y-17350000D01*
X18183333Y-17350000D01*
X18250000Y-17316666D01*
X18283333Y-17283333D01*
X18316666Y-17216666D01*
X18316666Y-17083333D01*
X18283333Y-17016666D01*
X18250000Y-16983333D01*
X18183333Y-16950000D01*
X18016666Y-16950000D01*
X17950000Y-16983333D01*
X17916666Y-17016666D01*
X17883333Y-17083333D01*
X17883333Y-17216666D01*
X17916666Y-17283333D01*
X17950000Y-17316666D01*
X18016666Y-17350000D01*
X6316666Y-13116666D02*
X5983333Y-13350000D01*
X6316666Y-13516666D02*
X5616666Y-13516666D01*
X5616666Y-13250000D01*
X5650000Y-13183333D01*
X5683333Y-13150000D01*
X5750000Y-13116666D01*
X5850000Y-13116666D01*
X5916666Y-13150000D01*
X5950000Y-13183333D01*
X5983333Y-13250000D01*
X5983333Y-13516666D01*
X5616666Y-12483333D02*
X5616666Y-12816666D01*
X5950000Y-12850000D01*
X5916666Y-12816666D01*
X5883333Y-12750000D01*
X5883333Y-12583333D01*
X5916666Y-12516666D01*
X5950000Y-12483333D01*
X6016666Y-12450000D01*
X6183333Y-12450000D01*
X6250000Y-12483333D01*
X6283333Y-12516666D01*
X6316666Y-12583333D01*
X6316666Y-12750000D01*
X6283333Y-12816666D01*
X6250000Y-12850000D01*
X6316666Y-11616666D02*
X5983333Y-11850000D01*
X6316666Y-12016666D02*
X5616666Y-12016666D01*
X5616666Y-11750000D01*
X5650000Y-11683333D01*
X5683333Y-11650000D01*
X5750000Y-11616666D01*
X5850000Y-11616666D01*
X5916666Y-11650000D01*
X5950000Y-11683333D01*
X5983333Y-11750000D01*
X5983333Y-12016666D01*
X5850000Y-11016666D02*
X6316666Y-11016666D01*
X5583333Y-11183333D02*
X6083333Y-11350000D01*
X6083333Y-10916666D01*
X1816666Y-27116666D02*
X1483333Y-27350000D01*
X1816666Y-27516666D02*
X1116666Y-27516666D01*
X1116666Y-27250000D01*
X1150000Y-27183333D01*
X1183333Y-27150000D01*
X1250000Y-27116666D01*
X1350000Y-27116666D01*
X1416666Y-27150000D01*
X1450000Y-27183333D01*
X1483333Y-27250000D01*
X1483333Y-27516666D01*
X1116666Y-26883333D02*
X1116666Y-26450000D01*
X1383333Y-26683333D01*
X1383333Y-26583333D01*
X1416666Y-26516666D01*
X1450000Y-26483333D01*
X1516666Y-26450000D01*
X1683333Y-26450000D01*
X1750000Y-26483333D01*
X1783333Y-26516666D01*
X1816666Y-26583333D01*
X1816666Y-26783333D01*
X1783333Y-26850000D01*
X1750000Y-26883333D01*
X6316666Y-15116666D02*
X5983333Y-15350000D01*
X6316666Y-15516666D02*
X5616666Y-15516666D01*
X5616666Y-15250000D01*
X5650000Y-15183333D01*
X5683333Y-15150000D01*
X5750000Y-15116666D01*
X5850000Y-15116666D01*
X5916666Y-15150000D01*
X5950000Y-15183333D01*
X5983333Y-15250000D01*
X5983333Y-15516666D01*
X5683333Y-14850000D02*
X5650000Y-14816666D01*
X5616666Y-14750000D01*
X5616666Y-14583333D01*
X5650000Y-14516666D01*
X5683333Y-14483333D01*
X5750000Y-14450000D01*
X5816666Y-14450000D01*
X5916666Y-14483333D01*
X6316666Y-14883333D01*
X6316666Y-14450000D01*
X6316666Y-23116666D02*
X5983333Y-23350000D01*
X6316666Y-23516666D02*
X5616666Y-23516666D01*
X5616666Y-23250000D01*
X5650000Y-23183333D01*
X5683333Y-23150000D01*
X5750000Y-23116666D01*
X5850000Y-23116666D01*
X5916666Y-23150000D01*
X5950000Y-23183333D01*
X5983333Y-23250000D01*
X5983333Y-23516666D01*
X6316666Y-22450000D02*
X6316666Y-22850000D01*
X6316666Y-22650000D02*
X5616666Y-22650000D01*
X5716666Y-22716666D01*
X5783333Y-22783333D01*
X5816666Y-22850000D01*
X6250000Y-9616666D02*
X6283333Y-9650000D01*
X6316666Y-9750000D01*
X6316666Y-9816666D01*
X6283333Y-9916666D01*
X6216666Y-9983333D01*
X6150000Y-10016666D01*
X6016666Y-10050000D01*
X5916666Y-10050000D01*
X5783333Y-10016666D01*
X5716666Y-9983333D01*
X5650000Y-9916666D01*
X5616666Y-9816666D01*
X5616666Y-9750000D01*
X5650000Y-9650000D01*
X5683333Y-9616666D01*
X5916666Y-9216666D02*
X5883333Y-9283333D01*
X5850000Y-9316666D01*
X5783333Y-9350000D01*
X5750000Y-9350000D01*
X5683333Y-9316666D01*
X5650000Y-9283333D01*
X5616666Y-9216666D01*
X5616666Y-9083333D01*
X5650000Y-9016666D01*
X5683333Y-8983333D01*
X5750000Y-8950000D01*
X5783333Y-8950000D01*
X5850000Y-8983333D01*
X5883333Y-9016666D01*
X5916666Y-9083333D01*
X5916666Y-9216666D01*
X5950000Y-9283333D01*
X5983333Y-9316666D01*
X6050000Y-9350000D01*
X6183333Y-9350000D01*
X6250000Y-9316666D01*
X6283333Y-9283333D01*
X6316666Y-9216666D01*
X6316666Y-9083333D01*
X6283333Y-9016666D01*
X6250000Y-8983333D01*
X6183333Y-8950000D01*
X6050000Y-8950000D01*
X5983333Y-8983333D01*
X5950000Y-9016666D01*
X5916666Y-9083333D01*
X18250000Y-13616666D02*
X18283333Y-13650000D01*
X18316666Y-13750000D01*
X18316666Y-13816666D01*
X18283333Y-13916666D01*
X18216666Y-13983333D01*
X18150000Y-14016666D01*
X18016666Y-14050000D01*
X17916666Y-14050000D01*
X17783333Y-14016666D01*
X17716666Y-13983333D01*
X17650000Y-13916666D01*
X17616666Y-13816666D01*
X17616666Y-13750000D01*
X17650000Y-13650000D01*
X17683333Y-13616666D01*
X17616666Y-13383333D02*
X17616666Y-12916666D01*
X18316666Y-13216666D01*
X18250000Y-15616666D02*
X18283333Y-15650000D01*
X18316666Y-15750000D01*
X18316666Y-15816666D01*
X18283333Y-15916666D01*
X18216666Y-15983333D01*
X18150000Y-16016666D01*
X18016666Y-16050000D01*
X17916666Y-16050000D01*
X17783333Y-16016666D01*
X17716666Y-15983333D01*
X17650000Y-15916666D01*
X17616666Y-15816666D01*
X17616666Y-15750000D01*
X17650000Y-15650000D01*
X17683333Y-15616666D01*
X17616666Y-15016666D02*
X17616666Y-15150000D01*
X17650000Y-15216666D01*
X17683333Y-15250000D01*
X17783333Y-15316666D01*
X17916666Y-15350000D01*
X18183333Y-15350000D01*
X18250000Y-15316666D01*
X18283333Y-15283333D01*
X18316666Y-15216666D01*
X18316666Y-15083333D01*
X18283333Y-15016666D01*
X18250000Y-14983333D01*
X18183333Y-14950000D01*
X18016666Y-14950000D01*
X17950000Y-14983333D01*
X17916666Y-15016666D01*
X17883333Y-15083333D01*
X17883333Y-15216666D01*
X17916666Y-15283333D01*
X17950000Y-15316666D01*
X18016666Y-15350000D01*
X18250000Y-7116666D02*
X18283333Y-7150000D01*
X18316666Y-7250000D01*
X18316666Y-7316666D01*
X18283333Y-7416666D01*
X18216666Y-7483333D01*
X18150000Y-7516666D01*
X18016666Y-7550000D01*
X17916666Y-7550000D01*
X17783333Y-7516666D01*
X17716666Y-7483333D01*
X17650000Y-7416666D01*
X17616666Y-7316666D01*
X17616666Y-7250000D01*
X17650000Y-7150000D01*
X17683333Y-7116666D01*
X17616666Y-6483333D02*
X17616666Y-6816666D01*
X17950000Y-6850000D01*
X17916666Y-6816666D01*
X17883333Y-6750000D01*
X17883333Y-6583333D01*
X17916666Y-6516666D01*
X17950000Y-6483333D01*
X18016666Y-6450000D01*
X18183333Y-6450000D01*
X18250000Y-6483333D01*
X18283333Y-6516666D01*
X18316666Y-6583333D01*
X18316666Y-6750000D01*
X18283333Y-6816666D01*
X18250000Y-6850000D01*
X7383333Y-23250000D02*
X7350000Y-23283333D01*
X7250000Y-23316666D01*
X7183333Y-23316666D01*
X7083333Y-23283333D01*
X7016666Y-23216666D01*
X6983333Y-23150000D01*
X6950000Y-23016666D01*
X6950000Y-22916666D01*
X6983333Y-22783333D01*
X7016666Y-22716666D01*
X7083333Y-22650000D01*
X7183333Y-22616666D01*
X7250000Y-22616666D01*
X7350000Y-22650000D01*
X7383333Y-22683333D01*
X7983333Y-22850000D02*
X7983333Y-23316666D01*
X7816666Y-22583333D02*
X7650000Y-23083333D01*
X8083333Y-23083333D01*
X13383333Y-23250000D02*
X13350000Y-23283333D01*
X13250000Y-23316666D01*
X13183333Y-23316666D01*
X13083333Y-23283333D01*
X13016666Y-23216666D01*
X12983333Y-23150000D01*
X12950000Y-23016666D01*
X12950000Y-22916666D01*
X12983333Y-22783333D01*
X13016666Y-22716666D01*
X13083333Y-22650000D01*
X13183333Y-22616666D01*
X13250000Y-22616666D01*
X13350000Y-22650000D01*
X13383333Y-22683333D01*
X13616666Y-22616666D02*
X14050000Y-22616666D01*
X13816666Y-22883333D01*
X13916666Y-22883333D01*
X13983333Y-22916666D01*
X14016666Y-22950000D01*
X14050000Y-23016666D01*
X14050000Y-23183333D01*
X14016666Y-23250000D01*
X13983333Y-23283333D01*
X13916666Y-23316666D01*
X13716666Y-23316666D01*
X13650000Y-23283333D01*
X13616666Y-23250000D01*
X6883333Y-34750000D02*
X6850000Y-34783333D01*
X6750000Y-34816666D01*
X6683333Y-34816666D01*
X6583333Y-34783333D01*
X6516666Y-34716666D01*
X6483333Y-34650000D01*
X6450000Y-34516666D01*
X6450000Y-34416666D01*
X6483333Y-34283333D01*
X6516666Y-34216666D01*
X6583333Y-34150000D01*
X6683333Y-34116666D01*
X6750000Y-34116666D01*
X6850000Y-34150000D01*
X6883333Y-34183333D01*
X7150000Y-34183333D02*
X7183333Y-34150000D01*
X7250000Y-34116666D01*
X7416666Y-34116666D01*
X7483333Y-34150000D01*
X7516666Y-34183333D01*
X7550000Y-34250000D01*
X7550000Y-34316666D01*
X7516666Y-34416666D01*
X7116666Y-34816666D01*
X7550000Y-34816666D01*
X18250000Y-19616666D02*
X18283333Y-19650000D01*
X18316666Y-19750000D01*
X18316666Y-19816666D01*
X18283333Y-19916666D01*
X18216666Y-19983333D01*
X18150000Y-20016666D01*
X18016666Y-20050000D01*
X17916666Y-20050000D01*
X17783333Y-20016666D01*
X17716666Y-19983333D01*
X17650000Y-19916666D01*
X17616666Y-19816666D01*
X17616666Y-19750000D01*
X17650000Y-19650000D01*
X17683333Y-19616666D01*
X18316666Y-18950000D02*
X18316666Y-19350000D01*
X18316666Y-19150000D02*
X17616666Y-19150000D01*
X17716666Y-19216666D01*
X17783333Y-19283333D01*
X17816666Y-19350000D01*
M02*
