G04 #@! TF.GenerationSoftware,KiCad,Pcbnew,(5.1.10)-1*
G04 #@! TF.CreationDate,2021-11-02T11:53:18+09:00*
G04 #@! TF.ProjectId,fishsensor,66697368-7365-46e7-936f-722e6b696361,rev?*
G04 #@! TF.SameCoordinates,Original*
G04 #@! TF.FileFunction,Copper,L2,Bot*
G04 #@! TF.FilePolarity,Positive*
%FSLAX46Y46*%
G04 Gerber Fmt 4.6, Leading zero omitted, Abs format (unit mm)*
G04 Created by KiCad (PCBNEW (5.1.10)-1) date 2021-11-02 11:53:18*
%MOMM*%
%LPD*%
G01*
G04 APERTURE LIST*
G04 #@! TA.AperFunction,SMDPad,CuDef*
%ADD10R,1.150000X1.450000*%
G04 #@! TD*
G04 #@! TA.AperFunction,ComponentPad*
%ADD11O,1.050000X1.900000*%
G04 #@! TD*
G04 #@! TA.AperFunction,SMDPad,CuDef*
%ADD12R,1.750000X1.900000*%
G04 #@! TD*
G04 #@! TA.AperFunction,SMDPad,CuDef*
%ADD13R,0.400000X1.400000*%
G04 #@! TD*
G04 #@! TA.AperFunction,SMDPad,CuDef*
%ADD14R,2.000000X0.900000*%
G04 #@! TD*
G04 #@! TA.AperFunction,SMDPad,CuDef*
%ADD15R,0.900000X2.000000*%
G04 #@! TD*
G04 #@! TA.AperFunction,SMDPad,CuDef*
%ADD16R,5.000000X5.000000*%
G04 #@! TD*
G04 #@! TA.AperFunction,ComponentPad*
%ADD17C,1.800000*%
G04 #@! TD*
G04 #@! TA.AperFunction,ComponentPad*
%ADD18R,1.800000X1.800000*%
G04 #@! TD*
G04 #@! TA.AperFunction,ViaPad*
%ADD19C,0.400000*%
G04 #@! TD*
G04 #@! TA.AperFunction,Conductor*
%ADD20C,0.250000*%
G04 #@! TD*
G04 #@! TA.AperFunction,Conductor*
%ADD21C,0.400000*%
G04 #@! TD*
G04 #@! TA.AperFunction,Conductor*
%ADD22C,0.100000*%
G04 #@! TD*
G04 APERTURE END LIST*
D10*
X12320000Y-35320000D03*
X7680000Y-35320000D03*
D11*
X6800000Y-37550000D03*
X13200000Y-37550000D03*
D12*
X11125000Y-37550000D03*
D13*
X10000000Y-34900000D03*
X9350000Y-34900000D03*
X8700000Y-34900000D03*
X11300000Y-34900000D03*
X10650000Y-34900000D03*
D12*
X8875000Y-37550000D03*
D14*
X1500000Y-7445000D03*
X1500000Y-8715000D03*
X1500000Y-9985000D03*
X1500000Y-11255000D03*
X1500000Y-12525000D03*
X1500000Y-13795000D03*
X1500000Y-15065000D03*
X1500000Y-16335000D03*
X1500000Y-17605000D03*
X1500000Y-18875000D03*
X1500000Y-20145000D03*
X1500000Y-21415000D03*
X1500000Y-22685000D03*
X1500000Y-23955000D03*
D15*
X4285000Y-24955000D03*
X5555000Y-24955000D03*
X6825000Y-24955000D03*
X8095000Y-24955000D03*
X9365000Y-24955000D03*
X10635000Y-24955000D03*
X11905000Y-24955000D03*
X13175000Y-24955000D03*
X14445000Y-24955000D03*
X15715000Y-24955000D03*
D14*
X18500000Y-23955000D03*
X18500000Y-22685000D03*
X18500000Y-21415000D03*
X18500000Y-20145000D03*
X18500000Y-18875000D03*
X18500000Y-17605000D03*
X18500000Y-16335000D03*
X18500000Y-15065000D03*
X18500000Y-13795000D03*
X18500000Y-12525000D03*
X18500000Y-11255000D03*
X18500000Y-9985000D03*
X18500000Y-8715000D03*
X18500000Y-7445000D03*
D16*
X11000000Y-14945000D03*
D17*
X15000000Y-27460000D03*
X15000000Y-30000000D03*
D18*
X15000000Y-32540000D03*
D17*
X5000000Y-27460000D03*
X5000000Y-30000000D03*
D18*
X5000000Y-32540000D03*
D19*
X7500000Y-18500000D03*
X3900000Y-9500000D03*
X3900000Y-8100000D03*
X8700000Y-9000000D03*
X8700000Y-10200000D03*
X10500000Y-27000000D03*
X12700000Y-29300000D03*
X12600000Y-27000000D03*
X16237500Y-7537500D03*
X10000000Y-31800000D03*
X15225000Y-20525000D03*
X6378768Y-23121232D03*
X2984999Y-24500000D03*
X8510000Y-20190000D03*
X11300000Y-10500000D03*
X14200000Y-15000000D03*
X5375000Y-21500000D03*
X14200000Y-10500000D03*
X3790065Y-12923851D03*
X4100000Y-15700000D03*
X19000000Y-31000000D03*
X7300000Y-28800000D03*
X3900000Y-15000000D03*
X3000000Y-17500000D03*
X3200000Y-10500000D03*
X4500000Y-14000000D03*
X2100000Y-8700000D03*
X16825000Y-9365000D03*
X6000000Y-7500000D03*
X8700000Y-8200000D03*
X10000000Y-33300000D03*
X6500000Y-27000000D03*
X17900000Y-32000000D03*
X17900000Y-30200000D03*
D20*
X10000000Y-16000000D02*
X10000000Y-14945000D01*
X8200000Y-17800000D02*
X10000000Y-16000000D01*
X7500000Y-18500000D02*
X8200000Y-17800000D01*
X3645000Y-7445000D02*
X1500000Y-7445000D01*
X3900000Y-7700000D02*
X3645000Y-7445000D01*
X3900000Y-9500000D02*
X3900000Y-8100000D01*
X3900000Y-8100000D02*
X3900000Y-7700000D01*
X8700000Y-9000000D02*
X8700000Y-10200000D01*
X8700000Y-37375000D02*
X8875000Y-37550000D01*
X8700000Y-34900000D02*
X8700000Y-37375000D01*
X13400000Y-30000000D02*
X12700000Y-29300000D01*
X15000000Y-30000000D02*
X13400000Y-30000000D01*
X12600000Y-27000000D02*
X10500000Y-27000000D01*
X16330000Y-7445000D02*
X16237500Y-7537500D01*
X18500000Y-7445000D02*
X16330000Y-7445000D01*
X8700000Y-33100000D02*
X8700000Y-34900000D01*
X10000000Y-31800000D02*
X8700000Y-33100000D01*
X13550000Y-22200000D02*
X15225000Y-20525000D01*
X7300000Y-22200000D02*
X6378768Y-23121232D01*
X9200000Y-22200000D02*
X7300000Y-22200000D01*
X9200000Y-22200000D02*
X13550000Y-22200000D01*
X2439999Y-23955000D02*
X2984999Y-24500000D01*
X1500000Y-23955000D02*
X2439999Y-23955000D01*
D21*
X8100000Y-20600000D02*
X8510000Y-20190000D01*
X14200000Y-15000000D02*
X14200000Y-10500000D01*
X11300000Y-10500000D02*
X14200000Y-10500000D01*
X14200000Y-10500000D02*
X14200000Y-10000000D01*
X14200000Y-10000000D02*
X15485000Y-8715000D01*
X16785000Y-8715000D02*
X18500000Y-8715000D01*
X15485000Y-8715000D02*
X16785000Y-8715000D01*
X5600000Y-21275000D02*
X5375000Y-21500000D01*
X5600000Y-20600000D02*
X5600000Y-21275000D01*
X5600000Y-20600000D02*
X8100000Y-20600000D01*
X5600000Y-20600000D02*
X5600000Y-14100000D01*
X4849999Y-13349999D02*
X4216213Y-13349999D01*
X4216213Y-13349999D02*
X3790065Y-12923851D01*
X5600000Y-14100000D02*
X4849999Y-13349999D01*
D20*
X4100000Y-15700000D02*
X3574999Y-16225001D01*
X3574999Y-16225001D02*
X3574999Y-22588591D01*
X3509999Y-22653591D02*
X3574999Y-22588591D01*
X3509999Y-31049999D02*
X3509999Y-22653591D01*
X5000000Y-32540000D02*
X3509999Y-31049999D01*
X15000000Y-27460000D02*
X17460000Y-27460000D01*
X19025001Y-29025001D02*
X19025001Y-29974999D01*
X17460000Y-27460000D02*
X19025001Y-29025001D01*
X19000000Y-30000000D02*
X19000000Y-31000000D01*
X19025001Y-29974999D02*
X19000000Y-30000000D01*
X7300000Y-28800000D02*
X7750010Y-29250010D01*
X7750010Y-29250010D02*
X11710010Y-29250010D01*
X11710010Y-29250010D02*
X15000000Y-32540000D01*
X1500000Y-16335000D02*
X2828590Y-16335000D01*
X2828590Y-16071410D02*
X3900000Y-15000000D01*
X2828590Y-16335000D02*
X2828590Y-16071410D01*
X2895000Y-17605000D02*
X3000000Y-17500000D01*
X1500000Y-17605000D02*
X2895000Y-17605000D01*
X3200000Y-10500000D02*
X2700000Y-10500000D01*
X2185000Y-9985000D02*
X1500000Y-9985000D01*
X2700000Y-10500000D02*
X2185000Y-9985000D01*
X1705000Y-14000000D02*
X1500000Y-13795000D01*
X3825000Y-14000000D02*
X1705000Y-14000000D01*
X4500000Y-14000000D02*
X3825000Y-14000000D01*
X17445000Y-9985000D02*
X16825000Y-9365000D01*
X18500000Y-9985000D02*
X17445000Y-9985000D01*
X6000000Y-7500000D02*
X6000000Y-8721114D01*
X3466114Y-11255000D02*
X1500000Y-11255000D01*
X6000000Y-8721114D02*
X3466114Y-11255000D01*
X2832524Y-12525000D02*
X1500000Y-12525000D01*
X7157524Y-8200000D02*
X2832524Y-12525000D01*
X8700000Y-8200000D02*
X7157524Y-8200000D01*
X10900000Y-33300000D02*
X11300000Y-33700000D01*
X10000000Y-33300000D02*
X10900000Y-33300000D01*
X11300000Y-34900000D02*
X11300000Y-33700000D01*
X6500000Y-27000000D02*
X8300000Y-28800000D01*
X11699999Y-28800001D02*
X11725001Y-28774999D01*
X8300000Y-28800000D02*
X11699999Y-28800001D01*
X17900000Y-32000000D02*
X17900000Y-30200000D01*
X16474999Y-28774999D02*
X15825001Y-28774999D01*
X17900000Y-30200000D02*
X16474999Y-28774999D01*
X11725001Y-28774999D02*
X15825001Y-28774999D01*
X19596001Y-6368392D02*
X19500000Y-6358937D01*
X18660250Y-6362000D01*
X18502000Y-6520250D01*
X18502000Y-7443000D01*
X18522000Y-7443000D01*
X18522000Y-7447000D01*
X18502000Y-7447000D01*
X18502000Y-7467000D01*
X18498000Y-7467000D01*
X18498000Y-7447000D01*
X17025250Y-7447000D01*
X16867000Y-7605250D01*
X16863937Y-7895000D01*
X16876159Y-8019090D01*
X16911623Y-8136000D01*
X15513428Y-8136000D01*
X15484999Y-8133200D01*
X15456570Y-8136000D01*
X15456561Y-8136000D01*
X15371496Y-8144378D01*
X15262354Y-8177486D01*
X15161769Y-8231250D01*
X15073605Y-8303605D01*
X15055476Y-8325695D01*
X13810690Y-9570481D01*
X13788606Y-9588605D01*
X13770482Y-9610689D01*
X13770476Y-9610695D01*
X13716250Y-9676769D01*
X13685611Y-9734091D01*
X13662486Y-9777354D01*
X13629378Y-9886496D01*
X13625980Y-9921000D01*
X11242973Y-9921000D01*
X11214934Y-9926577D01*
X11186496Y-9929378D01*
X11159153Y-9937672D01*
X11131112Y-9943250D01*
X11104695Y-9954192D01*
X11077354Y-9962486D01*
X11052159Y-9975953D01*
X11025740Y-9986896D01*
X11001963Y-10002783D01*
X10976769Y-10016250D01*
X10954684Y-10034375D01*
X10930909Y-10050261D01*
X10910689Y-10070481D01*
X10888605Y-10088605D01*
X10870481Y-10110689D01*
X10850261Y-10130909D01*
X10834375Y-10154684D01*
X10816250Y-10176769D01*
X10802783Y-10201963D01*
X10786896Y-10225740D01*
X10775953Y-10252159D01*
X10762486Y-10277354D01*
X10754192Y-10304695D01*
X10743250Y-10331112D01*
X10737672Y-10359153D01*
X10729378Y-10386496D01*
X10726577Y-10414934D01*
X10721000Y-10442973D01*
X10721000Y-10471561D01*
X10718199Y-10500000D01*
X10721000Y-10528438D01*
X10721000Y-10557027D01*
X10726577Y-10585066D01*
X10729378Y-10613504D01*
X10737672Y-10640847D01*
X10743250Y-10668888D01*
X10754192Y-10695305D01*
X10762486Y-10722646D01*
X10775953Y-10747841D01*
X10786896Y-10774260D01*
X10802783Y-10798037D01*
X10816250Y-10823231D01*
X10834375Y-10845316D01*
X10850261Y-10869091D01*
X10870481Y-10889311D01*
X10888605Y-10911395D01*
X10910689Y-10929519D01*
X10930909Y-10949739D01*
X10954684Y-10965625D01*
X10976769Y-10983750D01*
X11001963Y-10997217D01*
X11025740Y-11013104D01*
X11052159Y-11024047D01*
X11077354Y-11037514D01*
X11104695Y-11045808D01*
X11131112Y-11056750D01*
X11159153Y-11062328D01*
X11186496Y-11070622D01*
X11214934Y-11073423D01*
X11242973Y-11079000D01*
X13621001Y-11079000D01*
X13621001Y-11820855D01*
X13500000Y-11808937D01*
X11160250Y-11812000D01*
X11002000Y-11970250D01*
X11002000Y-14943000D01*
X11022000Y-14943000D01*
X11022000Y-14947000D01*
X11002000Y-14947000D01*
X11002000Y-17919750D01*
X11160250Y-18078000D01*
X13500000Y-18081063D01*
X13624090Y-18068841D01*
X13743411Y-18032646D01*
X13853378Y-17973867D01*
X13949764Y-17894764D01*
X14028867Y-17798378D01*
X14087646Y-17688411D01*
X14123841Y-17569090D01*
X14136063Y-17445000D01*
X14133618Y-15577139D01*
X14142973Y-15579000D01*
X14171561Y-15579000D01*
X14200000Y-15581801D01*
X14228439Y-15579000D01*
X14257027Y-15579000D01*
X14285066Y-15573423D01*
X14313503Y-15570622D01*
X14340844Y-15562328D01*
X14368888Y-15556750D01*
X14395308Y-15545807D01*
X14422645Y-15537514D01*
X14447836Y-15524049D01*
X14474260Y-15513104D01*
X14498041Y-15497214D01*
X14523230Y-15483750D01*
X14545312Y-15465628D01*
X14569091Y-15449739D01*
X14589312Y-15429518D01*
X14611395Y-15411395D01*
X14629519Y-15389311D01*
X14649739Y-15369091D01*
X14665625Y-15345316D01*
X14683750Y-15323231D01*
X14697217Y-15298037D01*
X14713104Y-15274260D01*
X14724047Y-15247841D01*
X14737514Y-15222646D01*
X14745808Y-15195305D01*
X14756750Y-15168888D01*
X14762328Y-15140847D01*
X14770622Y-15113504D01*
X14773423Y-15085066D01*
X14779000Y-15057027D01*
X14779000Y-10528438D01*
X14781801Y-10500000D01*
X14779000Y-10471561D01*
X14779000Y-10239829D01*
X15724829Y-9294000D01*
X16248779Y-9294000D01*
X16246000Y-9307973D01*
X16246000Y-9422027D01*
X16268250Y-9533888D01*
X16311896Y-9639260D01*
X16375261Y-9734091D01*
X16455909Y-9814739D01*
X16550740Y-9878104D01*
X16656112Y-9921750D01*
X16672183Y-9924947D01*
X17071114Y-10323878D01*
X17086894Y-10343106D01*
X17119167Y-10369592D01*
X17119167Y-10435000D01*
X17126485Y-10509297D01*
X17148156Y-10580738D01*
X17169142Y-10620000D01*
X17148156Y-10659262D01*
X17126485Y-10730703D01*
X17119167Y-10805000D01*
X17119167Y-11705000D01*
X17126485Y-11779297D01*
X17148156Y-11850738D01*
X17169142Y-11890000D01*
X17148156Y-11929262D01*
X17126485Y-12000703D01*
X17119167Y-12075000D01*
X17119167Y-12975000D01*
X17126485Y-13049297D01*
X17148156Y-13120738D01*
X17169142Y-13160000D01*
X17148156Y-13199262D01*
X17126485Y-13270703D01*
X17119167Y-13345000D01*
X17119167Y-14245000D01*
X17126485Y-14319297D01*
X17148156Y-14390738D01*
X17169142Y-14430000D01*
X17148156Y-14469262D01*
X17126485Y-14540703D01*
X17119167Y-14615000D01*
X17119167Y-15515000D01*
X17126485Y-15589297D01*
X17148156Y-15660738D01*
X17169142Y-15700000D01*
X17148156Y-15739262D01*
X17126485Y-15810703D01*
X17119167Y-15885000D01*
X17119167Y-16785000D01*
X17126485Y-16859297D01*
X17148156Y-16930738D01*
X17169142Y-16970000D01*
X17148156Y-17009262D01*
X17126485Y-17080703D01*
X17119167Y-17155000D01*
X17119167Y-18055000D01*
X17126485Y-18129297D01*
X17148156Y-18200738D01*
X17169142Y-18240000D01*
X17148156Y-18279262D01*
X17126485Y-18350703D01*
X17119167Y-18425000D01*
X17119167Y-19325000D01*
X17126485Y-19399297D01*
X17148156Y-19470738D01*
X17169142Y-19510000D01*
X17148156Y-19549262D01*
X17126485Y-19620703D01*
X17119167Y-19695000D01*
X17119167Y-20595000D01*
X17126485Y-20669297D01*
X17148156Y-20740738D01*
X17169142Y-20780000D01*
X17148156Y-20819262D01*
X17126485Y-20890703D01*
X17119167Y-20965000D01*
X17119167Y-21865000D01*
X17126485Y-21939297D01*
X17148156Y-22010738D01*
X17169142Y-22050000D01*
X17148156Y-22089262D01*
X17126485Y-22160703D01*
X17119167Y-22235000D01*
X17119167Y-23135000D01*
X17126485Y-23209297D01*
X17148156Y-23280738D01*
X17169142Y-23320000D01*
X17148156Y-23359262D01*
X17126485Y-23430703D01*
X17119167Y-23505000D01*
X17119167Y-24405000D01*
X17126485Y-24479297D01*
X17148156Y-24550738D01*
X17183349Y-24616579D01*
X17230710Y-24674290D01*
X17288421Y-24721651D01*
X17354262Y-24756844D01*
X17425703Y-24778515D01*
X17500000Y-24785833D01*
X19500000Y-24785833D01*
X19574297Y-24778515D01*
X19596000Y-24771931D01*
X19596000Y-34096000D01*
X15019840Y-34096000D01*
X15000000Y-34094046D01*
X14980160Y-34096000D01*
X14920802Y-34101846D01*
X14844648Y-34124947D01*
X14774464Y-34162462D01*
X14712947Y-34212947D01*
X14662462Y-34274464D01*
X14624947Y-34344648D01*
X14601846Y-34420802D01*
X14594046Y-34500000D01*
X14596001Y-34519850D01*
X14596000Y-38596000D01*
X14174620Y-38596000D01*
X14269087Y-38419995D01*
X14335359Y-38202876D01*
X14358000Y-37977000D01*
X14358000Y-37552000D01*
X13202000Y-37552000D01*
X13202000Y-37572000D01*
X13198000Y-37572000D01*
X13198000Y-37552000D01*
X11127000Y-37552000D01*
X11127000Y-37572000D01*
X11123000Y-37572000D01*
X11123000Y-37552000D01*
X8877000Y-37552000D01*
X8877000Y-37572000D01*
X8873000Y-37572000D01*
X8873000Y-37552000D01*
X6802000Y-37552000D01*
X6802000Y-37572000D01*
X6798000Y-37572000D01*
X6798000Y-37552000D01*
X5642000Y-37552000D01*
X5642000Y-37977000D01*
X5664641Y-38202876D01*
X5730913Y-38419995D01*
X5825380Y-38596000D01*
X5404000Y-38596000D01*
X5404000Y-37123000D01*
X5642000Y-37123000D01*
X5642000Y-37548000D01*
X6798000Y-37548000D01*
X6798000Y-37528000D01*
X6802000Y-37528000D01*
X6802000Y-37548000D01*
X8873000Y-37548000D01*
X8873000Y-37528000D01*
X8877000Y-37528000D01*
X8877000Y-37548000D01*
X11123000Y-37548000D01*
X11123000Y-37528000D01*
X11127000Y-37528000D01*
X11127000Y-37548000D01*
X13198000Y-37548000D01*
X13198000Y-37528000D01*
X13202000Y-37528000D01*
X13202000Y-37548000D01*
X14358000Y-37548000D01*
X14358000Y-37123000D01*
X14335359Y-36897124D01*
X14269087Y-36680005D01*
X14161731Y-36479987D01*
X14017416Y-36304756D01*
X13841688Y-36161047D01*
X13641300Y-36054382D01*
X13530933Y-36021111D01*
X13528000Y-35480250D01*
X13369750Y-35322000D01*
X12322000Y-35322000D01*
X12322000Y-35342000D01*
X12318000Y-35342000D01*
X12318000Y-35322000D01*
X12298000Y-35322000D01*
X12298000Y-35318000D01*
X12318000Y-35318000D01*
X12318000Y-34120250D01*
X12322000Y-34120250D01*
X12322000Y-35318000D01*
X13369750Y-35318000D01*
X13528000Y-35159750D01*
X13531063Y-34595000D01*
X13518841Y-34470910D01*
X13482646Y-34351589D01*
X13423867Y-34241622D01*
X13344764Y-34145236D01*
X13248378Y-34066133D01*
X13138411Y-34007354D01*
X13019090Y-33971159D01*
X12895000Y-33958937D01*
X12480250Y-33962000D01*
X12322000Y-34120250D01*
X12318000Y-34120250D01*
X12159750Y-33962000D01*
X11804000Y-33959373D01*
X11804000Y-33724750D01*
X11806438Y-33699999D01*
X11803394Y-33669091D01*
X11796707Y-33601199D01*
X11767888Y-33506195D01*
X11721088Y-33418638D01*
X11658106Y-33341894D01*
X11638878Y-33326114D01*
X11273890Y-32961127D01*
X11258106Y-32941894D01*
X11181362Y-32878912D01*
X11093805Y-32832112D01*
X10998801Y-32803293D01*
X10924754Y-32796000D01*
X10900000Y-32793562D01*
X10875246Y-32796000D01*
X10287885Y-32796000D01*
X10274260Y-32786896D01*
X10168888Y-32743250D01*
X10057027Y-32721000D01*
X9942973Y-32721000D01*
X9831112Y-32743250D01*
X9725740Y-32786896D01*
X9630909Y-32850261D01*
X9550261Y-32930909D01*
X9486896Y-33025740D01*
X9443250Y-33131112D01*
X9421000Y-33242973D01*
X9421000Y-33357027D01*
X9443250Y-33468888D01*
X9486896Y-33574260D01*
X9550261Y-33669091D01*
X9630909Y-33749739D01*
X9725740Y-33813104D01*
X9751832Y-33823911D01*
X9725703Y-33826485D01*
X9675000Y-33841865D01*
X9624297Y-33826485D01*
X9550000Y-33819167D01*
X9406335Y-33819167D01*
X9349764Y-33750236D01*
X9253378Y-33671133D01*
X9143411Y-33612354D01*
X9024090Y-33576159D01*
X8900000Y-33563937D01*
X8860250Y-33567000D01*
X8702000Y-33725250D01*
X8702000Y-34142968D01*
X8698000Y-34139685D01*
X8698000Y-33725250D01*
X8539750Y-33567000D01*
X8500000Y-33563937D01*
X8375910Y-33576159D01*
X8256589Y-33612354D01*
X8146622Y-33671133D01*
X8050236Y-33750236D01*
X7971133Y-33846622D01*
X7912354Y-33956589D01*
X7910871Y-33961478D01*
X7840250Y-33962000D01*
X7682000Y-34120250D01*
X7682000Y-35318000D01*
X7702000Y-35318000D01*
X7702000Y-35322000D01*
X7682000Y-35322000D01*
X7682000Y-35342000D01*
X7678000Y-35342000D01*
X7678000Y-35322000D01*
X6630250Y-35322000D01*
X6472000Y-35480250D01*
X6469067Y-36021111D01*
X6358700Y-36054382D01*
X6158312Y-36161047D01*
X5982584Y-36304756D01*
X5838269Y-36479987D01*
X5730913Y-36680005D01*
X5664641Y-36897124D01*
X5642000Y-37123000D01*
X5404000Y-37123000D01*
X5404000Y-34595000D01*
X6468937Y-34595000D01*
X6472000Y-35159750D01*
X6630250Y-35318000D01*
X7678000Y-35318000D01*
X7678000Y-34120250D01*
X7519750Y-33962000D01*
X7105000Y-33958937D01*
X6980910Y-33971159D01*
X6861589Y-34007354D01*
X6751622Y-34066133D01*
X6655236Y-34145236D01*
X6576133Y-34241622D01*
X6517354Y-34351589D01*
X6481159Y-34470910D01*
X6468937Y-34595000D01*
X5404000Y-34595000D01*
X5404000Y-34519839D01*
X5405954Y-34500000D01*
X5398154Y-34420802D01*
X5375053Y-34344648D01*
X5337538Y-34274464D01*
X5287053Y-34212947D01*
X5225536Y-34162462D01*
X5155352Y-34124947D01*
X5079198Y-34101846D01*
X5019840Y-34096000D01*
X5000000Y-34094046D01*
X4980160Y-34096000D01*
X404000Y-34096000D01*
X404000Y-24771932D01*
X425703Y-24778515D01*
X500000Y-24785833D01*
X2479628Y-24785833D01*
X2535260Y-24869091D01*
X2615908Y-24949739D01*
X2710739Y-25013104D01*
X2816111Y-25056750D01*
X2927972Y-25079000D01*
X3006000Y-25079000D01*
X3005999Y-31025245D01*
X3003561Y-31049999D01*
X3005999Y-31074752D01*
X3013292Y-31148799D01*
X3042111Y-31243803D01*
X3088911Y-31331361D01*
X3151893Y-31408105D01*
X3171126Y-31423889D01*
X3719167Y-31971930D01*
X3719167Y-33440000D01*
X3726485Y-33514297D01*
X3748156Y-33585738D01*
X3783349Y-33651579D01*
X3830710Y-33709290D01*
X3888421Y-33756651D01*
X3954262Y-33791844D01*
X4025703Y-33813515D01*
X4100000Y-33820833D01*
X5900000Y-33820833D01*
X5974297Y-33813515D01*
X6045738Y-33791844D01*
X6111579Y-33756651D01*
X6169290Y-33709290D01*
X6216651Y-33651579D01*
X6251844Y-33585738D01*
X6273515Y-33514297D01*
X6280833Y-33440000D01*
X6280833Y-31640000D01*
X6273515Y-31565703D01*
X6251844Y-31494262D01*
X6216651Y-31428421D01*
X6169290Y-31370710D01*
X6111579Y-31323349D01*
X6045738Y-31288156D01*
X5974297Y-31266485D01*
X5900000Y-31259167D01*
X5886204Y-31259167D01*
X5903816Y-31247399D01*
X5975925Y-30978754D01*
X5000000Y-30002828D01*
X4985858Y-30016971D01*
X4983029Y-30014142D01*
X4997172Y-30000000D01*
X5002828Y-30000000D01*
X5978754Y-30975925D01*
X6247399Y-30903816D01*
X6399757Y-30643095D01*
X6498322Y-30357659D01*
X6539309Y-30058478D01*
X6521139Y-29757051D01*
X6444515Y-29464959D01*
X6312377Y-29193429D01*
X6247399Y-29096184D01*
X5978754Y-29024075D01*
X5002828Y-30000000D01*
X4997172Y-30000000D01*
X4983029Y-29985858D01*
X4985858Y-29983029D01*
X5000000Y-29997172D01*
X5975925Y-29021246D01*
X5903816Y-28752601D01*
X5643095Y-28600243D01*
X5611813Y-28589441D01*
X5815315Y-28453465D01*
X5993465Y-28275315D01*
X6133436Y-28065834D01*
X6229849Y-27833071D01*
X6279000Y-27585971D01*
X6279000Y-27535165D01*
X6331112Y-27556750D01*
X6347184Y-27559947D01*
X7059959Y-28272722D01*
X7025740Y-28286896D01*
X6930909Y-28350261D01*
X6850261Y-28430909D01*
X6786896Y-28525740D01*
X6743250Y-28631112D01*
X6721000Y-28742973D01*
X6721000Y-28857027D01*
X6743250Y-28968888D01*
X6786896Y-29074260D01*
X6850261Y-29169091D01*
X6930909Y-29249739D01*
X7025740Y-29313104D01*
X7131112Y-29356750D01*
X7147183Y-29359947D01*
X7376124Y-29588888D01*
X7391904Y-29608116D01*
X7468648Y-29671098D01*
X7556205Y-29717898D01*
X7651209Y-29746717D01*
X7725256Y-29754010D01*
X7725258Y-29754010D01*
X7750009Y-29756448D01*
X7774760Y-29754010D01*
X11501247Y-29754010D01*
X13719167Y-31971931D01*
X13719167Y-33440000D01*
X13726485Y-33514297D01*
X13748156Y-33585738D01*
X13783349Y-33651579D01*
X13830710Y-33709290D01*
X13888421Y-33756651D01*
X13954262Y-33791844D01*
X14025703Y-33813515D01*
X14100000Y-33820833D01*
X15900000Y-33820833D01*
X15974297Y-33813515D01*
X16045738Y-33791844D01*
X16111579Y-33756651D01*
X16169290Y-33709290D01*
X16216651Y-33651579D01*
X16251844Y-33585738D01*
X16273515Y-33514297D01*
X16280833Y-33440000D01*
X16280833Y-31640000D01*
X16273515Y-31565703D01*
X16251844Y-31494262D01*
X16216651Y-31428421D01*
X16169290Y-31370710D01*
X16111579Y-31323349D01*
X16045738Y-31288156D01*
X15974297Y-31266485D01*
X15900000Y-31259167D01*
X15886204Y-31259167D01*
X15903816Y-31247399D01*
X15975925Y-30978754D01*
X15000000Y-30002828D01*
X14985858Y-30016971D01*
X14983029Y-30014142D01*
X14997172Y-30000000D01*
X14983029Y-29985858D01*
X14985858Y-29983029D01*
X15000000Y-29997172D01*
X15014142Y-29983029D01*
X15016971Y-29985858D01*
X15002828Y-30000000D01*
X15978754Y-30975925D01*
X16247399Y-30903816D01*
X16399757Y-30643095D01*
X16498322Y-30357659D01*
X16539309Y-30058478D01*
X16521139Y-29757051D01*
X16444515Y-29464959D01*
X16437234Y-29449997D01*
X17340053Y-30352816D01*
X17343250Y-30368888D01*
X17386896Y-30474260D01*
X17396001Y-30487886D01*
X17396000Y-31712115D01*
X17386896Y-31725740D01*
X17343250Y-31831112D01*
X17321000Y-31942973D01*
X17321000Y-32057027D01*
X17343250Y-32168888D01*
X17386896Y-32274260D01*
X17450261Y-32369091D01*
X17530909Y-32449739D01*
X17625740Y-32513104D01*
X17731112Y-32556750D01*
X17842973Y-32579000D01*
X17957027Y-32579000D01*
X18068888Y-32556750D01*
X18174260Y-32513104D01*
X18269091Y-32449739D01*
X18349739Y-32369091D01*
X18413104Y-32274260D01*
X18456750Y-32168888D01*
X18479000Y-32057027D01*
X18479000Y-31942973D01*
X18456750Y-31831112D01*
X18413104Y-31725740D01*
X18404000Y-31712115D01*
X18404000Y-30487885D01*
X18413104Y-30474260D01*
X18456750Y-30368888D01*
X18479000Y-30257027D01*
X18479000Y-30142973D01*
X18456750Y-30031112D01*
X18413104Y-29925740D01*
X18349739Y-29830909D01*
X18269091Y-29750261D01*
X18174260Y-29686896D01*
X18068888Y-29643250D01*
X18052816Y-29640053D01*
X16848889Y-28436126D01*
X16833105Y-28416893D01*
X16756361Y-28353911D01*
X16668804Y-28307111D01*
X16573800Y-28278292D01*
X16499753Y-28270999D01*
X16474999Y-28268561D01*
X16450245Y-28270999D01*
X15996349Y-28270999D01*
X16133436Y-28065834D01*
X16175617Y-27964000D01*
X17251237Y-27964000D01*
X18521001Y-29233764D01*
X18521002Y-29842821D01*
X18512035Y-29872380D01*
X18503293Y-29901199D01*
X18493562Y-30000000D01*
X18496000Y-30024754D01*
X18496001Y-30712114D01*
X18486896Y-30725740D01*
X18443250Y-30831112D01*
X18421000Y-30942973D01*
X18421000Y-31057027D01*
X18443250Y-31168888D01*
X18486896Y-31274260D01*
X18550261Y-31369091D01*
X18630909Y-31449739D01*
X18725740Y-31513104D01*
X18831112Y-31556750D01*
X18942973Y-31579000D01*
X19057027Y-31579000D01*
X19168888Y-31556750D01*
X19274260Y-31513104D01*
X19369091Y-31449739D01*
X19449739Y-31369091D01*
X19513104Y-31274260D01*
X19556750Y-31168888D01*
X19579000Y-31057027D01*
X19579000Y-30942973D01*
X19556750Y-30831112D01*
X19513104Y-30725740D01*
X19504000Y-30712115D01*
X19504000Y-30132176D01*
X19521708Y-30073800D01*
X19529001Y-29999753D01*
X19531439Y-29974999D01*
X19529001Y-29950245D01*
X19529001Y-29049755D01*
X19531439Y-29025001D01*
X19528367Y-28993805D01*
X19521708Y-28926200D01*
X19492889Y-28831196D01*
X19446089Y-28743639D01*
X19383107Y-28666895D01*
X19363874Y-28651111D01*
X17833890Y-27121127D01*
X17818106Y-27101894D01*
X17741362Y-27038912D01*
X17653805Y-26992112D01*
X17558801Y-26963293D01*
X17484754Y-26956000D01*
X17460000Y-26953562D01*
X17435246Y-26956000D01*
X16175617Y-26956000D01*
X16133436Y-26854166D01*
X15993465Y-26644685D01*
X15937437Y-26588657D01*
X16165000Y-26591063D01*
X16289090Y-26578841D01*
X16408411Y-26542646D01*
X16518378Y-26483867D01*
X16614764Y-26404764D01*
X16693867Y-26308378D01*
X16752646Y-26198411D01*
X16788841Y-26079090D01*
X16801063Y-25955000D01*
X16798000Y-25115250D01*
X16639750Y-24957000D01*
X15717000Y-24957000D01*
X15717000Y-24977000D01*
X15713000Y-24977000D01*
X15713000Y-24957000D01*
X15693000Y-24957000D01*
X15693000Y-24953000D01*
X15713000Y-24953000D01*
X15713000Y-23480250D01*
X15717000Y-23480250D01*
X15717000Y-24953000D01*
X16639750Y-24953000D01*
X16798000Y-24794750D01*
X16801063Y-23955000D01*
X16788841Y-23830910D01*
X16752646Y-23711589D01*
X16693867Y-23601622D01*
X16614764Y-23505236D01*
X16518378Y-23426133D01*
X16408411Y-23367354D01*
X16289090Y-23331159D01*
X16165000Y-23318937D01*
X15875250Y-23322000D01*
X15717000Y-23480250D01*
X15713000Y-23480250D01*
X15554750Y-23322000D01*
X15265000Y-23318937D01*
X15140910Y-23331159D01*
X15021589Y-23367354D01*
X14911622Y-23426133D01*
X14815236Y-23505236D01*
X14758665Y-23574167D01*
X13995000Y-23574167D01*
X13920703Y-23581485D01*
X13849262Y-23603156D01*
X13810000Y-23624142D01*
X13770738Y-23603156D01*
X13699297Y-23581485D01*
X13625000Y-23574167D01*
X12725000Y-23574167D01*
X12650703Y-23581485D01*
X12579262Y-23603156D01*
X12540000Y-23624142D01*
X12500738Y-23603156D01*
X12429297Y-23581485D01*
X12355000Y-23574167D01*
X11455000Y-23574167D01*
X11380703Y-23581485D01*
X11309262Y-23603156D01*
X11270000Y-23624142D01*
X11230738Y-23603156D01*
X11159297Y-23581485D01*
X11085000Y-23574167D01*
X10185000Y-23574167D01*
X10110703Y-23581485D01*
X10039262Y-23603156D01*
X10000000Y-23624142D01*
X9960738Y-23603156D01*
X9889297Y-23581485D01*
X9815000Y-23574167D01*
X8915000Y-23574167D01*
X8840703Y-23581485D01*
X8769262Y-23603156D01*
X8730000Y-23624142D01*
X8690738Y-23603156D01*
X8619297Y-23581485D01*
X8545000Y-23574167D01*
X7645000Y-23574167D01*
X7570703Y-23581485D01*
X7499262Y-23603156D01*
X7460000Y-23624142D01*
X7420738Y-23603156D01*
X7349297Y-23581485D01*
X7275000Y-23574167D01*
X6743076Y-23574167D01*
X6747859Y-23570971D01*
X6828507Y-23490323D01*
X6891872Y-23395492D01*
X6935518Y-23290120D01*
X6938715Y-23274048D01*
X7508763Y-22704000D01*
X13525246Y-22704000D01*
X13550000Y-22706438D01*
X13648801Y-22696707D01*
X13743805Y-22667888D01*
X13831362Y-22621088D01*
X13908106Y-22558106D01*
X13923890Y-22538873D01*
X15377816Y-21084947D01*
X15393888Y-21081750D01*
X15499260Y-21038104D01*
X15594091Y-20974739D01*
X15674739Y-20894091D01*
X15738104Y-20799260D01*
X15781750Y-20693888D01*
X15804000Y-20582027D01*
X15804000Y-20467973D01*
X15781750Y-20356112D01*
X15738104Y-20250740D01*
X15674739Y-20155909D01*
X15594091Y-20075261D01*
X15499260Y-20011896D01*
X15393888Y-19968250D01*
X15282027Y-19946000D01*
X15167973Y-19946000D01*
X15056112Y-19968250D01*
X14950740Y-20011896D01*
X14855909Y-20075261D01*
X14775261Y-20155909D01*
X14711896Y-20250740D01*
X14668250Y-20356112D01*
X14665053Y-20372184D01*
X13341237Y-21696000D01*
X7324754Y-21696000D01*
X7300000Y-21693562D01*
X7201198Y-21703293D01*
X7172379Y-21712035D01*
X7106195Y-21732112D01*
X7018638Y-21778912D01*
X6941894Y-21841894D01*
X6926110Y-21861127D01*
X6225952Y-22561285D01*
X6209880Y-22564482D01*
X6104508Y-22608128D01*
X6009677Y-22671493D01*
X5929029Y-22752141D01*
X5865664Y-22846972D01*
X5822018Y-22952344D01*
X5799768Y-23064205D01*
X5799768Y-23178259D01*
X5822018Y-23290120D01*
X5865664Y-23395492D01*
X5929029Y-23490323D01*
X6009677Y-23570971D01*
X6016096Y-23575260D01*
X6005000Y-23574167D01*
X5105000Y-23574167D01*
X5030703Y-23581485D01*
X4959262Y-23603156D01*
X4920000Y-23624142D01*
X4880738Y-23603156D01*
X4809297Y-23581485D01*
X4735000Y-23574167D01*
X4013999Y-23574167D01*
X4013999Y-22836442D01*
X4042887Y-22782396D01*
X4071706Y-22687392D01*
X4078999Y-22613345D01*
X4081437Y-22588591D01*
X4078999Y-22563837D01*
X4078999Y-16433764D01*
X4252816Y-16259947D01*
X4268888Y-16256750D01*
X4374260Y-16213104D01*
X4469091Y-16149739D01*
X4549739Y-16069091D01*
X4613104Y-15974260D01*
X4656750Y-15868888D01*
X4679000Y-15757027D01*
X4679000Y-15642973D01*
X4656750Y-15531112D01*
X4613104Y-15425740D01*
X4549739Y-15330909D01*
X4469091Y-15250261D01*
X4433026Y-15226163D01*
X4456750Y-15168888D01*
X4479000Y-15057027D01*
X4479000Y-14942973D01*
X4456750Y-14831112D01*
X4413104Y-14725740D01*
X4349739Y-14630909D01*
X4269091Y-14550261D01*
X4199858Y-14504000D01*
X4212115Y-14504000D01*
X4225740Y-14513104D01*
X4331112Y-14556750D01*
X4442973Y-14579000D01*
X4557027Y-14579000D01*
X4668888Y-14556750D01*
X4774260Y-14513104D01*
X4869091Y-14449739D01*
X4949739Y-14369091D01*
X4990003Y-14308833D01*
X5021001Y-14339831D01*
X5021000Y-20571560D01*
X5018199Y-20600000D01*
X5021000Y-20628438D01*
X5021000Y-21035171D01*
X5005912Y-21050259D01*
X5005909Y-21050261D01*
X4925261Y-21130909D01*
X4909375Y-21154684D01*
X4891250Y-21176769D01*
X4877784Y-21201962D01*
X4861896Y-21225740D01*
X4850952Y-21252163D01*
X4837486Y-21277355D01*
X4829194Y-21304691D01*
X4818250Y-21331112D01*
X4812671Y-21359161D01*
X4804379Y-21386496D01*
X4801579Y-21414924D01*
X4796000Y-21442973D01*
X4796000Y-21471571D01*
X4793200Y-21500000D01*
X4796000Y-21528429D01*
X4796000Y-21557027D01*
X4801579Y-21585076D01*
X4804379Y-21613504D01*
X4812671Y-21640839D01*
X4818250Y-21668888D01*
X4829194Y-21695309D01*
X4837486Y-21722645D01*
X4850952Y-21747837D01*
X4861896Y-21774260D01*
X4877784Y-21798038D01*
X4891250Y-21823231D01*
X4909375Y-21845316D01*
X4925261Y-21869091D01*
X4945481Y-21889311D01*
X4963605Y-21911395D01*
X4985689Y-21929519D01*
X5005909Y-21949739D01*
X5029684Y-21965625D01*
X5051769Y-21983750D01*
X5076962Y-21997216D01*
X5100740Y-22013104D01*
X5127163Y-22024048D01*
X5152355Y-22037514D01*
X5179691Y-22045806D01*
X5206112Y-22056750D01*
X5234161Y-22062329D01*
X5261496Y-22070621D01*
X5289924Y-22073421D01*
X5317973Y-22079000D01*
X5346571Y-22079000D01*
X5375000Y-22081800D01*
X5403429Y-22079000D01*
X5432027Y-22079000D01*
X5460076Y-22073421D01*
X5488504Y-22070621D01*
X5515839Y-22062329D01*
X5543888Y-22056750D01*
X5570309Y-22045806D01*
X5597645Y-22037514D01*
X5622837Y-22024048D01*
X5649260Y-22013104D01*
X5673038Y-21997216D01*
X5698231Y-21983750D01*
X5720316Y-21965625D01*
X5744091Y-21949739D01*
X5824739Y-21869091D01*
X5824741Y-21869088D01*
X5989305Y-21704524D01*
X6011395Y-21686395D01*
X6083750Y-21598231D01*
X6137514Y-21497646D01*
X6170622Y-21388504D01*
X6179000Y-21303439D01*
X6179000Y-21303430D01*
X6181800Y-21275001D01*
X6179000Y-21246571D01*
X6179000Y-21179000D01*
X8071571Y-21179000D01*
X8100000Y-21181800D01*
X8128429Y-21179000D01*
X8128439Y-21179000D01*
X8213504Y-21170622D01*
X8322646Y-21137514D01*
X8423231Y-21083750D01*
X8511395Y-21011395D01*
X8529523Y-20989306D01*
X8939524Y-20579306D01*
X8959739Y-20559091D01*
X8975624Y-20535318D01*
X8993750Y-20513231D01*
X9007216Y-20488038D01*
X9023104Y-20464260D01*
X9034048Y-20437837D01*
X9047514Y-20412645D01*
X9055807Y-20385307D01*
X9066750Y-20358888D01*
X9072328Y-20330846D01*
X9080622Y-20303504D01*
X9083422Y-20275068D01*
X9089000Y-20247027D01*
X9089000Y-20218432D01*
X9091800Y-20190000D01*
X9089000Y-20161568D01*
X9089000Y-20132973D01*
X9083422Y-20104932D01*
X9080622Y-20076496D01*
X9072328Y-20049154D01*
X9066750Y-20021112D01*
X9055807Y-19994693D01*
X9047514Y-19967355D01*
X9034048Y-19942163D01*
X9023104Y-19915740D01*
X9007216Y-19891962D01*
X8993750Y-19866769D01*
X8975625Y-19844684D01*
X8959739Y-19820909D01*
X8939519Y-19800689D01*
X8921395Y-19778605D01*
X8899311Y-19760481D01*
X8879091Y-19740261D01*
X8855316Y-19724375D01*
X8833231Y-19706250D01*
X8808038Y-19692784D01*
X8784260Y-19676896D01*
X8757837Y-19665952D01*
X8732645Y-19652486D01*
X8705307Y-19644193D01*
X8678888Y-19633250D01*
X8650846Y-19627672D01*
X8623504Y-19619378D01*
X8595068Y-19616578D01*
X8567027Y-19611000D01*
X8538432Y-19611000D01*
X8510000Y-19608200D01*
X8481568Y-19611000D01*
X8452973Y-19611000D01*
X8424932Y-19616578D01*
X8396496Y-19619378D01*
X8369154Y-19627672D01*
X8341112Y-19633250D01*
X8314693Y-19644193D01*
X8287355Y-19652486D01*
X8262163Y-19665952D01*
X8235740Y-19676896D01*
X8211962Y-19692784D01*
X8186769Y-19706250D01*
X8164682Y-19724376D01*
X8140909Y-19740261D01*
X8120694Y-19760476D01*
X7860171Y-20021000D01*
X6179000Y-20021000D01*
X6179000Y-17445000D01*
X7863937Y-17445000D01*
X7876159Y-17569090D01*
X7912354Y-17688411D01*
X7971133Y-17798378D01*
X8050236Y-17894764D01*
X8146622Y-17973867D01*
X8256589Y-18032646D01*
X8375910Y-18068841D01*
X8500000Y-18081063D01*
X10839750Y-18078000D01*
X10998000Y-17919750D01*
X10998000Y-14947000D01*
X8025250Y-14947000D01*
X7867000Y-15105250D01*
X7863937Y-17445000D01*
X6179000Y-17445000D01*
X6179000Y-14128432D01*
X6181800Y-14100000D01*
X6179000Y-14071568D01*
X6179000Y-14071561D01*
X6170622Y-13986496D01*
X6137514Y-13877354D01*
X6083750Y-13776769D01*
X6053003Y-13739304D01*
X6029524Y-13710694D01*
X6029519Y-13710689D01*
X6011395Y-13688605D01*
X5989310Y-13670481D01*
X5279522Y-12960693D01*
X5261394Y-12938604D01*
X5173230Y-12866249D01*
X5072645Y-12812485D01*
X4963503Y-12779377D01*
X4878438Y-12770999D01*
X4878428Y-12770999D01*
X4849999Y-12768199D01*
X4821570Y-12770999D01*
X4456043Y-12770999D01*
X4239806Y-12554763D01*
X4239804Y-12554760D01*
X4159156Y-12474112D01*
X4135381Y-12458226D01*
X4119266Y-12445000D01*
X7863937Y-12445000D01*
X7867000Y-14784750D01*
X8025250Y-14943000D01*
X10998000Y-14943000D01*
X10998000Y-11970250D01*
X10839750Y-11812000D01*
X8500000Y-11808937D01*
X8375910Y-11821159D01*
X8256589Y-11857354D01*
X8146622Y-11916133D01*
X8050236Y-11995236D01*
X7971133Y-12091622D01*
X7912354Y-12201589D01*
X7876159Y-12320910D01*
X7863937Y-12445000D01*
X4119266Y-12445000D01*
X4113296Y-12440101D01*
X4088103Y-12426635D01*
X4064325Y-12410747D01*
X4037902Y-12399803D01*
X4012710Y-12386337D01*
X3985374Y-12378045D01*
X3958953Y-12367101D01*
X3930904Y-12361522D01*
X3903569Y-12353230D01*
X3875141Y-12350430D01*
X3847092Y-12344851D01*
X3818494Y-12344851D01*
X3790065Y-12342051D01*
X3761636Y-12344851D01*
X3733038Y-12344851D01*
X3723548Y-12346739D01*
X7366287Y-8704000D01*
X8412115Y-8704000D01*
X8425740Y-8713104D01*
X8531112Y-8756750D01*
X8642973Y-8779000D01*
X8757027Y-8779000D01*
X8868888Y-8756750D01*
X8974260Y-8713104D01*
X9069091Y-8649739D01*
X9149739Y-8569091D01*
X9213104Y-8474260D01*
X9256750Y-8368888D01*
X9279000Y-8257027D01*
X9279000Y-8142973D01*
X9256750Y-8031112D01*
X9213104Y-7925740D01*
X9149739Y-7830909D01*
X9069091Y-7750261D01*
X8974260Y-7686896D01*
X8868888Y-7643250D01*
X8757027Y-7621000D01*
X8642973Y-7621000D01*
X8531112Y-7643250D01*
X8425740Y-7686896D01*
X8412115Y-7696000D01*
X7182278Y-7696000D01*
X7157524Y-7693562D01*
X7132770Y-7696000D01*
X7058723Y-7703293D01*
X6963719Y-7732112D01*
X6876162Y-7778912D01*
X6799418Y-7841894D01*
X6783634Y-7861127D01*
X6504000Y-8140761D01*
X6504000Y-7787885D01*
X6513104Y-7774260D01*
X6556750Y-7668888D01*
X6579000Y-7557027D01*
X6579000Y-7442973D01*
X6556750Y-7331112D01*
X6513104Y-7225740D01*
X6449739Y-7130909D01*
X6369091Y-7050261D01*
X6286389Y-6995000D01*
X16863937Y-6995000D01*
X16867000Y-7284750D01*
X17025250Y-7443000D01*
X18498000Y-7443000D01*
X18498000Y-6520250D01*
X18339750Y-6362000D01*
X17500000Y-6358937D01*
X17375910Y-6371159D01*
X17256589Y-6407354D01*
X17146622Y-6466133D01*
X17050236Y-6545236D01*
X16971133Y-6641622D01*
X16912354Y-6751589D01*
X16876159Y-6870910D01*
X16863937Y-6995000D01*
X6286389Y-6995000D01*
X6274260Y-6986896D01*
X6168888Y-6943250D01*
X6057027Y-6921000D01*
X5942973Y-6921000D01*
X5831112Y-6943250D01*
X5725740Y-6986896D01*
X5630909Y-7050261D01*
X5550261Y-7130909D01*
X5486896Y-7225740D01*
X5443250Y-7331112D01*
X5421000Y-7442973D01*
X5421000Y-7557027D01*
X5443250Y-7668888D01*
X5486896Y-7774260D01*
X5496000Y-7787885D01*
X5496001Y-8512349D01*
X3733462Y-10274889D01*
X3713104Y-10225740D01*
X3649739Y-10130909D01*
X3569091Y-10050261D01*
X3474260Y-9986896D01*
X3368888Y-9943250D01*
X3257027Y-9921000D01*
X3142973Y-9921000D01*
X3031112Y-9943250D01*
X2925740Y-9986896D01*
X2912115Y-9996000D01*
X2908764Y-9996000D01*
X2880833Y-9968069D01*
X2880833Y-9535000D01*
X2873515Y-9460703D01*
X2851844Y-9389262D01*
X2830858Y-9350000D01*
X2851844Y-9310738D01*
X2873515Y-9239297D01*
X2880833Y-9165000D01*
X2880833Y-8401335D01*
X2949764Y-8344764D01*
X3028867Y-8248378D01*
X3087646Y-8138411D01*
X3123841Y-8019090D01*
X3136063Y-7895000D01*
X3133000Y-7605250D01*
X2974750Y-7447000D01*
X1502000Y-7447000D01*
X1502000Y-7467000D01*
X1498000Y-7467000D01*
X1498000Y-7447000D01*
X1478000Y-7447000D01*
X1478000Y-7443000D01*
X1498000Y-7443000D01*
X1498000Y-6520250D01*
X1502000Y-6520250D01*
X1502000Y-7443000D01*
X2974750Y-7443000D01*
X3133000Y-7284750D01*
X3136063Y-6995000D01*
X3123841Y-6870910D01*
X3087646Y-6751589D01*
X3028867Y-6641622D01*
X2949764Y-6545236D01*
X2853378Y-6466133D01*
X2743411Y-6407354D01*
X2624090Y-6371159D01*
X2500000Y-6358937D01*
X1660250Y-6362000D01*
X1502000Y-6520250D01*
X1498000Y-6520250D01*
X1339750Y-6362000D01*
X500000Y-6358937D01*
X404000Y-6368392D01*
X404000Y-6125000D01*
X19596001Y-6125000D01*
X19596001Y-6368392D01*
G04 #@! TA.AperFunction,Conductor*
D22*
G36*
X19596001Y-6368392D02*
G01*
X19500000Y-6358937D01*
X18660250Y-6362000D01*
X18502000Y-6520250D01*
X18502000Y-7443000D01*
X18522000Y-7443000D01*
X18522000Y-7447000D01*
X18502000Y-7447000D01*
X18502000Y-7467000D01*
X18498000Y-7467000D01*
X18498000Y-7447000D01*
X17025250Y-7447000D01*
X16867000Y-7605250D01*
X16863937Y-7895000D01*
X16876159Y-8019090D01*
X16911623Y-8136000D01*
X15513428Y-8136000D01*
X15484999Y-8133200D01*
X15456570Y-8136000D01*
X15456561Y-8136000D01*
X15371496Y-8144378D01*
X15262354Y-8177486D01*
X15161769Y-8231250D01*
X15073605Y-8303605D01*
X15055476Y-8325695D01*
X13810690Y-9570481D01*
X13788606Y-9588605D01*
X13770482Y-9610689D01*
X13770476Y-9610695D01*
X13716250Y-9676769D01*
X13685611Y-9734091D01*
X13662486Y-9777354D01*
X13629378Y-9886496D01*
X13625980Y-9921000D01*
X11242973Y-9921000D01*
X11214934Y-9926577D01*
X11186496Y-9929378D01*
X11159153Y-9937672D01*
X11131112Y-9943250D01*
X11104695Y-9954192D01*
X11077354Y-9962486D01*
X11052159Y-9975953D01*
X11025740Y-9986896D01*
X11001963Y-10002783D01*
X10976769Y-10016250D01*
X10954684Y-10034375D01*
X10930909Y-10050261D01*
X10910689Y-10070481D01*
X10888605Y-10088605D01*
X10870481Y-10110689D01*
X10850261Y-10130909D01*
X10834375Y-10154684D01*
X10816250Y-10176769D01*
X10802783Y-10201963D01*
X10786896Y-10225740D01*
X10775953Y-10252159D01*
X10762486Y-10277354D01*
X10754192Y-10304695D01*
X10743250Y-10331112D01*
X10737672Y-10359153D01*
X10729378Y-10386496D01*
X10726577Y-10414934D01*
X10721000Y-10442973D01*
X10721000Y-10471561D01*
X10718199Y-10500000D01*
X10721000Y-10528438D01*
X10721000Y-10557027D01*
X10726577Y-10585066D01*
X10729378Y-10613504D01*
X10737672Y-10640847D01*
X10743250Y-10668888D01*
X10754192Y-10695305D01*
X10762486Y-10722646D01*
X10775953Y-10747841D01*
X10786896Y-10774260D01*
X10802783Y-10798037D01*
X10816250Y-10823231D01*
X10834375Y-10845316D01*
X10850261Y-10869091D01*
X10870481Y-10889311D01*
X10888605Y-10911395D01*
X10910689Y-10929519D01*
X10930909Y-10949739D01*
X10954684Y-10965625D01*
X10976769Y-10983750D01*
X11001963Y-10997217D01*
X11025740Y-11013104D01*
X11052159Y-11024047D01*
X11077354Y-11037514D01*
X11104695Y-11045808D01*
X11131112Y-11056750D01*
X11159153Y-11062328D01*
X11186496Y-11070622D01*
X11214934Y-11073423D01*
X11242973Y-11079000D01*
X13621001Y-11079000D01*
X13621001Y-11820855D01*
X13500000Y-11808937D01*
X11160250Y-11812000D01*
X11002000Y-11970250D01*
X11002000Y-14943000D01*
X11022000Y-14943000D01*
X11022000Y-14947000D01*
X11002000Y-14947000D01*
X11002000Y-17919750D01*
X11160250Y-18078000D01*
X13500000Y-18081063D01*
X13624090Y-18068841D01*
X13743411Y-18032646D01*
X13853378Y-17973867D01*
X13949764Y-17894764D01*
X14028867Y-17798378D01*
X14087646Y-17688411D01*
X14123841Y-17569090D01*
X14136063Y-17445000D01*
X14133618Y-15577139D01*
X14142973Y-15579000D01*
X14171561Y-15579000D01*
X14200000Y-15581801D01*
X14228439Y-15579000D01*
X14257027Y-15579000D01*
X14285066Y-15573423D01*
X14313503Y-15570622D01*
X14340844Y-15562328D01*
X14368888Y-15556750D01*
X14395308Y-15545807D01*
X14422645Y-15537514D01*
X14447836Y-15524049D01*
X14474260Y-15513104D01*
X14498041Y-15497214D01*
X14523230Y-15483750D01*
X14545312Y-15465628D01*
X14569091Y-15449739D01*
X14589312Y-15429518D01*
X14611395Y-15411395D01*
X14629519Y-15389311D01*
X14649739Y-15369091D01*
X14665625Y-15345316D01*
X14683750Y-15323231D01*
X14697217Y-15298037D01*
X14713104Y-15274260D01*
X14724047Y-15247841D01*
X14737514Y-15222646D01*
X14745808Y-15195305D01*
X14756750Y-15168888D01*
X14762328Y-15140847D01*
X14770622Y-15113504D01*
X14773423Y-15085066D01*
X14779000Y-15057027D01*
X14779000Y-10528438D01*
X14781801Y-10500000D01*
X14779000Y-10471561D01*
X14779000Y-10239829D01*
X15724829Y-9294000D01*
X16248779Y-9294000D01*
X16246000Y-9307973D01*
X16246000Y-9422027D01*
X16268250Y-9533888D01*
X16311896Y-9639260D01*
X16375261Y-9734091D01*
X16455909Y-9814739D01*
X16550740Y-9878104D01*
X16656112Y-9921750D01*
X16672183Y-9924947D01*
X17071114Y-10323878D01*
X17086894Y-10343106D01*
X17119167Y-10369592D01*
X17119167Y-10435000D01*
X17126485Y-10509297D01*
X17148156Y-10580738D01*
X17169142Y-10620000D01*
X17148156Y-10659262D01*
X17126485Y-10730703D01*
X17119167Y-10805000D01*
X17119167Y-11705000D01*
X17126485Y-11779297D01*
X17148156Y-11850738D01*
X17169142Y-11890000D01*
X17148156Y-11929262D01*
X17126485Y-12000703D01*
X17119167Y-12075000D01*
X17119167Y-12975000D01*
X17126485Y-13049297D01*
X17148156Y-13120738D01*
X17169142Y-13160000D01*
X17148156Y-13199262D01*
X17126485Y-13270703D01*
X17119167Y-13345000D01*
X17119167Y-14245000D01*
X17126485Y-14319297D01*
X17148156Y-14390738D01*
X17169142Y-14430000D01*
X17148156Y-14469262D01*
X17126485Y-14540703D01*
X17119167Y-14615000D01*
X17119167Y-15515000D01*
X17126485Y-15589297D01*
X17148156Y-15660738D01*
X17169142Y-15700000D01*
X17148156Y-15739262D01*
X17126485Y-15810703D01*
X17119167Y-15885000D01*
X17119167Y-16785000D01*
X17126485Y-16859297D01*
X17148156Y-16930738D01*
X17169142Y-16970000D01*
X17148156Y-17009262D01*
X17126485Y-17080703D01*
X17119167Y-17155000D01*
X17119167Y-18055000D01*
X17126485Y-18129297D01*
X17148156Y-18200738D01*
X17169142Y-18240000D01*
X17148156Y-18279262D01*
X17126485Y-18350703D01*
X17119167Y-18425000D01*
X17119167Y-19325000D01*
X17126485Y-19399297D01*
X17148156Y-19470738D01*
X17169142Y-19510000D01*
X17148156Y-19549262D01*
X17126485Y-19620703D01*
X17119167Y-19695000D01*
X17119167Y-20595000D01*
X17126485Y-20669297D01*
X17148156Y-20740738D01*
X17169142Y-20780000D01*
X17148156Y-20819262D01*
X17126485Y-20890703D01*
X17119167Y-20965000D01*
X17119167Y-21865000D01*
X17126485Y-21939297D01*
X17148156Y-22010738D01*
X17169142Y-22050000D01*
X17148156Y-22089262D01*
X17126485Y-22160703D01*
X17119167Y-22235000D01*
X17119167Y-23135000D01*
X17126485Y-23209297D01*
X17148156Y-23280738D01*
X17169142Y-23320000D01*
X17148156Y-23359262D01*
X17126485Y-23430703D01*
X17119167Y-23505000D01*
X17119167Y-24405000D01*
X17126485Y-24479297D01*
X17148156Y-24550738D01*
X17183349Y-24616579D01*
X17230710Y-24674290D01*
X17288421Y-24721651D01*
X17354262Y-24756844D01*
X17425703Y-24778515D01*
X17500000Y-24785833D01*
X19500000Y-24785833D01*
X19574297Y-24778515D01*
X19596000Y-24771931D01*
X19596000Y-34096000D01*
X15019840Y-34096000D01*
X15000000Y-34094046D01*
X14980160Y-34096000D01*
X14920802Y-34101846D01*
X14844648Y-34124947D01*
X14774464Y-34162462D01*
X14712947Y-34212947D01*
X14662462Y-34274464D01*
X14624947Y-34344648D01*
X14601846Y-34420802D01*
X14594046Y-34500000D01*
X14596001Y-34519850D01*
X14596000Y-38596000D01*
X14174620Y-38596000D01*
X14269087Y-38419995D01*
X14335359Y-38202876D01*
X14358000Y-37977000D01*
X14358000Y-37552000D01*
X13202000Y-37552000D01*
X13202000Y-37572000D01*
X13198000Y-37572000D01*
X13198000Y-37552000D01*
X11127000Y-37552000D01*
X11127000Y-37572000D01*
X11123000Y-37572000D01*
X11123000Y-37552000D01*
X8877000Y-37552000D01*
X8877000Y-37572000D01*
X8873000Y-37572000D01*
X8873000Y-37552000D01*
X6802000Y-37552000D01*
X6802000Y-37572000D01*
X6798000Y-37572000D01*
X6798000Y-37552000D01*
X5642000Y-37552000D01*
X5642000Y-37977000D01*
X5664641Y-38202876D01*
X5730913Y-38419995D01*
X5825380Y-38596000D01*
X5404000Y-38596000D01*
X5404000Y-37123000D01*
X5642000Y-37123000D01*
X5642000Y-37548000D01*
X6798000Y-37548000D01*
X6798000Y-37528000D01*
X6802000Y-37528000D01*
X6802000Y-37548000D01*
X8873000Y-37548000D01*
X8873000Y-37528000D01*
X8877000Y-37528000D01*
X8877000Y-37548000D01*
X11123000Y-37548000D01*
X11123000Y-37528000D01*
X11127000Y-37528000D01*
X11127000Y-37548000D01*
X13198000Y-37548000D01*
X13198000Y-37528000D01*
X13202000Y-37528000D01*
X13202000Y-37548000D01*
X14358000Y-37548000D01*
X14358000Y-37123000D01*
X14335359Y-36897124D01*
X14269087Y-36680005D01*
X14161731Y-36479987D01*
X14017416Y-36304756D01*
X13841688Y-36161047D01*
X13641300Y-36054382D01*
X13530933Y-36021111D01*
X13528000Y-35480250D01*
X13369750Y-35322000D01*
X12322000Y-35322000D01*
X12322000Y-35342000D01*
X12318000Y-35342000D01*
X12318000Y-35322000D01*
X12298000Y-35322000D01*
X12298000Y-35318000D01*
X12318000Y-35318000D01*
X12318000Y-34120250D01*
X12322000Y-34120250D01*
X12322000Y-35318000D01*
X13369750Y-35318000D01*
X13528000Y-35159750D01*
X13531063Y-34595000D01*
X13518841Y-34470910D01*
X13482646Y-34351589D01*
X13423867Y-34241622D01*
X13344764Y-34145236D01*
X13248378Y-34066133D01*
X13138411Y-34007354D01*
X13019090Y-33971159D01*
X12895000Y-33958937D01*
X12480250Y-33962000D01*
X12322000Y-34120250D01*
X12318000Y-34120250D01*
X12159750Y-33962000D01*
X11804000Y-33959373D01*
X11804000Y-33724750D01*
X11806438Y-33699999D01*
X11803394Y-33669091D01*
X11796707Y-33601199D01*
X11767888Y-33506195D01*
X11721088Y-33418638D01*
X11658106Y-33341894D01*
X11638878Y-33326114D01*
X11273890Y-32961127D01*
X11258106Y-32941894D01*
X11181362Y-32878912D01*
X11093805Y-32832112D01*
X10998801Y-32803293D01*
X10924754Y-32796000D01*
X10900000Y-32793562D01*
X10875246Y-32796000D01*
X10287885Y-32796000D01*
X10274260Y-32786896D01*
X10168888Y-32743250D01*
X10057027Y-32721000D01*
X9942973Y-32721000D01*
X9831112Y-32743250D01*
X9725740Y-32786896D01*
X9630909Y-32850261D01*
X9550261Y-32930909D01*
X9486896Y-33025740D01*
X9443250Y-33131112D01*
X9421000Y-33242973D01*
X9421000Y-33357027D01*
X9443250Y-33468888D01*
X9486896Y-33574260D01*
X9550261Y-33669091D01*
X9630909Y-33749739D01*
X9725740Y-33813104D01*
X9751832Y-33823911D01*
X9725703Y-33826485D01*
X9675000Y-33841865D01*
X9624297Y-33826485D01*
X9550000Y-33819167D01*
X9406335Y-33819167D01*
X9349764Y-33750236D01*
X9253378Y-33671133D01*
X9143411Y-33612354D01*
X9024090Y-33576159D01*
X8900000Y-33563937D01*
X8860250Y-33567000D01*
X8702000Y-33725250D01*
X8702000Y-34142968D01*
X8698000Y-34139685D01*
X8698000Y-33725250D01*
X8539750Y-33567000D01*
X8500000Y-33563937D01*
X8375910Y-33576159D01*
X8256589Y-33612354D01*
X8146622Y-33671133D01*
X8050236Y-33750236D01*
X7971133Y-33846622D01*
X7912354Y-33956589D01*
X7910871Y-33961478D01*
X7840250Y-33962000D01*
X7682000Y-34120250D01*
X7682000Y-35318000D01*
X7702000Y-35318000D01*
X7702000Y-35322000D01*
X7682000Y-35322000D01*
X7682000Y-35342000D01*
X7678000Y-35342000D01*
X7678000Y-35322000D01*
X6630250Y-35322000D01*
X6472000Y-35480250D01*
X6469067Y-36021111D01*
X6358700Y-36054382D01*
X6158312Y-36161047D01*
X5982584Y-36304756D01*
X5838269Y-36479987D01*
X5730913Y-36680005D01*
X5664641Y-36897124D01*
X5642000Y-37123000D01*
X5404000Y-37123000D01*
X5404000Y-34595000D01*
X6468937Y-34595000D01*
X6472000Y-35159750D01*
X6630250Y-35318000D01*
X7678000Y-35318000D01*
X7678000Y-34120250D01*
X7519750Y-33962000D01*
X7105000Y-33958937D01*
X6980910Y-33971159D01*
X6861589Y-34007354D01*
X6751622Y-34066133D01*
X6655236Y-34145236D01*
X6576133Y-34241622D01*
X6517354Y-34351589D01*
X6481159Y-34470910D01*
X6468937Y-34595000D01*
X5404000Y-34595000D01*
X5404000Y-34519839D01*
X5405954Y-34500000D01*
X5398154Y-34420802D01*
X5375053Y-34344648D01*
X5337538Y-34274464D01*
X5287053Y-34212947D01*
X5225536Y-34162462D01*
X5155352Y-34124947D01*
X5079198Y-34101846D01*
X5019840Y-34096000D01*
X5000000Y-34094046D01*
X4980160Y-34096000D01*
X404000Y-34096000D01*
X404000Y-24771932D01*
X425703Y-24778515D01*
X500000Y-24785833D01*
X2479628Y-24785833D01*
X2535260Y-24869091D01*
X2615908Y-24949739D01*
X2710739Y-25013104D01*
X2816111Y-25056750D01*
X2927972Y-25079000D01*
X3006000Y-25079000D01*
X3005999Y-31025245D01*
X3003561Y-31049999D01*
X3005999Y-31074752D01*
X3013292Y-31148799D01*
X3042111Y-31243803D01*
X3088911Y-31331361D01*
X3151893Y-31408105D01*
X3171126Y-31423889D01*
X3719167Y-31971930D01*
X3719167Y-33440000D01*
X3726485Y-33514297D01*
X3748156Y-33585738D01*
X3783349Y-33651579D01*
X3830710Y-33709290D01*
X3888421Y-33756651D01*
X3954262Y-33791844D01*
X4025703Y-33813515D01*
X4100000Y-33820833D01*
X5900000Y-33820833D01*
X5974297Y-33813515D01*
X6045738Y-33791844D01*
X6111579Y-33756651D01*
X6169290Y-33709290D01*
X6216651Y-33651579D01*
X6251844Y-33585738D01*
X6273515Y-33514297D01*
X6280833Y-33440000D01*
X6280833Y-31640000D01*
X6273515Y-31565703D01*
X6251844Y-31494262D01*
X6216651Y-31428421D01*
X6169290Y-31370710D01*
X6111579Y-31323349D01*
X6045738Y-31288156D01*
X5974297Y-31266485D01*
X5900000Y-31259167D01*
X5886204Y-31259167D01*
X5903816Y-31247399D01*
X5975925Y-30978754D01*
X5000000Y-30002828D01*
X4985858Y-30016971D01*
X4983029Y-30014142D01*
X4997172Y-30000000D01*
X5002828Y-30000000D01*
X5978754Y-30975925D01*
X6247399Y-30903816D01*
X6399757Y-30643095D01*
X6498322Y-30357659D01*
X6539309Y-30058478D01*
X6521139Y-29757051D01*
X6444515Y-29464959D01*
X6312377Y-29193429D01*
X6247399Y-29096184D01*
X5978754Y-29024075D01*
X5002828Y-30000000D01*
X4997172Y-30000000D01*
X4983029Y-29985858D01*
X4985858Y-29983029D01*
X5000000Y-29997172D01*
X5975925Y-29021246D01*
X5903816Y-28752601D01*
X5643095Y-28600243D01*
X5611813Y-28589441D01*
X5815315Y-28453465D01*
X5993465Y-28275315D01*
X6133436Y-28065834D01*
X6229849Y-27833071D01*
X6279000Y-27585971D01*
X6279000Y-27535165D01*
X6331112Y-27556750D01*
X6347184Y-27559947D01*
X7059959Y-28272722D01*
X7025740Y-28286896D01*
X6930909Y-28350261D01*
X6850261Y-28430909D01*
X6786896Y-28525740D01*
X6743250Y-28631112D01*
X6721000Y-28742973D01*
X6721000Y-28857027D01*
X6743250Y-28968888D01*
X6786896Y-29074260D01*
X6850261Y-29169091D01*
X6930909Y-29249739D01*
X7025740Y-29313104D01*
X7131112Y-29356750D01*
X7147183Y-29359947D01*
X7376124Y-29588888D01*
X7391904Y-29608116D01*
X7468648Y-29671098D01*
X7556205Y-29717898D01*
X7651209Y-29746717D01*
X7725256Y-29754010D01*
X7725258Y-29754010D01*
X7750009Y-29756448D01*
X7774760Y-29754010D01*
X11501247Y-29754010D01*
X13719167Y-31971931D01*
X13719167Y-33440000D01*
X13726485Y-33514297D01*
X13748156Y-33585738D01*
X13783349Y-33651579D01*
X13830710Y-33709290D01*
X13888421Y-33756651D01*
X13954262Y-33791844D01*
X14025703Y-33813515D01*
X14100000Y-33820833D01*
X15900000Y-33820833D01*
X15974297Y-33813515D01*
X16045738Y-33791844D01*
X16111579Y-33756651D01*
X16169290Y-33709290D01*
X16216651Y-33651579D01*
X16251844Y-33585738D01*
X16273515Y-33514297D01*
X16280833Y-33440000D01*
X16280833Y-31640000D01*
X16273515Y-31565703D01*
X16251844Y-31494262D01*
X16216651Y-31428421D01*
X16169290Y-31370710D01*
X16111579Y-31323349D01*
X16045738Y-31288156D01*
X15974297Y-31266485D01*
X15900000Y-31259167D01*
X15886204Y-31259167D01*
X15903816Y-31247399D01*
X15975925Y-30978754D01*
X15000000Y-30002828D01*
X14985858Y-30016971D01*
X14983029Y-30014142D01*
X14997172Y-30000000D01*
X14983029Y-29985858D01*
X14985858Y-29983029D01*
X15000000Y-29997172D01*
X15014142Y-29983029D01*
X15016971Y-29985858D01*
X15002828Y-30000000D01*
X15978754Y-30975925D01*
X16247399Y-30903816D01*
X16399757Y-30643095D01*
X16498322Y-30357659D01*
X16539309Y-30058478D01*
X16521139Y-29757051D01*
X16444515Y-29464959D01*
X16437234Y-29449997D01*
X17340053Y-30352816D01*
X17343250Y-30368888D01*
X17386896Y-30474260D01*
X17396001Y-30487886D01*
X17396000Y-31712115D01*
X17386896Y-31725740D01*
X17343250Y-31831112D01*
X17321000Y-31942973D01*
X17321000Y-32057027D01*
X17343250Y-32168888D01*
X17386896Y-32274260D01*
X17450261Y-32369091D01*
X17530909Y-32449739D01*
X17625740Y-32513104D01*
X17731112Y-32556750D01*
X17842973Y-32579000D01*
X17957027Y-32579000D01*
X18068888Y-32556750D01*
X18174260Y-32513104D01*
X18269091Y-32449739D01*
X18349739Y-32369091D01*
X18413104Y-32274260D01*
X18456750Y-32168888D01*
X18479000Y-32057027D01*
X18479000Y-31942973D01*
X18456750Y-31831112D01*
X18413104Y-31725740D01*
X18404000Y-31712115D01*
X18404000Y-30487885D01*
X18413104Y-30474260D01*
X18456750Y-30368888D01*
X18479000Y-30257027D01*
X18479000Y-30142973D01*
X18456750Y-30031112D01*
X18413104Y-29925740D01*
X18349739Y-29830909D01*
X18269091Y-29750261D01*
X18174260Y-29686896D01*
X18068888Y-29643250D01*
X18052816Y-29640053D01*
X16848889Y-28436126D01*
X16833105Y-28416893D01*
X16756361Y-28353911D01*
X16668804Y-28307111D01*
X16573800Y-28278292D01*
X16499753Y-28270999D01*
X16474999Y-28268561D01*
X16450245Y-28270999D01*
X15996349Y-28270999D01*
X16133436Y-28065834D01*
X16175617Y-27964000D01*
X17251237Y-27964000D01*
X18521001Y-29233764D01*
X18521002Y-29842821D01*
X18512035Y-29872380D01*
X18503293Y-29901199D01*
X18493562Y-30000000D01*
X18496000Y-30024754D01*
X18496001Y-30712114D01*
X18486896Y-30725740D01*
X18443250Y-30831112D01*
X18421000Y-30942973D01*
X18421000Y-31057027D01*
X18443250Y-31168888D01*
X18486896Y-31274260D01*
X18550261Y-31369091D01*
X18630909Y-31449739D01*
X18725740Y-31513104D01*
X18831112Y-31556750D01*
X18942973Y-31579000D01*
X19057027Y-31579000D01*
X19168888Y-31556750D01*
X19274260Y-31513104D01*
X19369091Y-31449739D01*
X19449739Y-31369091D01*
X19513104Y-31274260D01*
X19556750Y-31168888D01*
X19579000Y-31057027D01*
X19579000Y-30942973D01*
X19556750Y-30831112D01*
X19513104Y-30725740D01*
X19504000Y-30712115D01*
X19504000Y-30132176D01*
X19521708Y-30073800D01*
X19529001Y-29999753D01*
X19531439Y-29974999D01*
X19529001Y-29950245D01*
X19529001Y-29049755D01*
X19531439Y-29025001D01*
X19528367Y-28993805D01*
X19521708Y-28926200D01*
X19492889Y-28831196D01*
X19446089Y-28743639D01*
X19383107Y-28666895D01*
X19363874Y-28651111D01*
X17833890Y-27121127D01*
X17818106Y-27101894D01*
X17741362Y-27038912D01*
X17653805Y-26992112D01*
X17558801Y-26963293D01*
X17484754Y-26956000D01*
X17460000Y-26953562D01*
X17435246Y-26956000D01*
X16175617Y-26956000D01*
X16133436Y-26854166D01*
X15993465Y-26644685D01*
X15937437Y-26588657D01*
X16165000Y-26591063D01*
X16289090Y-26578841D01*
X16408411Y-26542646D01*
X16518378Y-26483867D01*
X16614764Y-26404764D01*
X16693867Y-26308378D01*
X16752646Y-26198411D01*
X16788841Y-26079090D01*
X16801063Y-25955000D01*
X16798000Y-25115250D01*
X16639750Y-24957000D01*
X15717000Y-24957000D01*
X15717000Y-24977000D01*
X15713000Y-24977000D01*
X15713000Y-24957000D01*
X15693000Y-24957000D01*
X15693000Y-24953000D01*
X15713000Y-24953000D01*
X15713000Y-23480250D01*
X15717000Y-23480250D01*
X15717000Y-24953000D01*
X16639750Y-24953000D01*
X16798000Y-24794750D01*
X16801063Y-23955000D01*
X16788841Y-23830910D01*
X16752646Y-23711589D01*
X16693867Y-23601622D01*
X16614764Y-23505236D01*
X16518378Y-23426133D01*
X16408411Y-23367354D01*
X16289090Y-23331159D01*
X16165000Y-23318937D01*
X15875250Y-23322000D01*
X15717000Y-23480250D01*
X15713000Y-23480250D01*
X15554750Y-23322000D01*
X15265000Y-23318937D01*
X15140910Y-23331159D01*
X15021589Y-23367354D01*
X14911622Y-23426133D01*
X14815236Y-23505236D01*
X14758665Y-23574167D01*
X13995000Y-23574167D01*
X13920703Y-23581485D01*
X13849262Y-23603156D01*
X13810000Y-23624142D01*
X13770738Y-23603156D01*
X13699297Y-23581485D01*
X13625000Y-23574167D01*
X12725000Y-23574167D01*
X12650703Y-23581485D01*
X12579262Y-23603156D01*
X12540000Y-23624142D01*
X12500738Y-23603156D01*
X12429297Y-23581485D01*
X12355000Y-23574167D01*
X11455000Y-23574167D01*
X11380703Y-23581485D01*
X11309262Y-23603156D01*
X11270000Y-23624142D01*
X11230738Y-23603156D01*
X11159297Y-23581485D01*
X11085000Y-23574167D01*
X10185000Y-23574167D01*
X10110703Y-23581485D01*
X10039262Y-23603156D01*
X10000000Y-23624142D01*
X9960738Y-23603156D01*
X9889297Y-23581485D01*
X9815000Y-23574167D01*
X8915000Y-23574167D01*
X8840703Y-23581485D01*
X8769262Y-23603156D01*
X8730000Y-23624142D01*
X8690738Y-23603156D01*
X8619297Y-23581485D01*
X8545000Y-23574167D01*
X7645000Y-23574167D01*
X7570703Y-23581485D01*
X7499262Y-23603156D01*
X7460000Y-23624142D01*
X7420738Y-23603156D01*
X7349297Y-23581485D01*
X7275000Y-23574167D01*
X6743076Y-23574167D01*
X6747859Y-23570971D01*
X6828507Y-23490323D01*
X6891872Y-23395492D01*
X6935518Y-23290120D01*
X6938715Y-23274048D01*
X7508763Y-22704000D01*
X13525246Y-22704000D01*
X13550000Y-22706438D01*
X13648801Y-22696707D01*
X13743805Y-22667888D01*
X13831362Y-22621088D01*
X13908106Y-22558106D01*
X13923890Y-22538873D01*
X15377816Y-21084947D01*
X15393888Y-21081750D01*
X15499260Y-21038104D01*
X15594091Y-20974739D01*
X15674739Y-20894091D01*
X15738104Y-20799260D01*
X15781750Y-20693888D01*
X15804000Y-20582027D01*
X15804000Y-20467973D01*
X15781750Y-20356112D01*
X15738104Y-20250740D01*
X15674739Y-20155909D01*
X15594091Y-20075261D01*
X15499260Y-20011896D01*
X15393888Y-19968250D01*
X15282027Y-19946000D01*
X15167973Y-19946000D01*
X15056112Y-19968250D01*
X14950740Y-20011896D01*
X14855909Y-20075261D01*
X14775261Y-20155909D01*
X14711896Y-20250740D01*
X14668250Y-20356112D01*
X14665053Y-20372184D01*
X13341237Y-21696000D01*
X7324754Y-21696000D01*
X7300000Y-21693562D01*
X7201198Y-21703293D01*
X7172379Y-21712035D01*
X7106195Y-21732112D01*
X7018638Y-21778912D01*
X6941894Y-21841894D01*
X6926110Y-21861127D01*
X6225952Y-22561285D01*
X6209880Y-22564482D01*
X6104508Y-22608128D01*
X6009677Y-22671493D01*
X5929029Y-22752141D01*
X5865664Y-22846972D01*
X5822018Y-22952344D01*
X5799768Y-23064205D01*
X5799768Y-23178259D01*
X5822018Y-23290120D01*
X5865664Y-23395492D01*
X5929029Y-23490323D01*
X6009677Y-23570971D01*
X6016096Y-23575260D01*
X6005000Y-23574167D01*
X5105000Y-23574167D01*
X5030703Y-23581485D01*
X4959262Y-23603156D01*
X4920000Y-23624142D01*
X4880738Y-23603156D01*
X4809297Y-23581485D01*
X4735000Y-23574167D01*
X4013999Y-23574167D01*
X4013999Y-22836442D01*
X4042887Y-22782396D01*
X4071706Y-22687392D01*
X4078999Y-22613345D01*
X4081437Y-22588591D01*
X4078999Y-22563837D01*
X4078999Y-16433764D01*
X4252816Y-16259947D01*
X4268888Y-16256750D01*
X4374260Y-16213104D01*
X4469091Y-16149739D01*
X4549739Y-16069091D01*
X4613104Y-15974260D01*
X4656750Y-15868888D01*
X4679000Y-15757027D01*
X4679000Y-15642973D01*
X4656750Y-15531112D01*
X4613104Y-15425740D01*
X4549739Y-15330909D01*
X4469091Y-15250261D01*
X4433026Y-15226163D01*
X4456750Y-15168888D01*
X4479000Y-15057027D01*
X4479000Y-14942973D01*
X4456750Y-14831112D01*
X4413104Y-14725740D01*
X4349739Y-14630909D01*
X4269091Y-14550261D01*
X4199858Y-14504000D01*
X4212115Y-14504000D01*
X4225740Y-14513104D01*
X4331112Y-14556750D01*
X4442973Y-14579000D01*
X4557027Y-14579000D01*
X4668888Y-14556750D01*
X4774260Y-14513104D01*
X4869091Y-14449739D01*
X4949739Y-14369091D01*
X4990003Y-14308833D01*
X5021001Y-14339831D01*
X5021000Y-20571560D01*
X5018199Y-20600000D01*
X5021000Y-20628438D01*
X5021000Y-21035171D01*
X5005912Y-21050259D01*
X5005909Y-21050261D01*
X4925261Y-21130909D01*
X4909375Y-21154684D01*
X4891250Y-21176769D01*
X4877784Y-21201962D01*
X4861896Y-21225740D01*
X4850952Y-21252163D01*
X4837486Y-21277355D01*
X4829194Y-21304691D01*
X4818250Y-21331112D01*
X4812671Y-21359161D01*
X4804379Y-21386496D01*
X4801579Y-21414924D01*
X4796000Y-21442973D01*
X4796000Y-21471571D01*
X4793200Y-21500000D01*
X4796000Y-21528429D01*
X4796000Y-21557027D01*
X4801579Y-21585076D01*
X4804379Y-21613504D01*
X4812671Y-21640839D01*
X4818250Y-21668888D01*
X4829194Y-21695309D01*
X4837486Y-21722645D01*
X4850952Y-21747837D01*
X4861896Y-21774260D01*
X4877784Y-21798038D01*
X4891250Y-21823231D01*
X4909375Y-21845316D01*
X4925261Y-21869091D01*
X4945481Y-21889311D01*
X4963605Y-21911395D01*
X4985689Y-21929519D01*
X5005909Y-21949739D01*
X5029684Y-21965625D01*
X5051769Y-21983750D01*
X5076962Y-21997216D01*
X5100740Y-22013104D01*
X5127163Y-22024048D01*
X5152355Y-22037514D01*
X5179691Y-22045806D01*
X5206112Y-22056750D01*
X5234161Y-22062329D01*
X5261496Y-22070621D01*
X5289924Y-22073421D01*
X5317973Y-22079000D01*
X5346571Y-22079000D01*
X5375000Y-22081800D01*
X5403429Y-22079000D01*
X5432027Y-22079000D01*
X5460076Y-22073421D01*
X5488504Y-22070621D01*
X5515839Y-22062329D01*
X5543888Y-22056750D01*
X5570309Y-22045806D01*
X5597645Y-22037514D01*
X5622837Y-22024048D01*
X5649260Y-22013104D01*
X5673038Y-21997216D01*
X5698231Y-21983750D01*
X5720316Y-21965625D01*
X5744091Y-21949739D01*
X5824739Y-21869091D01*
X5824741Y-21869088D01*
X5989305Y-21704524D01*
X6011395Y-21686395D01*
X6083750Y-21598231D01*
X6137514Y-21497646D01*
X6170622Y-21388504D01*
X6179000Y-21303439D01*
X6179000Y-21303430D01*
X6181800Y-21275001D01*
X6179000Y-21246571D01*
X6179000Y-21179000D01*
X8071571Y-21179000D01*
X8100000Y-21181800D01*
X8128429Y-21179000D01*
X8128439Y-21179000D01*
X8213504Y-21170622D01*
X8322646Y-21137514D01*
X8423231Y-21083750D01*
X8511395Y-21011395D01*
X8529523Y-20989306D01*
X8939524Y-20579306D01*
X8959739Y-20559091D01*
X8975624Y-20535318D01*
X8993750Y-20513231D01*
X9007216Y-20488038D01*
X9023104Y-20464260D01*
X9034048Y-20437837D01*
X9047514Y-20412645D01*
X9055807Y-20385307D01*
X9066750Y-20358888D01*
X9072328Y-20330846D01*
X9080622Y-20303504D01*
X9083422Y-20275068D01*
X9089000Y-20247027D01*
X9089000Y-20218432D01*
X9091800Y-20190000D01*
X9089000Y-20161568D01*
X9089000Y-20132973D01*
X9083422Y-20104932D01*
X9080622Y-20076496D01*
X9072328Y-20049154D01*
X9066750Y-20021112D01*
X9055807Y-19994693D01*
X9047514Y-19967355D01*
X9034048Y-19942163D01*
X9023104Y-19915740D01*
X9007216Y-19891962D01*
X8993750Y-19866769D01*
X8975625Y-19844684D01*
X8959739Y-19820909D01*
X8939519Y-19800689D01*
X8921395Y-19778605D01*
X8899311Y-19760481D01*
X8879091Y-19740261D01*
X8855316Y-19724375D01*
X8833231Y-19706250D01*
X8808038Y-19692784D01*
X8784260Y-19676896D01*
X8757837Y-19665952D01*
X8732645Y-19652486D01*
X8705307Y-19644193D01*
X8678888Y-19633250D01*
X8650846Y-19627672D01*
X8623504Y-19619378D01*
X8595068Y-19616578D01*
X8567027Y-19611000D01*
X8538432Y-19611000D01*
X8510000Y-19608200D01*
X8481568Y-19611000D01*
X8452973Y-19611000D01*
X8424932Y-19616578D01*
X8396496Y-19619378D01*
X8369154Y-19627672D01*
X8341112Y-19633250D01*
X8314693Y-19644193D01*
X8287355Y-19652486D01*
X8262163Y-19665952D01*
X8235740Y-19676896D01*
X8211962Y-19692784D01*
X8186769Y-19706250D01*
X8164682Y-19724376D01*
X8140909Y-19740261D01*
X8120694Y-19760476D01*
X7860171Y-20021000D01*
X6179000Y-20021000D01*
X6179000Y-17445000D01*
X7863937Y-17445000D01*
X7876159Y-17569090D01*
X7912354Y-17688411D01*
X7971133Y-17798378D01*
X8050236Y-17894764D01*
X8146622Y-17973867D01*
X8256589Y-18032646D01*
X8375910Y-18068841D01*
X8500000Y-18081063D01*
X10839750Y-18078000D01*
X10998000Y-17919750D01*
X10998000Y-14947000D01*
X8025250Y-14947000D01*
X7867000Y-15105250D01*
X7863937Y-17445000D01*
X6179000Y-17445000D01*
X6179000Y-14128432D01*
X6181800Y-14100000D01*
X6179000Y-14071568D01*
X6179000Y-14071561D01*
X6170622Y-13986496D01*
X6137514Y-13877354D01*
X6083750Y-13776769D01*
X6053003Y-13739304D01*
X6029524Y-13710694D01*
X6029519Y-13710689D01*
X6011395Y-13688605D01*
X5989310Y-13670481D01*
X5279522Y-12960693D01*
X5261394Y-12938604D01*
X5173230Y-12866249D01*
X5072645Y-12812485D01*
X4963503Y-12779377D01*
X4878438Y-12770999D01*
X4878428Y-12770999D01*
X4849999Y-12768199D01*
X4821570Y-12770999D01*
X4456043Y-12770999D01*
X4239806Y-12554763D01*
X4239804Y-12554760D01*
X4159156Y-12474112D01*
X4135381Y-12458226D01*
X4119266Y-12445000D01*
X7863937Y-12445000D01*
X7867000Y-14784750D01*
X8025250Y-14943000D01*
X10998000Y-14943000D01*
X10998000Y-11970250D01*
X10839750Y-11812000D01*
X8500000Y-11808937D01*
X8375910Y-11821159D01*
X8256589Y-11857354D01*
X8146622Y-11916133D01*
X8050236Y-11995236D01*
X7971133Y-12091622D01*
X7912354Y-12201589D01*
X7876159Y-12320910D01*
X7863937Y-12445000D01*
X4119266Y-12445000D01*
X4113296Y-12440101D01*
X4088103Y-12426635D01*
X4064325Y-12410747D01*
X4037902Y-12399803D01*
X4012710Y-12386337D01*
X3985374Y-12378045D01*
X3958953Y-12367101D01*
X3930904Y-12361522D01*
X3903569Y-12353230D01*
X3875141Y-12350430D01*
X3847092Y-12344851D01*
X3818494Y-12344851D01*
X3790065Y-12342051D01*
X3761636Y-12344851D01*
X3733038Y-12344851D01*
X3723548Y-12346739D01*
X7366287Y-8704000D01*
X8412115Y-8704000D01*
X8425740Y-8713104D01*
X8531112Y-8756750D01*
X8642973Y-8779000D01*
X8757027Y-8779000D01*
X8868888Y-8756750D01*
X8974260Y-8713104D01*
X9069091Y-8649739D01*
X9149739Y-8569091D01*
X9213104Y-8474260D01*
X9256750Y-8368888D01*
X9279000Y-8257027D01*
X9279000Y-8142973D01*
X9256750Y-8031112D01*
X9213104Y-7925740D01*
X9149739Y-7830909D01*
X9069091Y-7750261D01*
X8974260Y-7686896D01*
X8868888Y-7643250D01*
X8757027Y-7621000D01*
X8642973Y-7621000D01*
X8531112Y-7643250D01*
X8425740Y-7686896D01*
X8412115Y-7696000D01*
X7182278Y-7696000D01*
X7157524Y-7693562D01*
X7132770Y-7696000D01*
X7058723Y-7703293D01*
X6963719Y-7732112D01*
X6876162Y-7778912D01*
X6799418Y-7841894D01*
X6783634Y-7861127D01*
X6504000Y-8140761D01*
X6504000Y-7787885D01*
X6513104Y-7774260D01*
X6556750Y-7668888D01*
X6579000Y-7557027D01*
X6579000Y-7442973D01*
X6556750Y-7331112D01*
X6513104Y-7225740D01*
X6449739Y-7130909D01*
X6369091Y-7050261D01*
X6286389Y-6995000D01*
X16863937Y-6995000D01*
X16867000Y-7284750D01*
X17025250Y-7443000D01*
X18498000Y-7443000D01*
X18498000Y-6520250D01*
X18339750Y-6362000D01*
X17500000Y-6358937D01*
X17375910Y-6371159D01*
X17256589Y-6407354D01*
X17146622Y-6466133D01*
X17050236Y-6545236D01*
X16971133Y-6641622D01*
X16912354Y-6751589D01*
X16876159Y-6870910D01*
X16863937Y-6995000D01*
X6286389Y-6995000D01*
X6274260Y-6986896D01*
X6168888Y-6943250D01*
X6057027Y-6921000D01*
X5942973Y-6921000D01*
X5831112Y-6943250D01*
X5725740Y-6986896D01*
X5630909Y-7050261D01*
X5550261Y-7130909D01*
X5486896Y-7225740D01*
X5443250Y-7331112D01*
X5421000Y-7442973D01*
X5421000Y-7557027D01*
X5443250Y-7668888D01*
X5486896Y-7774260D01*
X5496000Y-7787885D01*
X5496001Y-8512349D01*
X3733462Y-10274889D01*
X3713104Y-10225740D01*
X3649739Y-10130909D01*
X3569091Y-10050261D01*
X3474260Y-9986896D01*
X3368888Y-9943250D01*
X3257027Y-9921000D01*
X3142973Y-9921000D01*
X3031112Y-9943250D01*
X2925740Y-9986896D01*
X2912115Y-9996000D01*
X2908764Y-9996000D01*
X2880833Y-9968069D01*
X2880833Y-9535000D01*
X2873515Y-9460703D01*
X2851844Y-9389262D01*
X2830858Y-9350000D01*
X2851844Y-9310738D01*
X2873515Y-9239297D01*
X2880833Y-9165000D01*
X2880833Y-8401335D01*
X2949764Y-8344764D01*
X3028867Y-8248378D01*
X3087646Y-8138411D01*
X3123841Y-8019090D01*
X3136063Y-7895000D01*
X3133000Y-7605250D01*
X2974750Y-7447000D01*
X1502000Y-7447000D01*
X1502000Y-7467000D01*
X1498000Y-7467000D01*
X1498000Y-7447000D01*
X1478000Y-7447000D01*
X1478000Y-7443000D01*
X1498000Y-7443000D01*
X1498000Y-6520250D01*
X1502000Y-6520250D01*
X1502000Y-7443000D01*
X2974750Y-7443000D01*
X3133000Y-7284750D01*
X3136063Y-6995000D01*
X3123841Y-6870910D01*
X3087646Y-6751589D01*
X3028867Y-6641622D01*
X2949764Y-6545236D01*
X2853378Y-6466133D01*
X2743411Y-6407354D01*
X2624090Y-6371159D01*
X2500000Y-6358937D01*
X1660250Y-6362000D01*
X1502000Y-6520250D01*
X1498000Y-6520250D01*
X1339750Y-6362000D01*
X500000Y-6358937D01*
X404000Y-6368392D01*
X404000Y-6125000D01*
X19596001Y-6125000D01*
X19596001Y-6368392D01*
G37*
G04 #@! TD.AperFunction*
D20*
X13600243Y-29356905D02*
X13501678Y-29642341D01*
X13460691Y-29941522D01*
X13478861Y-30242949D01*
X13501318Y-30328554D01*
X12451762Y-29278999D01*
X13645769Y-29278999D01*
X13600243Y-29356905D01*
G04 #@! TA.AperFunction,Conductor*
D22*
G36*
X13600243Y-29356905D02*
G01*
X13501678Y-29642341D01*
X13460691Y-29941522D01*
X13478861Y-30242949D01*
X13501318Y-30328554D01*
X12451762Y-29278999D01*
X13645769Y-29278999D01*
X13600243Y-29356905D01*
G37*
G04 #@! TD.AperFunction*
D20*
X13849262Y-26306844D02*
X13920703Y-26328515D01*
X13995000Y-26335833D01*
X14380294Y-26335833D01*
X14184685Y-26466535D01*
X14006535Y-26644685D01*
X13866564Y-26854166D01*
X13770151Y-27086929D01*
X13721000Y-27334029D01*
X13721000Y-27585971D01*
X13770151Y-27833071D01*
X13866564Y-28065834D01*
X14003651Y-28270999D01*
X11749754Y-28270999D01*
X11725000Y-28268561D01*
X11700247Y-28270999D01*
X11626200Y-28278292D01*
X11567818Y-28296002D01*
X8508764Y-28296000D01*
X7059947Y-26847184D01*
X7056750Y-26831112D01*
X7013104Y-26725740D01*
X6949739Y-26630909D01*
X6869091Y-26550261D01*
X6774260Y-26486896D01*
X6668888Y-26443250D01*
X6557027Y-26421000D01*
X6442973Y-26421000D01*
X6331112Y-26443250D01*
X6225740Y-26486896D01*
X6130909Y-26550261D01*
X6050261Y-26630909D01*
X6017260Y-26680297D01*
X5993465Y-26644685D01*
X5815315Y-26466535D01*
X5619706Y-26335833D01*
X6005000Y-26335833D01*
X6079297Y-26328515D01*
X6150738Y-26306844D01*
X6190000Y-26285858D01*
X6229262Y-26306844D01*
X6300703Y-26328515D01*
X6375000Y-26335833D01*
X7275000Y-26335833D01*
X7349297Y-26328515D01*
X7420738Y-26306844D01*
X7460000Y-26285858D01*
X7499262Y-26306844D01*
X7570703Y-26328515D01*
X7645000Y-26335833D01*
X8545000Y-26335833D01*
X8619297Y-26328515D01*
X8690738Y-26306844D01*
X8730000Y-26285858D01*
X8769262Y-26306844D01*
X8840703Y-26328515D01*
X8915000Y-26335833D01*
X9815000Y-26335833D01*
X9889297Y-26328515D01*
X9960738Y-26306844D01*
X10000000Y-26285858D01*
X10039262Y-26306844D01*
X10110703Y-26328515D01*
X10185000Y-26335833D01*
X11085000Y-26335833D01*
X11159297Y-26328515D01*
X11230738Y-26306844D01*
X11270000Y-26285858D01*
X11309262Y-26306844D01*
X11380703Y-26328515D01*
X11455000Y-26335833D01*
X12355000Y-26335833D01*
X12429297Y-26328515D01*
X12500738Y-26306844D01*
X12540000Y-26285858D01*
X12579262Y-26306844D01*
X12650703Y-26328515D01*
X12725000Y-26335833D01*
X13625000Y-26335833D01*
X13699297Y-26328515D01*
X13770738Y-26306844D01*
X13810000Y-26285858D01*
X13849262Y-26306844D01*
G04 #@! TA.AperFunction,Conductor*
D22*
G36*
X13849262Y-26306844D02*
G01*
X13920703Y-26328515D01*
X13995000Y-26335833D01*
X14380294Y-26335833D01*
X14184685Y-26466535D01*
X14006535Y-26644685D01*
X13866564Y-26854166D01*
X13770151Y-27086929D01*
X13721000Y-27334029D01*
X13721000Y-27585971D01*
X13770151Y-27833071D01*
X13866564Y-28065834D01*
X14003651Y-28270999D01*
X11749754Y-28270999D01*
X11725000Y-28268561D01*
X11700247Y-28270999D01*
X11626200Y-28278292D01*
X11567818Y-28296002D01*
X8508764Y-28296000D01*
X7059947Y-26847184D01*
X7056750Y-26831112D01*
X7013104Y-26725740D01*
X6949739Y-26630909D01*
X6869091Y-26550261D01*
X6774260Y-26486896D01*
X6668888Y-26443250D01*
X6557027Y-26421000D01*
X6442973Y-26421000D01*
X6331112Y-26443250D01*
X6225740Y-26486896D01*
X6130909Y-26550261D01*
X6050261Y-26630909D01*
X6017260Y-26680297D01*
X5993465Y-26644685D01*
X5815315Y-26466535D01*
X5619706Y-26335833D01*
X6005000Y-26335833D01*
X6079297Y-26328515D01*
X6150738Y-26306844D01*
X6190000Y-26285858D01*
X6229262Y-26306844D01*
X6300703Y-26328515D01*
X6375000Y-26335833D01*
X7275000Y-26335833D01*
X7349297Y-26328515D01*
X7420738Y-26306844D01*
X7460000Y-26285858D01*
X7499262Y-26306844D01*
X7570703Y-26328515D01*
X7645000Y-26335833D01*
X8545000Y-26335833D01*
X8619297Y-26328515D01*
X8690738Y-26306844D01*
X8730000Y-26285858D01*
X8769262Y-26306844D01*
X8840703Y-26328515D01*
X8915000Y-26335833D01*
X9815000Y-26335833D01*
X9889297Y-26328515D01*
X9960738Y-26306844D01*
X10000000Y-26285858D01*
X10039262Y-26306844D01*
X10110703Y-26328515D01*
X10185000Y-26335833D01*
X11085000Y-26335833D01*
X11159297Y-26328515D01*
X11230738Y-26306844D01*
X11270000Y-26285858D01*
X11309262Y-26306844D01*
X11380703Y-26328515D01*
X11455000Y-26335833D01*
X12355000Y-26335833D01*
X12429297Y-26328515D01*
X12500738Y-26306844D01*
X12540000Y-26285858D01*
X12579262Y-26306844D01*
X12650703Y-26328515D01*
X12725000Y-26335833D01*
X13625000Y-26335833D01*
X13699297Y-26328515D01*
X13770738Y-26306844D01*
X13810000Y-26285858D01*
X13849262Y-26306844D01*
G37*
G04 #@! TD.AperFunction*
M02*
