G04 #@! TF.GenerationSoftware,KiCad,Pcbnew,(5.1.10)-1*
G04 #@! TF.CreationDate,2021-11-02T11:53:18+09:00*
G04 #@! TF.ProjectId,fishsensor,66697368-7365-46e7-936f-722e6b696361,rev?*
G04 #@! TF.SameCoordinates,Original*
G04 #@! TF.FileFunction,Legend,Bot*
G04 #@! TF.FilePolarity,Positive*
%FSLAX46Y46*%
G04 Gerber Fmt 4.6, Leading zero omitted, Abs format (unit mm)*
G04 Created by KiCad (PCBNEW (5.1.10)-1) date 2021-11-02 11:53:18*
%MOMM*%
%LPD*%
G01*
G04 APERTURE LIST*
%ADD10C,0.120000*%
%ADD11C,0.100000*%
G04 APERTURE END LIST*
D10*
X13810000Y-34640000D02*
X13150000Y-34640000D01*
X13810000Y-36370000D02*
X13810000Y-34640000D01*
X6190000Y-38940000D02*
X6190000Y-38730000D01*
X13810000Y-38940000D02*
X13810000Y-38730000D01*
X6190000Y-36370000D02*
X6190000Y-34640000D01*
X6190000Y-34640000D02*
X6840000Y-34640000D01*
X11760000Y-33940000D02*
X11310000Y-33940000D01*
X11760000Y-33940000D02*
X11760000Y-34330000D01*
X19120000Y-6255000D02*
X19500000Y-6255000D01*
X19120000Y165000D02*
X19120000Y-6255000D01*
X880000Y165000D02*
X880000Y-6255000D01*
X19120000Y165000D02*
X880000Y165000D01*
X880000Y-25580000D02*
X1880000Y-25580000D01*
X880000Y-24800000D02*
X880000Y-25580000D01*
X19120000Y-25580000D02*
X18120000Y-25580000D01*
X19120000Y-24800000D02*
X19120000Y-25580000D01*
X13920000Y-32560000D02*
X13455000Y-32560000D01*
X16545000Y-32560000D02*
X16080000Y-32560000D01*
X13919571Y-27745521D02*
G75*
G03*
X13920000Y-32254684I1080429J-2254479D01*
G01*
X16080429Y-27745521D02*
G75*
G02*
X16080000Y-32254684I-1080429J-2254479D01*
G01*
X13919173Y-27212185D02*
G75*
G03*
X13455170Y-32560000I1080827J-2787815D01*
G01*
X16080827Y-27212185D02*
G75*
G02*
X16544830Y-32560000I-1080827J-2787815D01*
G01*
X3920000Y-32560000D02*
X3455000Y-32560000D01*
X6545000Y-32560000D02*
X6080000Y-32560000D01*
X3919571Y-27745521D02*
G75*
G03*
X3920000Y-32254684I1080429J-2254479D01*
G01*
X6080429Y-27745521D02*
G75*
G02*
X6080000Y-32254684I-1080429J-2254479D01*
G01*
X3919173Y-27212185D02*
G75*
G03*
X3455170Y-32560000I1080827J-2787815D01*
G01*
X6080827Y-27212185D02*
G75*
G02*
X6544830Y-32560000I-1080827J-2787815D01*
G01*
D11*
X10233333Y-32666666D02*
X10233333Y-33166666D01*
X10266666Y-33266666D01*
X10333333Y-33333333D01*
X10433333Y-33366666D01*
X10500000Y-33366666D01*
X9966666Y-32666666D02*
X9533333Y-32666666D01*
X9766666Y-32933333D01*
X9666666Y-32933333D01*
X9600000Y-32966666D01*
X9566666Y-33000000D01*
X9533333Y-33066666D01*
X9533333Y-33233333D01*
X9566666Y-33300000D01*
X9600000Y-33333333D01*
X9666666Y-33366666D01*
X9866666Y-33366666D01*
X9933333Y-33333333D01*
X9966666Y-33300000D01*
M02*
