G04 #@! TF.GenerationSoftware,KiCad,Pcbnew,(5.1.10)-1*
G04 #@! TF.CreationDate,2021-11-02T11:53:18+09:00*
G04 #@! TF.ProjectId,fishsensor,66697368-7365-46e7-936f-722e6b696361,rev?*
G04 #@! TF.SameCoordinates,Original*
G04 #@! TF.FileFunction,Copper,L1,Top*
G04 #@! TF.FilePolarity,Positive*
%FSLAX46Y46*%
G04 Gerber Fmt 4.6, Leading zero omitted, Abs format (unit mm)*
G04 Created by KiCad (PCBNEW (5.1.10)-1) date 2021-11-02 11:53:18*
%MOMM*%
%LPD*%
G01*
G04 APERTURE LIST*
G04 #@! TA.AperFunction,SMDPad,CuDef*
%ADD10R,1.500000X1.500000*%
G04 #@! TD*
G04 #@! TA.AperFunction,SMDPad,CuDef*
%ADD11R,0.800000X0.900000*%
G04 #@! TD*
G04 #@! TA.AperFunction,SMDPad,CuDef*
%ADD12R,0.900000X0.800000*%
G04 #@! TD*
G04 #@! TA.AperFunction,SMDPad,CuDef*
%ADD13R,0.650000X1.060000*%
G04 #@! TD*
G04 #@! TA.AperFunction,ComponentPad*
%ADD14O,1.050000X1.900000*%
G04 #@! TD*
G04 #@! TA.AperFunction,SMDPad,CuDef*
%ADD15O,1.700000X1.700000*%
G04 #@! TD*
G04 #@! TA.AperFunction,SMDPad,CuDef*
%ADD16R,1.700000X1.700000*%
G04 #@! TD*
G04 #@! TA.AperFunction,SMDPad,CuDef*
%ADD17R,0.650000X1.220000*%
G04 #@! TD*
G04 #@! TA.AperFunction,ComponentPad*
%ADD18C,1.800000*%
G04 #@! TD*
G04 #@! TA.AperFunction,ComponentPad*
%ADD19R,1.800000X1.800000*%
G04 #@! TD*
G04 #@! TA.AperFunction,ViaPad*
%ADD20C,0.400000*%
G04 #@! TD*
G04 #@! TA.AperFunction,Conductor*
%ADD21C,0.250000*%
G04 #@! TD*
G04 #@! TA.AperFunction,Conductor*
%ADD22C,0.400000*%
G04 #@! TD*
G04 #@! TA.AperFunction,Conductor*
%ADD23C,0.100000*%
G04 #@! TD*
G04 APERTURE END LIST*
D10*
X2000000Y-30500000D03*
X2000000Y-32500000D03*
G04 #@! TA.AperFunction,SMDPad,CuDef*
G36*
G01*
X3575000Y-17725000D02*
X3575000Y-18275000D01*
G75*
G02*
X3375000Y-18475000I-200000J0D01*
G01*
X2975000Y-18475000D01*
G75*
G02*
X2775000Y-18275000I0J200000D01*
G01*
X2775000Y-17725000D01*
G75*
G02*
X2975000Y-17525000I200000J0D01*
G01*
X3375000Y-17525000D01*
G75*
G02*
X3575000Y-17725000I0J-200000D01*
G01*
G37*
G04 #@! TD.AperFunction*
G04 #@! TA.AperFunction,SMDPad,CuDef*
G36*
G01*
X5225000Y-17725000D02*
X5225000Y-18275000D01*
G75*
G02*
X5025000Y-18475000I-200000J0D01*
G01*
X4625000Y-18475000D01*
G75*
G02*
X4425000Y-18275000I0J200000D01*
G01*
X4425000Y-17725000D01*
G75*
G02*
X4625000Y-17525000I200000J0D01*
G01*
X5025000Y-17525000D01*
G75*
G02*
X5225000Y-17725000I0J-200000D01*
G01*
G37*
G04 #@! TD.AperFunction*
G04 #@! TA.AperFunction,SMDPad,CuDef*
G36*
G01*
X12725000Y-32425000D02*
X13275000Y-32425000D01*
G75*
G02*
X13475000Y-32625000I0J-200000D01*
G01*
X13475000Y-33025000D01*
G75*
G02*
X13275000Y-33225000I-200000J0D01*
G01*
X12725000Y-33225000D01*
G75*
G02*
X12525000Y-33025000I0J200000D01*
G01*
X12525000Y-32625000D01*
G75*
G02*
X12725000Y-32425000I200000J0D01*
G01*
G37*
G04 #@! TD.AperFunction*
G04 #@! TA.AperFunction,SMDPad,CuDef*
G36*
G01*
X12725000Y-30775000D02*
X13275000Y-30775000D01*
G75*
G02*
X13475000Y-30975000I0J-200000D01*
G01*
X13475000Y-31375000D01*
G75*
G02*
X13275000Y-31575000I-200000J0D01*
G01*
X12725000Y-31575000D01*
G75*
G02*
X12525000Y-31375000I0J200000D01*
G01*
X12525000Y-30975000D01*
G75*
G02*
X12725000Y-30775000I200000J0D01*
G01*
G37*
G04 #@! TD.AperFunction*
D11*
X4000000Y-21500000D03*
X3050000Y-19500000D03*
X4950000Y-19500000D03*
D12*
X19000000Y-28500000D03*
X17000000Y-29450000D03*
X17000000Y-27550000D03*
G04 #@! TA.AperFunction,SMDPad,CuDef*
G36*
G01*
X9675000Y-35250000D02*
X9675000Y-35750000D01*
G75*
G02*
X9450000Y-35975000I-225000J0D01*
G01*
X9000000Y-35975000D01*
G75*
G02*
X8775000Y-35750000I0J225000D01*
G01*
X8775000Y-35250000D01*
G75*
G02*
X9000000Y-35025000I225000J0D01*
G01*
X9450000Y-35025000D01*
G75*
G02*
X9675000Y-35250000I0J-225000D01*
G01*
G37*
G04 #@! TD.AperFunction*
G04 #@! TA.AperFunction,SMDPad,CuDef*
G36*
G01*
X11225000Y-35250000D02*
X11225000Y-35750000D01*
G75*
G02*
X11000000Y-35975000I-225000J0D01*
G01*
X10550000Y-35975000D01*
G75*
G02*
X10325000Y-35750000I0J225000D01*
G01*
X10325000Y-35250000D01*
G75*
G02*
X10550000Y-35025000I225000J0D01*
G01*
X11000000Y-35025000D01*
G75*
G02*
X11225000Y-35250000I0J-225000D01*
G01*
G37*
G04 #@! TD.AperFunction*
D13*
X10950000Y-33100000D03*
X9050000Y-33100000D03*
X9050000Y-30900000D03*
X10000000Y-30900000D03*
X10950000Y-30900000D03*
G04 #@! TA.AperFunction,SMDPad,CuDef*
G36*
G01*
X16800000Y-25900000D02*
X15200000Y-25900000D01*
G75*
G02*
X15000000Y-25700000I0J200000D01*
G01*
X15000000Y-25300000D01*
G75*
G02*
X15200000Y-25100000I200000J0D01*
G01*
X16800000Y-25100000D01*
G75*
G02*
X17000000Y-25300000I0J-200000D01*
G01*
X17000000Y-25700000D01*
G75*
G02*
X16800000Y-25900000I-200000J0D01*
G01*
G37*
G04 #@! TD.AperFunction*
G04 #@! TA.AperFunction,SMDPad,CuDef*
G36*
G01*
X16800000Y-21700000D02*
X15200000Y-21700000D01*
G75*
G02*
X15000000Y-21500000I0J200000D01*
G01*
X15000000Y-21100000D01*
G75*
G02*
X15200000Y-20900000I200000J0D01*
G01*
X16800000Y-20900000D01*
G75*
G02*
X17000000Y-21100000I0J-200000D01*
G01*
X17000000Y-21500000D01*
G75*
G02*
X16800000Y-21700000I-200000J0D01*
G01*
G37*
G04 #@! TD.AperFunction*
G04 #@! TA.AperFunction,SMDPad,CuDef*
G36*
G01*
X16425000Y-10275000D02*
X16425000Y-9725000D01*
G75*
G02*
X16625000Y-9525000I200000J0D01*
G01*
X17025000Y-9525000D01*
G75*
G02*
X17225000Y-9725000I0J-200000D01*
G01*
X17225000Y-10275000D01*
G75*
G02*
X17025000Y-10475000I-200000J0D01*
G01*
X16625000Y-10475000D01*
G75*
G02*
X16425000Y-10275000I0J200000D01*
G01*
G37*
G04 #@! TD.AperFunction*
G04 #@! TA.AperFunction,SMDPad,CuDef*
G36*
G01*
X14775000Y-10275000D02*
X14775000Y-9725000D01*
G75*
G02*
X14975000Y-9525000I200000J0D01*
G01*
X15375000Y-9525000D01*
G75*
G02*
X15575000Y-9725000I0J-200000D01*
G01*
X15575000Y-10275000D01*
G75*
G02*
X15375000Y-10475000I-200000J0D01*
G01*
X14975000Y-10475000D01*
G75*
G02*
X14775000Y-10275000I0J200000D01*
G01*
G37*
G04 #@! TD.AperFunction*
G04 #@! TA.AperFunction,SMDPad,CuDef*
G36*
G01*
X13425000Y-35775000D02*
X13425000Y-35225000D01*
G75*
G02*
X13625000Y-35025000I200000J0D01*
G01*
X14025000Y-35025000D01*
G75*
G02*
X14225000Y-35225000I0J-200000D01*
G01*
X14225000Y-35775000D01*
G75*
G02*
X14025000Y-35975000I-200000J0D01*
G01*
X13625000Y-35975000D01*
G75*
G02*
X13425000Y-35775000I0J200000D01*
G01*
G37*
G04 #@! TD.AperFunction*
G04 #@! TA.AperFunction,SMDPad,CuDef*
G36*
G01*
X11775000Y-35775000D02*
X11775000Y-35225000D01*
G75*
G02*
X11975000Y-35025000I200000J0D01*
G01*
X12375000Y-35025000D01*
G75*
G02*
X12575000Y-35225000I0J-200000D01*
G01*
X12575000Y-35775000D01*
G75*
G02*
X12375000Y-35975000I-200000J0D01*
G01*
X11975000Y-35975000D01*
G75*
G02*
X11775000Y-35775000I0J200000D01*
G01*
G37*
G04 #@! TD.AperFunction*
D14*
X6800000Y-37550000D03*
X13200000Y-37550000D03*
G04 #@! TA.AperFunction,SMDPad,CuDef*
G36*
G01*
X15675000Y-8250000D02*
X15675000Y-8750000D01*
G75*
G02*
X15450000Y-8975000I-225000J0D01*
G01*
X15000000Y-8975000D01*
G75*
G02*
X14775000Y-8750000I0J225000D01*
G01*
X14775000Y-8250000D01*
G75*
G02*
X15000000Y-8025000I225000J0D01*
G01*
X15450000Y-8025000D01*
G75*
G02*
X15675000Y-8250000I0J-225000D01*
G01*
G37*
G04 #@! TD.AperFunction*
G04 #@! TA.AperFunction,SMDPad,CuDef*
G36*
G01*
X17225000Y-8250000D02*
X17225000Y-8750000D01*
G75*
G02*
X17000000Y-8975000I-225000J0D01*
G01*
X16550000Y-8975000D01*
G75*
G02*
X16325000Y-8750000I0J225000D01*
G01*
X16325000Y-8250000D01*
G75*
G02*
X16550000Y-8025000I225000J0D01*
G01*
X17000000Y-8025000D01*
G75*
G02*
X17225000Y-8250000I0J-225000D01*
G01*
G37*
G04 #@! TD.AperFunction*
G04 #@! TA.AperFunction,SMDPad,CuDef*
G36*
G01*
X10325000Y-29250000D02*
X10325000Y-28750000D01*
G75*
G02*
X10550000Y-28525000I225000J0D01*
G01*
X11000000Y-28525000D01*
G75*
G02*
X11225000Y-28750000I0J-225000D01*
G01*
X11225000Y-29250000D01*
G75*
G02*
X11000000Y-29475000I-225000J0D01*
G01*
X10550000Y-29475000D01*
G75*
G02*
X10325000Y-29250000I0J225000D01*
G01*
G37*
G04 #@! TD.AperFunction*
G04 #@! TA.AperFunction,SMDPad,CuDef*
G36*
G01*
X8775000Y-29250000D02*
X8775000Y-28750000D01*
G75*
G02*
X9000000Y-28525000I225000J0D01*
G01*
X9450000Y-28525000D01*
G75*
G02*
X9675000Y-28750000I0J-225000D01*
G01*
X9675000Y-29250000D01*
G75*
G02*
X9450000Y-29475000I-225000J0D01*
G01*
X9000000Y-29475000D01*
G75*
G02*
X8775000Y-29250000I0J225000D01*
G01*
G37*
G04 #@! TD.AperFunction*
D15*
X7460000Y-7500000D03*
X10000000Y-7500000D03*
D16*
X12540000Y-7500000D03*
G04 #@! TA.AperFunction,SMDPad,CuDef*
G36*
G01*
X8475000Y-14675000D02*
X8475000Y-14825000D01*
G75*
G02*
X8400000Y-14900000I-75000J0D01*
G01*
X7700000Y-14900000D01*
G75*
G02*
X7625000Y-14825000I0J75000D01*
G01*
X7625000Y-14675000D01*
G75*
G02*
X7700000Y-14600000I75000J0D01*
G01*
X8400000Y-14600000D01*
G75*
G02*
X8475000Y-14675000I0J-75000D01*
G01*
G37*
G04 #@! TD.AperFunction*
G04 #@! TA.AperFunction,SMDPad,CuDef*
G36*
G01*
X8475000Y-14175000D02*
X8475000Y-14325000D01*
G75*
G02*
X8400000Y-14400000I-75000J0D01*
G01*
X7700000Y-14400000D01*
G75*
G02*
X7625000Y-14325000I0J75000D01*
G01*
X7625000Y-14175000D01*
G75*
G02*
X7700000Y-14100000I75000J0D01*
G01*
X8400000Y-14100000D01*
G75*
G02*
X8475000Y-14175000I0J-75000D01*
G01*
G37*
G04 #@! TD.AperFunction*
G04 #@! TA.AperFunction,SMDPad,CuDef*
G36*
G01*
X8475000Y-13675000D02*
X8475000Y-13825000D01*
G75*
G02*
X8400000Y-13900000I-75000J0D01*
G01*
X7700000Y-13900000D01*
G75*
G02*
X7625000Y-13825000I0J75000D01*
G01*
X7625000Y-13675000D01*
G75*
G02*
X7700000Y-13600000I75000J0D01*
G01*
X8400000Y-13600000D01*
G75*
G02*
X8475000Y-13675000I0J-75000D01*
G01*
G37*
G04 #@! TD.AperFunction*
G04 #@! TA.AperFunction,SMDPad,CuDef*
G36*
G01*
X8475000Y-13175000D02*
X8475000Y-13325000D01*
G75*
G02*
X8400000Y-13400000I-75000J0D01*
G01*
X7700000Y-13400000D01*
G75*
G02*
X7625000Y-13325000I0J75000D01*
G01*
X7625000Y-13175000D01*
G75*
G02*
X7700000Y-13100000I75000J0D01*
G01*
X8400000Y-13100000D01*
G75*
G02*
X8475000Y-13175000I0J-75000D01*
G01*
G37*
G04 #@! TD.AperFunction*
G04 #@! TA.AperFunction,SMDPad,CuDef*
G36*
G01*
X8475000Y-12675000D02*
X8475000Y-12825000D01*
G75*
G02*
X8400000Y-12900000I-75000J0D01*
G01*
X7700000Y-12900000D01*
G75*
G02*
X7625000Y-12825000I0J75000D01*
G01*
X7625000Y-12675000D01*
G75*
G02*
X7700000Y-12600000I75000J0D01*
G01*
X8400000Y-12600000D01*
G75*
G02*
X8475000Y-12675000I0J-75000D01*
G01*
G37*
G04 #@! TD.AperFunction*
G04 #@! TA.AperFunction,SMDPad,CuDef*
G36*
G01*
X8475000Y-12175000D02*
X8475000Y-12325000D01*
G75*
G02*
X8400000Y-12400000I-75000J0D01*
G01*
X7700000Y-12400000D01*
G75*
G02*
X7625000Y-12325000I0J75000D01*
G01*
X7625000Y-12175000D01*
G75*
G02*
X7700000Y-12100000I75000J0D01*
G01*
X8400000Y-12100000D01*
G75*
G02*
X8475000Y-12175000I0J-75000D01*
G01*
G37*
G04 #@! TD.AperFunction*
G04 #@! TA.AperFunction,SMDPad,CuDef*
G36*
G01*
X8825000Y-11975000D02*
X8675000Y-11975000D01*
G75*
G02*
X8600000Y-11900000I0J75000D01*
G01*
X8600000Y-11200000D01*
G75*
G02*
X8675000Y-11125000I75000J0D01*
G01*
X8825000Y-11125000D01*
G75*
G02*
X8900000Y-11200000I0J-75000D01*
G01*
X8900000Y-11900000D01*
G75*
G02*
X8825000Y-11975000I-75000J0D01*
G01*
G37*
G04 #@! TD.AperFunction*
G04 #@! TA.AperFunction,SMDPad,CuDef*
G36*
G01*
X9325000Y-11975000D02*
X9175000Y-11975000D01*
G75*
G02*
X9100000Y-11900000I0J75000D01*
G01*
X9100000Y-11200000D01*
G75*
G02*
X9175000Y-11125000I75000J0D01*
G01*
X9325000Y-11125000D01*
G75*
G02*
X9400000Y-11200000I0J-75000D01*
G01*
X9400000Y-11900000D01*
G75*
G02*
X9325000Y-11975000I-75000J0D01*
G01*
G37*
G04 #@! TD.AperFunction*
G04 #@! TA.AperFunction,SMDPad,CuDef*
G36*
G01*
X9825000Y-11975000D02*
X9675000Y-11975000D01*
G75*
G02*
X9600000Y-11900000I0J75000D01*
G01*
X9600000Y-11200000D01*
G75*
G02*
X9675000Y-11125000I75000J0D01*
G01*
X9825000Y-11125000D01*
G75*
G02*
X9900000Y-11200000I0J-75000D01*
G01*
X9900000Y-11900000D01*
G75*
G02*
X9825000Y-11975000I-75000J0D01*
G01*
G37*
G04 #@! TD.AperFunction*
G04 #@! TA.AperFunction,SMDPad,CuDef*
G36*
G01*
X10325000Y-11975000D02*
X10175000Y-11975000D01*
G75*
G02*
X10100000Y-11900000I0J75000D01*
G01*
X10100000Y-11200000D01*
G75*
G02*
X10175000Y-11125000I75000J0D01*
G01*
X10325000Y-11125000D01*
G75*
G02*
X10400000Y-11200000I0J-75000D01*
G01*
X10400000Y-11900000D01*
G75*
G02*
X10325000Y-11975000I-75000J0D01*
G01*
G37*
G04 #@! TD.AperFunction*
G04 #@! TA.AperFunction,SMDPad,CuDef*
G36*
G01*
X10825000Y-11975000D02*
X10675000Y-11975000D01*
G75*
G02*
X10600000Y-11900000I0J75000D01*
G01*
X10600000Y-11200000D01*
G75*
G02*
X10675000Y-11125000I75000J0D01*
G01*
X10825000Y-11125000D01*
G75*
G02*
X10900000Y-11200000I0J-75000D01*
G01*
X10900000Y-11900000D01*
G75*
G02*
X10825000Y-11975000I-75000J0D01*
G01*
G37*
G04 #@! TD.AperFunction*
G04 #@! TA.AperFunction,SMDPad,CuDef*
G36*
G01*
X11325000Y-11975000D02*
X11175000Y-11975000D01*
G75*
G02*
X11100000Y-11900000I0J75000D01*
G01*
X11100000Y-11200000D01*
G75*
G02*
X11175000Y-11125000I75000J0D01*
G01*
X11325000Y-11125000D01*
G75*
G02*
X11400000Y-11200000I0J-75000D01*
G01*
X11400000Y-11900000D01*
G75*
G02*
X11325000Y-11975000I-75000J0D01*
G01*
G37*
G04 #@! TD.AperFunction*
G04 #@! TA.AperFunction,SMDPad,CuDef*
G36*
G01*
X12375000Y-12175000D02*
X12375000Y-12325000D01*
G75*
G02*
X12300000Y-12400000I-75000J0D01*
G01*
X11600000Y-12400000D01*
G75*
G02*
X11525000Y-12325000I0J75000D01*
G01*
X11525000Y-12175000D01*
G75*
G02*
X11600000Y-12100000I75000J0D01*
G01*
X12300000Y-12100000D01*
G75*
G02*
X12375000Y-12175000I0J-75000D01*
G01*
G37*
G04 #@! TD.AperFunction*
G04 #@! TA.AperFunction,SMDPad,CuDef*
G36*
G01*
X12375000Y-12675000D02*
X12375000Y-12825000D01*
G75*
G02*
X12300000Y-12900000I-75000J0D01*
G01*
X11600000Y-12900000D01*
G75*
G02*
X11525000Y-12825000I0J75000D01*
G01*
X11525000Y-12675000D01*
G75*
G02*
X11600000Y-12600000I75000J0D01*
G01*
X12300000Y-12600000D01*
G75*
G02*
X12375000Y-12675000I0J-75000D01*
G01*
G37*
G04 #@! TD.AperFunction*
G04 #@! TA.AperFunction,SMDPad,CuDef*
G36*
G01*
X12375000Y-13175000D02*
X12375000Y-13325000D01*
G75*
G02*
X12300000Y-13400000I-75000J0D01*
G01*
X11600000Y-13400000D01*
G75*
G02*
X11525000Y-13325000I0J75000D01*
G01*
X11525000Y-13175000D01*
G75*
G02*
X11600000Y-13100000I75000J0D01*
G01*
X12300000Y-13100000D01*
G75*
G02*
X12375000Y-13175000I0J-75000D01*
G01*
G37*
G04 #@! TD.AperFunction*
G04 #@! TA.AperFunction,SMDPad,CuDef*
G36*
G01*
X12375000Y-13675000D02*
X12375000Y-13825000D01*
G75*
G02*
X12300000Y-13900000I-75000J0D01*
G01*
X11600000Y-13900000D01*
G75*
G02*
X11525000Y-13825000I0J75000D01*
G01*
X11525000Y-13675000D01*
G75*
G02*
X11600000Y-13600000I75000J0D01*
G01*
X12300000Y-13600000D01*
G75*
G02*
X12375000Y-13675000I0J-75000D01*
G01*
G37*
G04 #@! TD.AperFunction*
G04 #@! TA.AperFunction,SMDPad,CuDef*
G36*
G01*
X12375000Y-14175000D02*
X12375000Y-14325000D01*
G75*
G02*
X12300000Y-14400000I-75000J0D01*
G01*
X11600000Y-14400000D01*
G75*
G02*
X11525000Y-14325000I0J75000D01*
G01*
X11525000Y-14175000D01*
G75*
G02*
X11600000Y-14100000I75000J0D01*
G01*
X12300000Y-14100000D01*
G75*
G02*
X12375000Y-14175000I0J-75000D01*
G01*
G37*
G04 #@! TD.AperFunction*
G04 #@! TA.AperFunction,SMDPad,CuDef*
G36*
G01*
X12375000Y-14675000D02*
X12375000Y-14825000D01*
G75*
G02*
X12300000Y-14900000I-75000J0D01*
G01*
X11600000Y-14900000D01*
G75*
G02*
X11525000Y-14825000I0J75000D01*
G01*
X11525000Y-14675000D01*
G75*
G02*
X11600000Y-14600000I75000J0D01*
G01*
X12300000Y-14600000D01*
G75*
G02*
X12375000Y-14675000I0J-75000D01*
G01*
G37*
G04 #@! TD.AperFunction*
G04 #@! TA.AperFunction,SMDPad,CuDef*
G36*
G01*
X11325000Y-15875000D02*
X11175000Y-15875000D01*
G75*
G02*
X11100000Y-15800000I0J75000D01*
G01*
X11100000Y-15100000D01*
G75*
G02*
X11175000Y-15025000I75000J0D01*
G01*
X11325000Y-15025000D01*
G75*
G02*
X11400000Y-15100000I0J-75000D01*
G01*
X11400000Y-15800000D01*
G75*
G02*
X11325000Y-15875000I-75000J0D01*
G01*
G37*
G04 #@! TD.AperFunction*
G04 #@! TA.AperFunction,SMDPad,CuDef*
G36*
G01*
X10825000Y-15875000D02*
X10675000Y-15875000D01*
G75*
G02*
X10600000Y-15800000I0J75000D01*
G01*
X10600000Y-15100000D01*
G75*
G02*
X10675000Y-15025000I75000J0D01*
G01*
X10825000Y-15025000D01*
G75*
G02*
X10900000Y-15100000I0J-75000D01*
G01*
X10900000Y-15800000D01*
G75*
G02*
X10825000Y-15875000I-75000J0D01*
G01*
G37*
G04 #@! TD.AperFunction*
G04 #@! TA.AperFunction,SMDPad,CuDef*
G36*
G01*
X10325000Y-15875000D02*
X10175000Y-15875000D01*
G75*
G02*
X10100000Y-15800000I0J75000D01*
G01*
X10100000Y-15100000D01*
G75*
G02*
X10175000Y-15025000I75000J0D01*
G01*
X10325000Y-15025000D01*
G75*
G02*
X10400000Y-15100000I0J-75000D01*
G01*
X10400000Y-15800000D01*
G75*
G02*
X10325000Y-15875000I-75000J0D01*
G01*
G37*
G04 #@! TD.AperFunction*
G04 #@! TA.AperFunction,SMDPad,CuDef*
G36*
G01*
X9825000Y-15875000D02*
X9675000Y-15875000D01*
G75*
G02*
X9600000Y-15800000I0J75000D01*
G01*
X9600000Y-15100000D01*
G75*
G02*
X9675000Y-15025000I75000J0D01*
G01*
X9825000Y-15025000D01*
G75*
G02*
X9900000Y-15100000I0J-75000D01*
G01*
X9900000Y-15800000D01*
G75*
G02*
X9825000Y-15875000I-75000J0D01*
G01*
G37*
G04 #@! TD.AperFunction*
G04 #@! TA.AperFunction,SMDPad,CuDef*
G36*
G01*
X9325000Y-15875000D02*
X9175000Y-15875000D01*
G75*
G02*
X9100000Y-15800000I0J75000D01*
G01*
X9100000Y-15100000D01*
G75*
G02*
X9175000Y-15025000I75000J0D01*
G01*
X9325000Y-15025000D01*
G75*
G02*
X9400000Y-15100000I0J-75000D01*
G01*
X9400000Y-15800000D01*
G75*
G02*
X9325000Y-15875000I-75000J0D01*
G01*
G37*
G04 #@! TD.AperFunction*
G04 #@! TA.AperFunction,SMDPad,CuDef*
G36*
G01*
X8825000Y-15875000D02*
X8675000Y-15875000D01*
G75*
G02*
X8600000Y-15800000I0J75000D01*
G01*
X8600000Y-15100000D01*
G75*
G02*
X8675000Y-15025000I75000J0D01*
G01*
X8825000Y-15025000D01*
G75*
G02*
X8900000Y-15100000I0J-75000D01*
G01*
X8900000Y-15800000D01*
G75*
G02*
X8825000Y-15875000I-75000J0D01*
G01*
G37*
G04 #@! TD.AperFunction*
D17*
X9550000Y-20190000D03*
X11450000Y-20190000D03*
X11450000Y-22810000D03*
X10500000Y-22810000D03*
X9550000Y-22810000D03*
G04 #@! TA.AperFunction,SMDPad,CuDef*
G36*
G01*
X17275000Y-31575000D02*
X16725000Y-31575000D01*
G75*
G02*
X16525000Y-31375000I0J200000D01*
G01*
X16525000Y-30975000D01*
G75*
G02*
X16725000Y-30775000I200000J0D01*
G01*
X17275000Y-30775000D01*
G75*
G02*
X17475000Y-30975000I0J-200000D01*
G01*
X17475000Y-31375000D01*
G75*
G02*
X17275000Y-31575000I-200000J0D01*
G01*
G37*
G04 #@! TD.AperFunction*
G04 #@! TA.AperFunction,SMDPad,CuDef*
G36*
G01*
X17275000Y-33225000D02*
X16725000Y-33225000D01*
G75*
G02*
X16525000Y-33025000I0J200000D01*
G01*
X16525000Y-32625000D01*
G75*
G02*
X16725000Y-32425000I200000J0D01*
G01*
X17275000Y-32425000D01*
G75*
G02*
X17475000Y-32625000I0J-200000D01*
G01*
X17475000Y-33025000D01*
G75*
G02*
X17275000Y-33225000I-200000J0D01*
G01*
G37*
G04 #@! TD.AperFunction*
G04 #@! TA.AperFunction,SMDPad,CuDef*
G36*
G01*
X4425000Y-16775000D02*
X4425000Y-16225000D01*
G75*
G02*
X4625000Y-16025000I200000J0D01*
G01*
X5025000Y-16025000D01*
G75*
G02*
X5225000Y-16225000I0J-200000D01*
G01*
X5225000Y-16775000D01*
G75*
G02*
X5025000Y-16975000I-200000J0D01*
G01*
X4625000Y-16975000D01*
G75*
G02*
X4425000Y-16775000I0J200000D01*
G01*
G37*
G04 #@! TD.AperFunction*
G04 #@! TA.AperFunction,SMDPad,CuDef*
G36*
G01*
X2775000Y-16775000D02*
X2775000Y-16225000D01*
G75*
G02*
X2975000Y-16025000I200000J0D01*
G01*
X3375000Y-16025000D01*
G75*
G02*
X3575000Y-16225000I0J-200000D01*
G01*
X3575000Y-16775000D01*
G75*
G02*
X3375000Y-16975000I-200000J0D01*
G01*
X2975000Y-16975000D01*
G75*
G02*
X2775000Y-16775000I0J200000D01*
G01*
G37*
G04 #@! TD.AperFunction*
G04 #@! TA.AperFunction,SMDPad,CuDef*
G36*
G01*
X16425000Y-11775000D02*
X16425000Y-11225000D01*
G75*
G02*
X16625000Y-11025000I200000J0D01*
G01*
X17025000Y-11025000D01*
G75*
G02*
X17225000Y-11225000I0J-200000D01*
G01*
X17225000Y-11775000D01*
G75*
G02*
X17025000Y-11975000I-200000J0D01*
G01*
X16625000Y-11975000D01*
G75*
G02*
X16425000Y-11775000I0J200000D01*
G01*
G37*
G04 #@! TD.AperFunction*
G04 #@! TA.AperFunction,SMDPad,CuDef*
G36*
G01*
X14775000Y-11775000D02*
X14775000Y-11225000D01*
G75*
G02*
X14975000Y-11025000I200000J0D01*
G01*
X15375000Y-11025000D01*
G75*
G02*
X15575000Y-11225000I0J-200000D01*
G01*
X15575000Y-11775000D01*
G75*
G02*
X15375000Y-11975000I-200000J0D01*
G01*
X14975000Y-11975000D01*
G75*
G02*
X14775000Y-11775000I0J200000D01*
G01*
G37*
G04 #@! TD.AperFunction*
G04 #@! TA.AperFunction,SMDPad,CuDef*
G36*
G01*
X16425000Y-17775000D02*
X16425000Y-17225000D01*
G75*
G02*
X16625000Y-17025000I200000J0D01*
G01*
X17025000Y-17025000D01*
G75*
G02*
X17225000Y-17225000I0J-200000D01*
G01*
X17225000Y-17775000D01*
G75*
G02*
X17025000Y-17975000I-200000J0D01*
G01*
X16625000Y-17975000D01*
G75*
G02*
X16425000Y-17775000I0J200000D01*
G01*
G37*
G04 #@! TD.AperFunction*
G04 #@! TA.AperFunction,SMDPad,CuDef*
G36*
G01*
X14775000Y-17775000D02*
X14775000Y-17225000D01*
G75*
G02*
X14975000Y-17025000I200000J0D01*
G01*
X15375000Y-17025000D01*
G75*
G02*
X15575000Y-17225000I0J-200000D01*
G01*
X15575000Y-17775000D01*
G75*
G02*
X15375000Y-17975000I-200000J0D01*
G01*
X14975000Y-17975000D01*
G75*
G02*
X14775000Y-17775000I0J200000D01*
G01*
G37*
G04 #@! TD.AperFunction*
G04 #@! TA.AperFunction,SMDPad,CuDef*
G36*
G01*
X4425000Y-13275000D02*
X4425000Y-12725000D01*
G75*
G02*
X4625000Y-12525000I200000J0D01*
G01*
X5025000Y-12525000D01*
G75*
G02*
X5225000Y-12725000I0J-200000D01*
G01*
X5225000Y-13275000D01*
G75*
G02*
X5025000Y-13475000I-200000J0D01*
G01*
X4625000Y-13475000D01*
G75*
G02*
X4425000Y-13275000I0J200000D01*
G01*
G37*
G04 #@! TD.AperFunction*
G04 #@! TA.AperFunction,SMDPad,CuDef*
G36*
G01*
X2775000Y-13275000D02*
X2775000Y-12725000D01*
G75*
G02*
X2975000Y-12525000I200000J0D01*
G01*
X3375000Y-12525000D01*
G75*
G02*
X3575000Y-12725000I0J-200000D01*
G01*
X3575000Y-13275000D01*
G75*
G02*
X3375000Y-13475000I-200000J0D01*
G01*
X2975000Y-13475000D01*
G75*
G02*
X2775000Y-13275000I0J200000D01*
G01*
G37*
G04 #@! TD.AperFunction*
G04 #@! TA.AperFunction,SMDPad,CuDef*
G36*
G01*
X4425000Y-11775000D02*
X4425000Y-11225000D01*
G75*
G02*
X4625000Y-11025000I200000J0D01*
G01*
X5025000Y-11025000D01*
G75*
G02*
X5225000Y-11225000I0J-200000D01*
G01*
X5225000Y-11775000D01*
G75*
G02*
X5025000Y-11975000I-200000J0D01*
G01*
X4625000Y-11975000D01*
G75*
G02*
X4425000Y-11775000I0J200000D01*
G01*
G37*
G04 #@! TD.AperFunction*
G04 #@! TA.AperFunction,SMDPad,CuDef*
G36*
G01*
X2775000Y-11775000D02*
X2775000Y-11225000D01*
G75*
G02*
X2975000Y-11025000I200000J0D01*
G01*
X3375000Y-11025000D01*
G75*
G02*
X3575000Y-11225000I0J-200000D01*
G01*
X3575000Y-11775000D01*
G75*
G02*
X3375000Y-11975000I-200000J0D01*
G01*
X2975000Y-11975000D01*
G75*
G02*
X2775000Y-11775000I0J200000D01*
G01*
G37*
G04 #@! TD.AperFunction*
G04 #@! TA.AperFunction,SMDPad,CuDef*
G36*
G01*
X2225000Y-27425000D02*
X2775000Y-27425000D01*
G75*
G02*
X2975000Y-27625000I0J-200000D01*
G01*
X2975000Y-28025000D01*
G75*
G02*
X2775000Y-28225000I-200000J0D01*
G01*
X2225000Y-28225000D01*
G75*
G02*
X2025000Y-28025000I0J200000D01*
G01*
X2025000Y-27625000D01*
G75*
G02*
X2225000Y-27425000I200000J0D01*
G01*
G37*
G04 #@! TD.AperFunction*
G04 #@! TA.AperFunction,SMDPad,CuDef*
G36*
G01*
X2225000Y-25775000D02*
X2775000Y-25775000D01*
G75*
G02*
X2975000Y-25975000I0J-200000D01*
G01*
X2975000Y-26375000D01*
G75*
G02*
X2775000Y-26575000I-200000J0D01*
G01*
X2225000Y-26575000D01*
G75*
G02*
X2025000Y-26375000I0J200000D01*
G01*
X2025000Y-25975000D01*
G75*
G02*
X2225000Y-25775000I200000J0D01*
G01*
G37*
G04 #@! TD.AperFunction*
G04 #@! TA.AperFunction,SMDPad,CuDef*
G36*
G01*
X4425000Y-15275000D02*
X4425000Y-14725000D01*
G75*
G02*
X4625000Y-14525000I200000J0D01*
G01*
X5025000Y-14525000D01*
G75*
G02*
X5225000Y-14725000I0J-200000D01*
G01*
X5225000Y-15275000D01*
G75*
G02*
X5025000Y-15475000I-200000J0D01*
G01*
X4625000Y-15475000D01*
G75*
G02*
X4425000Y-15275000I0J200000D01*
G01*
G37*
G04 #@! TD.AperFunction*
G04 #@! TA.AperFunction,SMDPad,CuDef*
G36*
G01*
X2775000Y-15275000D02*
X2775000Y-14725000D01*
G75*
G02*
X2975000Y-14525000I200000J0D01*
G01*
X3375000Y-14525000D01*
G75*
G02*
X3575000Y-14725000I0J-200000D01*
G01*
X3575000Y-15275000D01*
G75*
G02*
X3375000Y-15475000I-200000J0D01*
G01*
X2975000Y-15475000D01*
G75*
G02*
X2775000Y-15275000I0J200000D01*
G01*
G37*
G04 #@! TD.AperFunction*
G04 #@! TA.AperFunction,SMDPad,CuDef*
G36*
G01*
X4425000Y-23275000D02*
X4425000Y-22725000D01*
G75*
G02*
X4625000Y-22525000I200000J0D01*
G01*
X5025000Y-22525000D01*
G75*
G02*
X5225000Y-22725000I0J-200000D01*
G01*
X5225000Y-23275000D01*
G75*
G02*
X5025000Y-23475000I-200000J0D01*
G01*
X4625000Y-23475000D01*
G75*
G02*
X4425000Y-23275000I0J200000D01*
G01*
G37*
G04 #@! TD.AperFunction*
G04 #@! TA.AperFunction,SMDPad,CuDef*
G36*
G01*
X2775000Y-23275000D02*
X2775000Y-22725000D01*
G75*
G02*
X2975000Y-22525000I200000J0D01*
G01*
X3375000Y-22525000D01*
G75*
G02*
X3575000Y-22725000I0J-200000D01*
G01*
X3575000Y-23275000D01*
G75*
G02*
X3375000Y-23475000I-200000J0D01*
G01*
X2975000Y-23475000D01*
G75*
G02*
X2775000Y-23275000I0J200000D01*
G01*
G37*
G04 #@! TD.AperFunction*
D18*
X15000000Y-27460000D03*
X15000000Y-30000000D03*
D19*
X15000000Y-32540000D03*
D18*
X5000000Y-27460000D03*
X5000000Y-30000000D03*
D19*
X5000000Y-32540000D03*
G04 #@! TA.AperFunction,SMDPad,CuDef*
G36*
G01*
X4325000Y-9750000D02*
X4325000Y-9250000D01*
G75*
G02*
X4550000Y-9025000I225000J0D01*
G01*
X5000000Y-9025000D01*
G75*
G02*
X5225000Y-9250000I0J-225000D01*
G01*
X5225000Y-9750000D01*
G75*
G02*
X5000000Y-9975000I-225000J0D01*
G01*
X4550000Y-9975000D01*
G75*
G02*
X4325000Y-9750000I0J225000D01*
G01*
G37*
G04 #@! TD.AperFunction*
G04 #@! TA.AperFunction,SMDPad,CuDef*
G36*
G01*
X2775000Y-9750000D02*
X2775000Y-9250000D01*
G75*
G02*
X3000000Y-9025000I225000J0D01*
G01*
X3450000Y-9025000D01*
G75*
G02*
X3675000Y-9250000I0J-225000D01*
G01*
X3675000Y-9750000D01*
G75*
G02*
X3450000Y-9975000I-225000J0D01*
G01*
X3000000Y-9975000D01*
G75*
G02*
X2775000Y-9750000I0J225000D01*
G01*
G37*
G04 #@! TD.AperFunction*
G04 #@! TA.AperFunction,SMDPad,CuDef*
G36*
G01*
X15675000Y-13250000D02*
X15675000Y-13750000D01*
G75*
G02*
X15450000Y-13975000I-225000J0D01*
G01*
X15000000Y-13975000D01*
G75*
G02*
X14775000Y-13750000I0J225000D01*
G01*
X14775000Y-13250000D01*
G75*
G02*
X15000000Y-13025000I225000J0D01*
G01*
X15450000Y-13025000D01*
G75*
G02*
X15675000Y-13250000I0J-225000D01*
G01*
G37*
G04 #@! TD.AperFunction*
G04 #@! TA.AperFunction,SMDPad,CuDef*
G36*
G01*
X17225000Y-13250000D02*
X17225000Y-13750000D01*
G75*
G02*
X17000000Y-13975000I-225000J0D01*
G01*
X16550000Y-13975000D01*
G75*
G02*
X16325000Y-13750000I0J225000D01*
G01*
X16325000Y-13250000D01*
G75*
G02*
X16550000Y-13025000I225000J0D01*
G01*
X17000000Y-13025000D01*
G75*
G02*
X17225000Y-13250000I0J-225000D01*
G01*
G37*
G04 #@! TD.AperFunction*
G04 #@! TA.AperFunction,SMDPad,CuDef*
G36*
G01*
X16325000Y-15750000D02*
X16325000Y-15250000D01*
G75*
G02*
X16550000Y-15025000I225000J0D01*
G01*
X17000000Y-15025000D01*
G75*
G02*
X17225000Y-15250000I0J-225000D01*
G01*
X17225000Y-15750000D01*
G75*
G02*
X17000000Y-15975000I-225000J0D01*
G01*
X16550000Y-15975000D01*
G75*
G02*
X16325000Y-15750000I0J225000D01*
G01*
G37*
G04 #@! TD.AperFunction*
G04 #@! TA.AperFunction,SMDPad,CuDef*
G36*
G01*
X14775000Y-15750000D02*
X14775000Y-15250000D01*
G75*
G02*
X15000000Y-15025000I225000J0D01*
G01*
X15450000Y-15025000D01*
G75*
G02*
X15675000Y-15250000I0J-225000D01*
G01*
X15675000Y-15750000D01*
G75*
G02*
X15450000Y-15975000I-225000J0D01*
G01*
X15000000Y-15975000D01*
G75*
G02*
X14775000Y-15750000I0J225000D01*
G01*
G37*
G04 #@! TD.AperFunction*
G04 #@! TA.AperFunction,SMDPad,CuDef*
G36*
G01*
X15675000Y-6750000D02*
X15675000Y-7250000D01*
G75*
G02*
X15450000Y-7475000I-225000J0D01*
G01*
X15000000Y-7475000D01*
G75*
G02*
X14775000Y-7250000I0J225000D01*
G01*
X14775000Y-6750000D01*
G75*
G02*
X15000000Y-6525000I225000J0D01*
G01*
X15450000Y-6525000D01*
G75*
G02*
X15675000Y-6750000I0J-225000D01*
G01*
G37*
G04 #@! TD.AperFunction*
G04 #@! TA.AperFunction,SMDPad,CuDef*
G36*
G01*
X17225000Y-6750000D02*
X17225000Y-7250000D01*
G75*
G02*
X17000000Y-7475000I-225000J0D01*
G01*
X16550000Y-7475000D01*
G75*
G02*
X16325000Y-7250000I0J225000D01*
G01*
X16325000Y-6750000D01*
G75*
G02*
X16550000Y-6525000I225000J0D01*
G01*
X17000000Y-6525000D01*
G75*
G02*
X17225000Y-6750000I0J-225000D01*
G01*
G37*
G04 #@! TD.AperFunction*
G04 #@! TA.AperFunction,SMDPad,CuDef*
G36*
G01*
X7250000Y-21325000D02*
X7750000Y-21325000D01*
G75*
G02*
X7975000Y-21550000I0J-225000D01*
G01*
X7975000Y-22000000D01*
G75*
G02*
X7750000Y-22225000I-225000J0D01*
G01*
X7250000Y-22225000D01*
G75*
G02*
X7025000Y-22000000I0J225000D01*
G01*
X7025000Y-21550000D01*
G75*
G02*
X7250000Y-21325000I225000J0D01*
G01*
G37*
G04 #@! TD.AperFunction*
G04 #@! TA.AperFunction,SMDPad,CuDef*
G36*
G01*
X7250000Y-19775000D02*
X7750000Y-19775000D01*
G75*
G02*
X7975000Y-20000000I0J-225000D01*
G01*
X7975000Y-20450000D01*
G75*
G02*
X7750000Y-20675000I-225000J0D01*
G01*
X7250000Y-20675000D01*
G75*
G02*
X7025000Y-20450000I0J225000D01*
G01*
X7025000Y-20000000D01*
G75*
G02*
X7250000Y-19775000I225000J0D01*
G01*
G37*
G04 #@! TD.AperFunction*
G04 #@! TA.AperFunction,SMDPad,CuDef*
G36*
G01*
X13750000Y-20675000D02*
X13250000Y-20675000D01*
G75*
G02*
X13025000Y-20450000I0J225000D01*
G01*
X13025000Y-20000000D01*
G75*
G02*
X13250000Y-19775000I225000J0D01*
G01*
X13750000Y-19775000D01*
G75*
G02*
X13975000Y-20000000I0J-225000D01*
G01*
X13975000Y-20450000D01*
G75*
G02*
X13750000Y-20675000I-225000J0D01*
G01*
G37*
G04 #@! TD.AperFunction*
G04 #@! TA.AperFunction,SMDPad,CuDef*
G36*
G01*
X13750000Y-22225000D02*
X13250000Y-22225000D01*
G75*
G02*
X13025000Y-22000000I0J225000D01*
G01*
X13025000Y-21550000D01*
G75*
G02*
X13250000Y-21325000I225000J0D01*
G01*
X13750000Y-21325000D01*
G75*
G02*
X13975000Y-21550000I0J-225000D01*
G01*
X13975000Y-22000000D01*
G75*
G02*
X13750000Y-22225000I-225000J0D01*
G01*
G37*
G04 #@! TD.AperFunction*
G04 #@! TA.AperFunction,SMDPad,CuDef*
G36*
G01*
X7325000Y-35750000D02*
X7325000Y-35250000D01*
G75*
G02*
X7550000Y-35025000I225000J0D01*
G01*
X8000000Y-35025000D01*
G75*
G02*
X8225000Y-35250000I0J-225000D01*
G01*
X8225000Y-35750000D01*
G75*
G02*
X8000000Y-35975000I-225000J0D01*
G01*
X7550000Y-35975000D01*
G75*
G02*
X7325000Y-35750000I0J225000D01*
G01*
G37*
G04 #@! TD.AperFunction*
G04 #@! TA.AperFunction,SMDPad,CuDef*
G36*
G01*
X5775000Y-35750000D02*
X5775000Y-35250000D01*
G75*
G02*
X6000000Y-35025000I225000J0D01*
G01*
X6450000Y-35025000D01*
G75*
G02*
X6675000Y-35250000I0J-225000D01*
G01*
X6675000Y-35750000D01*
G75*
G02*
X6450000Y-35975000I-225000J0D01*
G01*
X6000000Y-35975000D01*
G75*
G02*
X5775000Y-35750000I0J225000D01*
G01*
G37*
G04 #@! TD.AperFunction*
G04 #@! TA.AperFunction,SMDPad,CuDef*
G36*
G01*
X16325000Y-19750000D02*
X16325000Y-19250000D01*
G75*
G02*
X16550000Y-19025000I225000J0D01*
G01*
X17000000Y-19025000D01*
G75*
G02*
X17225000Y-19250000I0J-225000D01*
G01*
X17225000Y-19750000D01*
G75*
G02*
X17000000Y-19975000I-225000J0D01*
G01*
X16550000Y-19975000D01*
G75*
G02*
X16325000Y-19750000I0J225000D01*
G01*
G37*
G04 #@! TD.AperFunction*
G04 #@! TA.AperFunction,SMDPad,CuDef*
G36*
G01*
X14775000Y-19750000D02*
X14775000Y-19250000D01*
G75*
G02*
X15000000Y-19025000I225000J0D01*
G01*
X15450000Y-19025000D01*
G75*
G02*
X15675000Y-19250000I0J-225000D01*
G01*
X15675000Y-19750000D01*
G75*
G02*
X15450000Y-19975000I-225000J0D01*
G01*
X15000000Y-19975000D01*
G75*
G02*
X14775000Y-19750000I0J225000D01*
G01*
G37*
G04 #@! TD.AperFunction*
D20*
X7500000Y-18500000D03*
X3900000Y-9500000D03*
X3900000Y-8100000D03*
X8700000Y-9000000D03*
X8700000Y-10200000D03*
X10500000Y-27000000D03*
X12700000Y-29300000D03*
X12600000Y-27000000D03*
X16237500Y-7537500D03*
X10000000Y-31800000D03*
X15225000Y-20525000D03*
X6378768Y-23121232D03*
X2984999Y-24500000D03*
X8510000Y-20190000D03*
X11300000Y-10500000D03*
X14200000Y-15000000D03*
X5375000Y-21500000D03*
X14200000Y-10500000D03*
X3790065Y-12923851D03*
X4100000Y-15700000D03*
X19000000Y-31000000D03*
X7300000Y-28800000D03*
X3900000Y-15000000D03*
X3000000Y-17500000D03*
X3200000Y-10500000D03*
X4500000Y-14000000D03*
X2100000Y-8700000D03*
X16825000Y-9365000D03*
X6000000Y-7500000D03*
X8700000Y-8200000D03*
X10000000Y-33300000D03*
X6500000Y-27000000D03*
X17900000Y-32000000D03*
X17900000Y-30200000D03*
D21*
X8750000Y-17250000D02*
X8200000Y-17800000D01*
X8750000Y-15450000D02*
X8750000Y-17250000D01*
X8200000Y-17800000D02*
X7500000Y-18500000D01*
X16825000Y-13450000D02*
X16775000Y-13500000D01*
X16825000Y-11500000D02*
X16825000Y-13450000D01*
X16775000Y-13500000D02*
X16775000Y-19500000D01*
X3225000Y-9500000D02*
X3900000Y-9500000D01*
X3900000Y-8100000D02*
X5700000Y-8100000D01*
X6600000Y-9000000D02*
X8700000Y-9000000D01*
X5700000Y-8100000D02*
X6600000Y-9000000D01*
X8700000Y-11500000D02*
X8750000Y-11550000D01*
X8700000Y-10200000D02*
X8700000Y-11500000D01*
X15225000Y-8500000D02*
X15275000Y-8500000D01*
X10000000Y-29775000D02*
X10775000Y-29000000D01*
X10000000Y-30900000D02*
X10000000Y-29775000D01*
X13825000Y-35500000D02*
X13825000Y-35675000D01*
X13200000Y-36300000D02*
X13200000Y-37550000D01*
X13825000Y-35675000D02*
X13200000Y-36300000D01*
X12700000Y-29300000D02*
X12400000Y-29000000D01*
X12400000Y-29000000D02*
X10775000Y-29000000D01*
X12700000Y-27100000D02*
X12600000Y-27000000D01*
X12700000Y-29300000D02*
X12700000Y-27100000D01*
X16237500Y-7537500D02*
X16775000Y-7000000D01*
X15275000Y-8500000D02*
X16237500Y-7537500D01*
X10000000Y-30900000D02*
X10000000Y-31800000D01*
X15225000Y-20525000D02*
X16000000Y-21300000D01*
X15225000Y-19500000D02*
X15225000Y-20525000D01*
X6378768Y-23121232D02*
X5499990Y-24000010D01*
X3175000Y-23975000D02*
X3200010Y-24000010D01*
X3175000Y-23000000D02*
X3175000Y-23975000D01*
X5499990Y-24000010D02*
X3200010Y-24000010D01*
X2984999Y-24165001D02*
X3175000Y-23975000D01*
X2984999Y-24500000D02*
X2984999Y-24165001D01*
X11485000Y-20225000D02*
X11450000Y-20190000D01*
X13500000Y-20225000D02*
X11485000Y-20225000D01*
D22*
X7535000Y-20190000D02*
X7500000Y-20225000D01*
X8510000Y-20190000D02*
X7535000Y-20190000D01*
X9550000Y-20190000D02*
X8510000Y-20190000D01*
D21*
X11300000Y-11500000D02*
X11250000Y-11550000D01*
X11300000Y-10500000D02*
X11300000Y-11500000D01*
D22*
X9550000Y-20190000D02*
X9550000Y-18750000D01*
X9550000Y-18750000D02*
X13300000Y-15000000D01*
X13300000Y-15000000D02*
X14200000Y-15000000D01*
D21*
X12550000Y-14250000D02*
X13300000Y-15000000D01*
X11950000Y-14250000D02*
X12550000Y-14250000D01*
D22*
X3175000Y-12275000D02*
X3175000Y-13000000D01*
X3175000Y-11500000D02*
X3175000Y-12275000D01*
X5375000Y-21500000D02*
X5375000Y-21950000D01*
X5375000Y-21214998D02*
X4660002Y-20500000D01*
X5375000Y-21500000D02*
X5375000Y-21214998D01*
X4050000Y-20500000D02*
X3050000Y-19500000D01*
X4660002Y-20500000D02*
X4050000Y-20500000D01*
X14700000Y-10000000D02*
X14200000Y-10500000D01*
X15175000Y-10000000D02*
X14700000Y-10000000D01*
X15225000Y-7000000D02*
X15000000Y-7000000D01*
X15000000Y-7000000D02*
X14000000Y-8000000D01*
X14000001Y-10300001D02*
X14200000Y-10500000D01*
X14000000Y-8000000D02*
X14000001Y-10300001D01*
X4825000Y-22500000D02*
X5375000Y-21950000D01*
X4825000Y-23000000D02*
X4825000Y-22500000D01*
X3251149Y-12923851D02*
X3175000Y-13000000D01*
X3790065Y-12923851D02*
X3251149Y-12923851D01*
X14650000Y-15500000D02*
X14200000Y-15050000D01*
X15225000Y-15500000D02*
X14650000Y-15500000D01*
X17000000Y-29450000D02*
X18000000Y-28450000D01*
X18000000Y-28450000D02*
X18000000Y-25651456D01*
X18000000Y-25651456D02*
X15848544Y-23500000D01*
X15848544Y-23500000D02*
X13500000Y-23500000D01*
X13500000Y-23500000D02*
X12500000Y-22500000D01*
X12500000Y-22500000D02*
X12500000Y-22000000D01*
X12500000Y-22000000D02*
X12000000Y-21500000D01*
X12000000Y-21500000D02*
X10000000Y-21500000D01*
X9550000Y-21050000D02*
X9550000Y-20190000D01*
X10000000Y-21500000D02*
X9550000Y-21050000D01*
D21*
X11950000Y-13250000D02*
X13450000Y-13250000D01*
X13700000Y-13500000D02*
X15225000Y-13500000D01*
X13450000Y-13250000D02*
X13700000Y-13500000D01*
X7925010Y-12725010D02*
X7525010Y-12725010D01*
X7950000Y-12750000D02*
X7925010Y-12725010D01*
X8050000Y-12750000D02*
X7950000Y-12750000D01*
X4775000Y-9975000D02*
X4775000Y-9500000D01*
X7525010Y-12725010D02*
X4775000Y-9975000D01*
X4635000Y-27825000D02*
X5000000Y-27460000D01*
X2500000Y-27825000D02*
X4635000Y-27825000D01*
X4825000Y-15000000D02*
X4800000Y-15000000D01*
X4800000Y-15000000D02*
X4100000Y-15700000D01*
X17175000Y-31000000D02*
X17000000Y-31175000D01*
X19000000Y-31000000D02*
X17175000Y-31000000D01*
X6100000Y-17775000D02*
X4825000Y-16500000D01*
X6100000Y-22100000D02*
X6100000Y-17775000D01*
X7300000Y-23300000D02*
X6100000Y-22100000D01*
X7300000Y-28800000D02*
X7300000Y-23300000D01*
X3175000Y-15000000D02*
X3175000Y-16500000D01*
X3900000Y-15000000D02*
X3175000Y-15000000D01*
X3000000Y-17825000D02*
X3175000Y-18000000D01*
X3000000Y-17500000D02*
X3000000Y-17825000D01*
X8050000Y-14250000D02*
X7450000Y-14250000D01*
X7450000Y-14250000D02*
X6700000Y-13500000D01*
X6700000Y-13500000D02*
X6700000Y-12600000D01*
X5600000Y-11500000D02*
X4825000Y-11500000D01*
X6700000Y-12600000D02*
X5600000Y-11500000D01*
X4825000Y-11500000D02*
X3825000Y-10500000D01*
X3825000Y-10500000D02*
X3200000Y-10500000D01*
X8050000Y-14750000D02*
X7250000Y-14750000D01*
X5500000Y-13000000D02*
X4825000Y-13000000D01*
X6150000Y-13650000D02*
X5500000Y-13000000D01*
X7250000Y-14750000D02*
X6150000Y-13650000D01*
X4825000Y-13675000D02*
X4500000Y-14000000D01*
X4825000Y-13000000D02*
X4825000Y-13675000D01*
X16000000Y-16675000D02*
X15175000Y-17500000D01*
X16000000Y-15022166D02*
X16000000Y-16675000D01*
X15452824Y-14474990D02*
X16000000Y-15022166D01*
X14038580Y-14474990D02*
X15452824Y-14474990D01*
X13313590Y-13750000D02*
X14038580Y-14474990D01*
X11950000Y-13750000D02*
X13313590Y-13750000D01*
X11950000Y-12750000D02*
X13450000Y-12750000D01*
X14700000Y-11500000D02*
X15175000Y-11500000D01*
X13450000Y-12750000D02*
X14700000Y-11500000D01*
X11950000Y-12250000D02*
X12650000Y-12250000D01*
X12650000Y-12250000D02*
X13000000Y-11900000D01*
X13000000Y-11900000D02*
X13000000Y-10300000D01*
X13000000Y-10300000D02*
X12300000Y-9600000D01*
X12300000Y-9600000D02*
X6400000Y-9600000D01*
X5500000Y-8700000D02*
X2100000Y-8700000D01*
X6400000Y-9600000D02*
X5500000Y-8700000D01*
X16825000Y-8550000D02*
X16775000Y-8500000D01*
X16825000Y-10000000D02*
X16825000Y-8550000D01*
X6000000Y-7500000D02*
X7460000Y-7500000D01*
X9300000Y-8200000D02*
X10000000Y-7500000D01*
X8700000Y-8200000D02*
X9300000Y-8200000D01*
D22*
X9550000Y-27175000D02*
X9500000Y-27225000D01*
X9550000Y-22810000D02*
X9550000Y-24950000D01*
X6225000Y-34195002D02*
X6225000Y-35500000D01*
X9050000Y-30900000D02*
X9050000Y-31370002D01*
X9225000Y-29000000D02*
X9225000Y-28275000D01*
X9550000Y-27950000D02*
X9550000Y-26050000D01*
X9550000Y-26050000D02*
X9550000Y-27175000D01*
X9225000Y-28275000D02*
X9550000Y-27950000D01*
X9550000Y-24950000D02*
X9550000Y-26050000D01*
X9550000Y-27950000D02*
X11050000Y-27950000D01*
X11450000Y-27550000D02*
X11450000Y-26450000D01*
X11050000Y-27950000D02*
X11450000Y-27550000D01*
X11450000Y-22810000D02*
X11450000Y-26450000D01*
X9050000Y-29175000D02*
X9225000Y-29000000D01*
X9050000Y-30900000D02*
X9050000Y-29175000D01*
X3500000Y-34000000D02*
X6420002Y-34000000D01*
X2000000Y-32500000D02*
X3500000Y-34000000D01*
X6420002Y-34000000D02*
X8460001Y-31960001D01*
X8460001Y-31960001D02*
X6225000Y-34195002D01*
X9050000Y-31370002D02*
X8460001Y-31960001D01*
D21*
X10950000Y-34275000D02*
X12175000Y-35500000D01*
X10950000Y-33100000D02*
X10950000Y-34275000D01*
X9800000Y-33100000D02*
X10000000Y-33300000D01*
X9050000Y-33100000D02*
X9800000Y-33100000D01*
X10775000Y-35500000D02*
X10775000Y-35275000D01*
X10000000Y-34500000D02*
X10000000Y-33300000D01*
X10775000Y-35275000D02*
X10000000Y-34500000D01*
X10950000Y-30900000D02*
X10950000Y-31450000D01*
X12325000Y-32825000D02*
X13000000Y-32825000D01*
X10950000Y-31450000D02*
X12325000Y-32825000D01*
X3000000Y-21500000D02*
X4000000Y-21500000D01*
X2000000Y-22500000D02*
X3000000Y-21500000D01*
X2000000Y-25675000D02*
X2000000Y-22500000D01*
X2500000Y-26175000D02*
X2000000Y-25675000D01*
X5675000Y-26175000D02*
X6500000Y-27000000D01*
X2500000Y-26175000D02*
X5675000Y-26175000D01*
X18500000Y-29000000D02*
X19000000Y-28500000D01*
X18500000Y-29500000D02*
X18500000Y-29000000D01*
X17075000Y-32825000D02*
X17900000Y-32000000D01*
X17000000Y-32825000D02*
X17075000Y-32825000D01*
X18500000Y-29600000D02*
X17900000Y-30200000D01*
X18500000Y-29500000D02*
X18500000Y-29600000D01*
X16950000Y-27550000D02*
X17000000Y-27550000D01*
X15725001Y-28774999D02*
X16950000Y-27550000D01*
X14225001Y-28774999D02*
X15725001Y-28774999D01*
X13000000Y-30000000D02*
X14225001Y-28774999D01*
X13000000Y-31175000D02*
X13000000Y-30000000D01*
X4825000Y-19375000D02*
X4950000Y-19500000D01*
X4825000Y-18000000D02*
X4825000Y-19375000D01*
X8344167Y-33630000D02*
X8351485Y-33704297D01*
X8373156Y-33775738D01*
X8408349Y-33841579D01*
X8455710Y-33899290D01*
X8513421Y-33946651D01*
X8579262Y-33981844D01*
X8650703Y-34003515D01*
X8725000Y-34010833D01*
X9375000Y-34010833D01*
X9449297Y-34003515D01*
X9496000Y-33989348D01*
X9496000Y-34390829D01*
X9385250Y-34392000D01*
X9227000Y-34550250D01*
X9227000Y-35498000D01*
X9247000Y-35498000D01*
X9247000Y-35502000D01*
X9227000Y-35502000D01*
X9227000Y-36449750D01*
X9385250Y-36608000D01*
X9675000Y-36611063D01*
X9799090Y-36598841D01*
X9918411Y-36562646D01*
X10028378Y-36503867D01*
X10124764Y-36424764D01*
X10203867Y-36328378D01*
X10237022Y-36266349D01*
X10318158Y-36309717D01*
X10431808Y-36344192D01*
X10550000Y-36355833D01*
X11000000Y-36355833D01*
X11118192Y-36344192D01*
X11231842Y-36309717D01*
X11336583Y-36253732D01*
X11428389Y-36178389D01*
X11493334Y-36099253D01*
X11564289Y-36185711D01*
X11652306Y-36257945D01*
X11752725Y-36311620D01*
X11861685Y-36344672D01*
X11975000Y-36355833D01*
X12340519Y-36355833D01*
X12238269Y-36479987D01*
X12130913Y-36680005D01*
X12064641Y-36897124D01*
X12042000Y-37123000D01*
X12042000Y-37548000D01*
X13198000Y-37548000D01*
X13198000Y-37528000D01*
X13202000Y-37528000D01*
X13202000Y-37548000D01*
X14358000Y-37548000D01*
X14358000Y-37123000D01*
X14335359Y-36897124D01*
X14269087Y-36680005D01*
X14231728Y-36610400D01*
X14349090Y-36598841D01*
X14468411Y-36562646D01*
X14578378Y-36503867D01*
X14596001Y-36489404D01*
X14596000Y-38596000D01*
X14174620Y-38596000D01*
X14269087Y-38419995D01*
X14335359Y-38202876D01*
X14358000Y-37977000D01*
X14358000Y-37552000D01*
X13202000Y-37552000D01*
X13202000Y-37572000D01*
X13198000Y-37572000D01*
X13198000Y-37552000D01*
X12042000Y-37552000D01*
X12042000Y-37977000D01*
X12064641Y-38202876D01*
X12130913Y-38419995D01*
X12225380Y-38596000D01*
X7774620Y-38596000D01*
X7869087Y-38419995D01*
X7935359Y-38202876D01*
X7958000Y-37977000D01*
X7958000Y-37552000D01*
X6802000Y-37552000D01*
X6802000Y-37572000D01*
X6798000Y-37572000D01*
X6798000Y-37552000D01*
X5642000Y-37552000D01*
X5642000Y-37977000D01*
X5664641Y-38202876D01*
X5730913Y-38419995D01*
X5825380Y-38596000D01*
X5404000Y-38596000D01*
X5404000Y-35849835D01*
X5405808Y-35868192D01*
X5440283Y-35981842D01*
X5496268Y-36086583D01*
X5571611Y-36178389D01*
X5663417Y-36253732D01*
X5768158Y-36309717D01*
X5881808Y-36344192D01*
X5944981Y-36350414D01*
X5838269Y-36479987D01*
X5730913Y-36680005D01*
X5664641Y-36897124D01*
X5642000Y-37123000D01*
X5642000Y-37548000D01*
X6798000Y-37548000D01*
X6798000Y-37528000D01*
X6802000Y-37528000D01*
X6802000Y-37548000D01*
X7958000Y-37548000D01*
X7958000Y-37123000D01*
X7935359Y-36897124D01*
X7869087Y-36680005D01*
X7777002Y-36508439D01*
X7777002Y-36449752D01*
X7935250Y-36608000D01*
X8225000Y-36611063D01*
X8349090Y-36598841D01*
X8468411Y-36562646D01*
X8500000Y-36545761D01*
X8531589Y-36562646D01*
X8650910Y-36598841D01*
X8775000Y-36611063D01*
X9064750Y-36608000D01*
X9223000Y-36449750D01*
X9223000Y-35502000D01*
X7777000Y-35502000D01*
X7777000Y-35522000D01*
X7773000Y-35522000D01*
X7773000Y-35502000D01*
X7753000Y-35502000D01*
X7753000Y-35498000D01*
X7773000Y-35498000D01*
X7773000Y-34550250D01*
X7777000Y-34550250D01*
X7777000Y-35498000D01*
X9223000Y-35498000D01*
X9223000Y-34550250D01*
X9064750Y-34392000D01*
X8775000Y-34388937D01*
X8650910Y-34401159D01*
X8531589Y-34437354D01*
X8500000Y-34454239D01*
X8468411Y-34437354D01*
X8349090Y-34401159D01*
X8225000Y-34388937D01*
X7935250Y-34392000D01*
X7777000Y-34550250D01*
X7773000Y-34550250D01*
X7614750Y-34392000D01*
X7325000Y-34388937D01*
X7200910Y-34401159D01*
X7081589Y-34437354D01*
X6971622Y-34496133D01*
X6875236Y-34575236D01*
X6804000Y-34662036D01*
X6804000Y-34434831D01*
X6809308Y-34429523D01*
X6831397Y-34411395D01*
X6849525Y-34389306D01*
X8344167Y-32894665D01*
X8344167Y-33630000D01*
G04 #@! TA.AperFunction,Conductor*
D23*
G36*
X8344167Y-33630000D02*
G01*
X8351485Y-33704297D01*
X8373156Y-33775738D01*
X8408349Y-33841579D01*
X8455710Y-33899290D01*
X8513421Y-33946651D01*
X8579262Y-33981844D01*
X8650703Y-34003515D01*
X8725000Y-34010833D01*
X9375000Y-34010833D01*
X9449297Y-34003515D01*
X9496000Y-33989348D01*
X9496000Y-34390829D01*
X9385250Y-34392000D01*
X9227000Y-34550250D01*
X9227000Y-35498000D01*
X9247000Y-35498000D01*
X9247000Y-35502000D01*
X9227000Y-35502000D01*
X9227000Y-36449750D01*
X9385250Y-36608000D01*
X9675000Y-36611063D01*
X9799090Y-36598841D01*
X9918411Y-36562646D01*
X10028378Y-36503867D01*
X10124764Y-36424764D01*
X10203867Y-36328378D01*
X10237022Y-36266349D01*
X10318158Y-36309717D01*
X10431808Y-36344192D01*
X10550000Y-36355833D01*
X11000000Y-36355833D01*
X11118192Y-36344192D01*
X11231842Y-36309717D01*
X11336583Y-36253732D01*
X11428389Y-36178389D01*
X11493334Y-36099253D01*
X11564289Y-36185711D01*
X11652306Y-36257945D01*
X11752725Y-36311620D01*
X11861685Y-36344672D01*
X11975000Y-36355833D01*
X12340519Y-36355833D01*
X12238269Y-36479987D01*
X12130913Y-36680005D01*
X12064641Y-36897124D01*
X12042000Y-37123000D01*
X12042000Y-37548000D01*
X13198000Y-37548000D01*
X13198000Y-37528000D01*
X13202000Y-37528000D01*
X13202000Y-37548000D01*
X14358000Y-37548000D01*
X14358000Y-37123000D01*
X14335359Y-36897124D01*
X14269087Y-36680005D01*
X14231728Y-36610400D01*
X14349090Y-36598841D01*
X14468411Y-36562646D01*
X14578378Y-36503867D01*
X14596001Y-36489404D01*
X14596000Y-38596000D01*
X14174620Y-38596000D01*
X14269087Y-38419995D01*
X14335359Y-38202876D01*
X14358000Y-37977000D01*
X14358000Y-37552000D01*
X13202000Y-37552000D01*
X13202000Y-37572000D01*
X13198000Y-37572000D01*
X13198000Y-37552000D01*
X12042000Y-37552000D01*
X12042000Y-37977000D01*
X12064641Y-38202876D01*
X12130913Y-38419995D01*
X12225380Y-38596000D01*
X7774620Y-38596000D01*
X7869087Y-38419995D01*
X7935359Y-38202876D01*
X7958000Y-37977000D01*
X7958000Y-37552000D01*
X6802000Y-37552000D01*
X6802000Y-37572000D01*
X6798000Y-37572000D01*
X6798000Y-37552000D01*
X5642000Y-37552000D01*
X5642000Y-37977000D01*
X5664641Y-38202876D01*
X5730913Y-38419995D01*
X5825380Y-38596000D01*
X5404000Y-38596000D01*
X5404000Y-35849835D01*
X5405808Y-35868192D01*
X5440283Y-35981842D01*
X5496268Y-36086583D01*
X5571611Y-36178389D01*
X5663417Y-36253732D01*
X5768158Y-36309717D01*
X5881808Y-36344192D01*
X5944981Y-36350414D01*
X5838269Y-36479987D01*
X5730913Y-36680005D01*
X5664641Y-36897124D01*
X5642000Y-37123000D01*
X5642000Y-37548000D01*
X6798000Y-37548000D01*
X6798000Y-37528000D01*
X6802000Y-37528000D01*
X6802000Y-37548000D01*
X7958000Y-37548000D01*
X7958000Y-37123000D01*
X7935359Y-36897124D01*
X7869087Y-36680005D01*
X7777002Y-36508439D01*
X7777002Y-36449752D01*
X7935250Y-36608000D01*
X8225000Y-36611063D01*
X8349090Y-36598841D01*
X8468411Y-36562646D01*
X8500000Y-36545761D01*
X8531589Y-36562646D01*
X8650910Y-36598841D01*
X8775000Y-36611063D01*
X9064750Y-36608000D01*
X9223000Y-36449750D01*
X9223000Y-35502000D01*
X7777000Y-35502000D01*
X7777000Y-35522000D01*
X7773000Y-35522000D01*
X7773000Y-35502000D01*
X7753000Y-35502000D01*
X7753000Y-35498000D01*
X7773000Y-35498000D01*
X7773000Y-34550250D01*
X7777000Y-34550250D01*
X7777000Y-35498000D01*
X9223000Y-35498000D01*
X9223000Y-34550250D01*
X9064750Y-34392000D01*
X8775000Y-34388937D01*
X8650910Y-34401159D01*
X8531589Y-34437354D01*
X8500000Y-34454239D01*
X8468411Y-34437354D01*
X8349090Y-34401159D01*
X8225000Y-34388937D01*
X7935250Y-34392000D01*
X7777000Y-34550250D01*
X7773000Y-34550250D01*
X7614750Y-34392000D01*
X7325000Y-34388937D01*
X7200910Y-34401159D01*
X7081589Y-34437354D01*
X6971622Y-34496133D01*
X6875236Y-34575236D01*
X6804000Y-34662036D01*
X6804000Y-34434831D01*
X6809308Y-34429523D01*
X6831397Y-34411395D01*
X6849525Y-34389306D01*
X8344167Y-32894665D01*
X8344167Y-33630000D01*
G37*
G04 #@! TD.AperFunction*
D21*
X19596000Y-34096000D02*
X15019840Y-34096000D01*
X15000000Y-34094046D01*
X14980160Y-34096000D01*
X14920802Y-34101846D01*
X14844648Y-34124947D01*
X14774464Y-34162462D01*
X14712947Y-34212947D01*
X14662462Y-34274464D01*
X14624947Y-34344648D01*
X14601846Y-34420802D01*
X14594046Y-34500000D01*
X14595009Y-34509782D01*
X14578378Y-34496133D01*
X14468411Y-34437354D01*
X14349090Y-34401159D01*
X14225000Y-34388937D01*
X13985250Y-34392000D01*
X13827000Y-34550250D01*
X13827000Y-35498000D01*
X13847000Y-35498000D01*
X13847000Y-35502000D01*
X13827000Y-35502000D01*
X13827000Y-35522000D01*
X13823000Y-35522000D01*
X13823000Y-35502000D01*
X13803000Y-35502000D01*
X13803000Y-35498000D01*
X13823000Y-35498000D01*
X13823000Y-34550250D01*
X13664750Y-34392000D01*
X13425000Y-34388937D01*
X13300910Y-34401159D01*
X13181589Y-34437354D01*
X13071622Y-34496133D01*
X12975236Y-34575236D01*
X12896133Y-34671622D01*
X12837354Y-34781589D01*
X12816175Y-34851409D01*
X12785711Y-34814289D01*
X12697694Y-34742055D01*
X12597275Y-34688380D01*
X12488315Y-34655328D01*
X12375000Y-34644167D01*
X12031930Y-34644167D01*
X11454000Y-34066237D01*
X11454000Y-33964065D01*
X11486579Y-33946651D01*
X11544290Y-33899290D01*
X11591651Y-33841579D01*
X11626844Y-33775738D01*
X11648515Y-33704297D01*
X11655833Y-33630000D01*
X11655833Y-32868596D01*
X11951110Y-33163873D01*
X11966894Y-33183106D01*
X12043638Y-33246088D01*
X12131195Y-33292888D01*
X12226199Y-33321707D01*
X12228274Y-33321911D01*
X12242055Y-33347694D01*
X12314289Y-33435711D01*
X12402306Y-33507945D01*
X12502725Y-33561620D01*
X12611685Y-33594672D01*
X12725000Y-33605833D01*
X13275000Y-33605833D01*
X13388315Y-33594672D01*
X13497275Y-33561620D01*
X13597694Y-33507945D01*
X13685711Y-33435711D01*
X13719167Y-33394945D01*
X13719167Y-33440000D01*
X13726485Y-33514297D01*
X13748156Y-33585738D01*
X13783349Y-33651579D01*
X13830710Y-33709290D01*
X13888421Y-33756651D01*
X13954262Y-33791844D01*
X14025703Y-33813515D01*
X14100000Y-33820833D01*
X15900000Y-33820833D01*
X15974297Y-33813515D01*
X16045738Y-33791844D01*
X16111579Y-33756651D01*
X16169290Y-33709290D01*
X16216651Y-33651579D01*
X16251844Y-33585738D01*
X16273515Y-33514297D01*
X16280833Y-33440000D01*
X16280833Y-33394945D01*
X16314289Y-33435711D01*
X16402306Y-33507945D01*
X16502725Y-33561620D01*
X16611685Y-33594672D01*
X16725000Y-33605833D01*
X17275000Y-33605833D01*
X17388315Y-33594672D01*
X17497275Y-33561620D01*
X17597694Y-33507945D01*
X17685711Y-33435711D01*
X17757945Y-33347694D01*
X17811620Y-33247275D01*
X17844672Y-33138315D01*
X17855833Y-33025000D01*
X17855833Y-32756931D01*
X18052817Y-32559947D01*
X18068888Y-32556750D01*
X18174260Y-32513104D01*
X18269091Y-32449739D01*
X18349739Y-32369091D01*
X18413104Y-32274260D01*
X18456750Y-32168888D01*
X18479000Y-32057027D01*
X18479000Y-31942973D01*
X18456750Y-31831112D01*
X18413104Y-31725740D01*
X18349739Y-31630909D01*
X18269091Y-31550261D01*
X18199858Y-31504000D01*
X18712115Y-31504000D01*
X18725740Y-31513104D01*
X18831112Y-31556750D01*
X18942973Y-31579000D01*
X19057027Y-31579000D01*
X19168888Y-31556750D01*
X19274260Y-31513104D01*
X19369091Y-31449739D01*
X19449739Y-31369091D01*
X19513104Y-31274260D01*
X19556750Y-31168888D01*
X19579000Y-31057027D01*
X19579000Y-30942973D01*
X19556750Y-30831112D01*
X19513104Y-30725740D01*
X19449739Y-30630909D01*
X19369091Y-30550261D01*
X19274260Y-30486896D01*
X19168888Y-30443250D01*
X19057027Y-30421000D01*
X18942973Y-30421000D01*
X18831112Y-30443250D01*
X18725740Y-30486896D01*
X18712115Y-30496000D01*
X18398578Y-30496000D01*
X18413104Y-30474260D01*
X18456750Y-30368888D01*
X18459947Y-30352817D01*
X18838878Y-29973886D01*
X18858106Y-29958106D01*
X18921088Y-29881362D01*
X18967888Y-29793805D01*
X18982504Y-29745621D01*
X18996707Y-29698802D01*
X19006438Y-29600001D01*
X19004000Y-29575247D01*
X19004000Y-29280833D01*
X19450000Y-29280833D01*
X19524297Y-29273515D01*
X19595738Y-29251844D01*
X19596000Y-29251704D01*
X19596000Y-34096000D01*
G04 #@! TA.AperFunction,Conductor*
D23*
G36*
X19596000Y-34096000D02*
G01*
X15019840Y-34096000D01*
X15000000Y-34094046D01*
X14980160Y-34096000D01*
X14920802Y-34101846D01*
X14844648Y-34124947D01*
X14774464Y-34162462D01*
X14712947Y-34212947D01*
X14662462Y-34274464D01*
X14624947Y-34344648D01*
X14601846Y-34420802D01*
X14594046Y-34500000D01*
X14595009Y-34509782D01*
X14578378Y-34496133D01*
X14468411Y-34437354D01*
X14349090Y-34401159D01*
X14225000Y-34388937D01*
X13985250Y-34392000D01*
X13827000Y-34550250D01*
X13827000Y-35498000D01*
X13847000Y-35498000D01*
X13847000Y-35502000D01*
X13827000Y-35502000D01*
X13827000Y-35522000D01*
X13823000Y-35522000D01*
X13823000Y-35502000D01*
X13803000Y-35502000D01*
X13803000Y-35498000D01*
X13823000Y-35498000D01*
X13823000Y-34550250D01*
X13664750Y-34392000D01*
X13425000Y-34388937D01*
X13300910Y-34401159D01*
X13181589Y-34437354D01*
X13071622Y-34496133D01*
X12975236Y-34575236D01*
X12896133Y-34671622D01*
X12837354Y-34781589D01*
X12816175Y-34851409D01*
X12785711Y-34814289D01*
X12697694Y-34742055D01*
X12597275Y-34688380D01*
X12488315Y-34655328D01*
X12375000Y-34644167D01*
X12031930Y-34644167D01*
X11454000Y-34066237D01*
X11454000Y-33964065D01*
X11486579Y-33946651D01*
X11544290Y-33899290D01*
X11591651Y-33841579D01*
X11626844Y-33775738D01*
X11648515Y-33704297D01*
X11655833Y-33630000D01*
X11655833Y-32868596D01*
X11951110Y-33163873D01*
X11966894Y-33183106D01*
X12043638Y-33246088D01*
X12131195Y-33292888D01*
X12226199Y-33321707D01*
X12228274Y-33321911D01*
X12242055Y-33347694D01*
X12314289Y-33435711D01*
X12402306Y-33507945D01*
X12502725Y-33561620D01*
X12611685Y-33594672D01*
X12725000Y-33605833D01*
X13275000Y-33605833D01*
X13388315Y-33594672D01*
X13497275Y-33561620D01*
X13597694Y-33507945D01*
X13685711Y-33435711D01*
X13719167Y-33394945D01*
X13719167Y-33440000D01*
X13726485Y-33514297D01*
X13748156Y-33585738D01*
X13783349Y-33651579D01*
X13830710Y-33709290D01*
X13888421Y-33756651D01*
X13954262Y-33791844D01*
X14025703Y-33813515D01*
X14100000Y-33820833D01*
X15900000Y-33820833D01*
X15974297Y-33813515D01*
X16045738Y-33791844D01*
X16111579Y-33756651D01*
X16169290Y-33709290D01*
X16216651Y-33651579D01*
X16251844Y-33585738D01*
X16273515Y-33514297D01*
X16280833Y-33440000D01*
X16280833Y-33394945D01*
X16314289Y-33435711D01*
X16402306Y-33507945D01*
X16502725Y-33561620D01*
X16611685Y-33594672D01*
X16725000Y-33605833D01*
X17275000Y-33605833D01*
X17388315Y-33594672D01*
X17497275Y-33561620D01*
X17597694Y-33507945D01*
X17685711Y-33435711D01*
X17757945Y-33347694D01*
X17811620Y-33247275D01*
X17844672Y-33138315D01*
X17855833Y-33025000D01*
X17855833Y-32756931D01*
X18052817Y-32559947D01*
X18068888Y-32556750D01*
X18174260Y-32513104D01*
X18269091Y-32449739D01*
X18349739Y-32369091D01*
X18413104Y-32274260D01*
X18456750Y-32168888D01*
X18479000Y-32057027D01*
X18479000Y-31942973D01*
X18456750Y-31831112D01*
X18413104Y-31725740D01*
X18349739Y-31630909D01*
X18269091Y-31550261D01*
X18199858Y-31504000D01*
X18712115Y-31504000D01*
X18725740Y-31513104D01*
X18831112Y-31556750D01*
X18942973Y-31579000D01*
X19057027Y-31579000D01*
X19168888Y-31556750D01*
X19274260Y-31513104D01*
X19369091Y-31449739D01*
X19449739Y-31369091D01*
X19513104Y-31274260D01*
X19556750Y-31168888D01*
X19579000Y-31057027D01*
X19579000Y-30942973D01*
X19556750Y-30831112D01*
X19513104Y-30725740D01*
X19449739Y-30630909D01*
X19369091Y-30550261D01*
X19274260Y-30486896D01*
X19168888Y-30443250D01*
X19057027Y-30421000D01*
X18942973Y-30421000D01*
X18831112Y-30443250D01*
X18725740Y-30486896D01*
X18712115Y-30496000D01*
X18398578Y-30496000D01*
X18413104Y-30474260D01*
X18456750Y-30368888D01*
X18459947Y-30352817D01*
X18838878Y-29973886D01*
X18858106Y-29958106D01*
X18921088Y-29881362D01*
X18967888Y-29793805D01*
X18982504Y-29745621D01*
X18996707Y-29698802D01*
X19006438Y-29600001D01*
X19004000Y-29575247D01*
X19004000Y-29280833D01*
X19450000Y-29280833D01*
X19524297Y-29273515D01*
X19595738Y-29251844D01*
X19596000Y-29251704D01*
X19596000Y-34096000D01*
G37*
G04 #@! TD.AperFunction*
D21*
X11240236Y-6200236D02*
X11161133Y-6296622D01*
X11102354Y-6406589D01*
X11066159Y-6525910D01*
X11053937Y-6650000D01*
X11054899Y-6866626D01*
X10954627Y-6716558D01*
X10783442Y-6545373D01*
X10582150Y-6410874D01*
X10358486Y-6318229D01*
X10121046Y-6271000D01*
X9878954Y-6271000D01*
X9641514Y-6318229D01*
X9417850Y-6410874D01*
X9216558Y-6545373D01*
X9045373Y-6716558D01*
X8910874Y-6917850D01*
X8818229Y-7141514D01*
X8771000Y-7378954D01*
X8771000Y-7621046D01*
X8771566Y-7623892D01*
X8757027Y-7621000D01*
X8689000Y-7621000D01*
X8689000Y-7378954D01*
X8641771Y-7141514D01*
X8549126Y-6917850D01*
X8414627Y-6716558D01*
X8243442Y-6545373D01*
X8042150Y-6410874D01*
X7818486Y-6318229D01*
X7581046Y-6271000D01*
X7338954Y-6271000D01*
X7101514Y-6318229D01*
X6877850Y-6410874D01*
X6676558Y-6545373D01*
X6505373Y-6716558D01*
X6370874Y-6917850D01*
X6338503Y-6996000D01*
X6287885Y-6996000D01*
X6274260Y-6986896D01*
X6168888Y-6943250D01*
X6057027Y-6921000D01*
X5942973Y-6921000D01*
X5831112Y-6943250D01*
X5725740Y-6986896D01*
X5630909Y-7050261D01*
X5550261Y-7130909D01*
X5486896Y-7225740D01*
X5443250Y-7331112D01*
X5421000Y-7442973D01*
X5421000Y-7557027D01*
X5443250Y-7668888D01*
X5486896Y-7774260D01*
X5550261Y-7869091D01*
X5630909Y-7949739D01*
X5725740Y-8013104D01*
X5831112Y-8056750D01*
X5942973Y-8079000D01*
X6057027Y-8079000D01*
X6168888Y-8056750D01*
X6274260Y-8013104D01*
X6287885Y-8004000D01*
X6338503Y-8004000D01*
X6370874Y-8082150D01*
X6505373Y-8283442D01*
X6676558Y-8454627D01*
X6877850Y-8589126D01*
X7101514Y-8681771D01*
X7338954Y-8729000D01*
X7581046Y-8729000D01*
X7818486Y-8681771D01*
X8042150Y-8589126D01*
X8195280Y-8486808D01*
X8250261Y-8569091D01*
X8330909Y-8649739D01*
X8425740Y-8713104D01*
X8531112Y-8756750D01*
X8642973Y-8779000D01*
X8757027Y-8779000D01*
X8868888Y-8756750D01*
X8974260Y-8713104D01*
X8987885Y-8704000D01*
X9275246Y-8704000D01*
X9300000Y-8706438D01*
X9365367Y-8700000D01*
X9398801Y-8696707D01*
X9493805Y-8667888D01*
X9543662Y-8641239D01*
X9641514Y-8681771D01*
X9878954Y-8729000D01*
X10121046Y-8729000D01*
X10358486Y-8681771D01*
X10582150Y-8589126D01*
X10783442Y-8454627D01*
X10954627Y-8283442D01*
X11054899Y-8133374D01*
X11053937Y-8350000D01*
X11066159Y-8474090D01*
X11102354Y-8593411D01*
X11161133Y-8703378D01*
X11240236Y-8799764D01*
X11336622Y-8878867D01*
X11446589Y-8937646D01*
X11565910Y-8973841D01*
X11690000Y-8986063D01*
X12379750Y-8983000D01*
X12538000Y-8824750D01*
X12538000Y-7502000D01*
X12518000Y-7502000D01*
X12518000Y-7498000D01*
X12538000Y-7498000D01*
X12538000Y-7478000D01*
X12542000Y-7478000D01*
X12542000Y-7498000D01*
X12562000Y-7498000D01*
X12562000Y-7502000D01*
X12542000Y-7502000D01*
X12542000Y-8824750D01*
X12700250Y-8983000D01*
X13390000Y-8986063D01*
X13421001Y-8983010D01*
X13421002Y-10018533D01*
X13358106Y-9941894D01*
X13338878Y-9926114D01*
X12673890Y-9261127D01*
X12658106Y-9241894D01*
X12581362Y-9178912D01*
X12493805Y-9132112D01*
X12398801Y-9103293D01*
X12324754Y-9096000D01*
X12300000Y-9093562D01*
X12275246Y-9096000D01*
X6608764Y-9096000D01*
X5873890Y-8361127D01*
X5858106Y-8341894D01*
X5781362Y-8278912D01*
X5693805Y-8232112D01*
X5598801Y-8203293D01*
X5524754Y-8196000D01*
X5500000Y-8193562D01*
X5475246Y-8196000D01*
X2387885Y-8196000D01*
X2374260Y-8186896D01*
X2268888Y-8143250D01*
X2157027Y-8121000D01*
X2042973Y-8121000D01*
X1931112Y-8143250D01*
X1825740Y-8186896D01*
X1730909Y-8250261D01*
X1650261Y-8330909D01*
X1586896Y-8425740D01*
X1543250Y-8531112D01*
X1521000Y-8642973D01*
X1521000Y-8757027D01*
X1543250Y-8868888D01*
X1586896Y-8974260D01*
X1650261Y-9069091D01*
X1730909Y-9149739D01*
X1825740Y-9213104D01*
X1931112Y-9256750D01*
X2042973Y-9279000D01*
X2141409Y-9279000D01*
X2142000Y-9339750D01*
X2300250Y-9498000D01*
X3223000Y-9498000D01*
X3223000Y-9478000D01*
X3227000Y-9478000D01*
X3227000Y-9498000D01*
X3247000Y-9498000D01*
X3247000Y-9502000D01*
X3227000Y-9502000D01*
X3227000Y-9522000D01*
X3223000Y-9522000D01*
X3223000Y-9502000D01*
X2300250Y-9502000D01*
X2142000Y-9660250D01*
X2138937Y-9975000D01*
X2151159Y-10099090D01*
X2187354Y-10218411D01*
X2246133Y-10328378D01*
X2325236Y-10424764D01*
X2421622Y-10503867D01*
X2531589Y-10562646D01*
X2627931Y-10591870D01*
X2643250Y-10668888D01*
X2669704Y-10732755D01*
X2652306Y-10742055D01*
X2564289Y-10814289D01*
X2492055Y-10902306D01*
X2438380Y-11002725D01*
X2405328Y-11111685D01*
X2394167Y-11225000D01*
X2394167Y-11775000D01*
X2405328Y-11888315D01*
X2438380Y-11997275D01*
X2492055Y-12097694D01*
X2564289Y-12185711D01*
X2596000Y-12211736D01*
X2596000Y-12288264D01*
X2564289Y-12314289D01*
X2492055Y-12402306D01*
X2438380Y-12502725D01*
X2405328Y-12611685D01*
X2394167Y-12725000D01*
X2394167Y-13275000D01*
X2405328Y-13388315D01*
X2438380Y-13497275D01*
X2492055Y-13597694D01*
X2564289Y-13685711D01*
X2652306Y-13757945D01*
X2752725Y-13811620D01*
X2861685Y-13844672D01*
X2975000Y-13855833D01*
X3375000Y-13855833D01*
X3488315Y-13844672D01*
X3597275Y-13811620D01*
X3697694Y-13757945D01*
X3785711Y-13685711D01*
X3857945Y-13597694D01*
X3911620Y-13497275D01*
X3913372Y-13491499D01*
X3930912Y-13486179D01*
X3958953Y-13480601D01*
X3985370Y-13469659D01*
X4012711Y-13461365D01*
X4037906Y-13447898D01*
X4064325Y-13436955D01*
X4069112Y-13433756D01*
X4088380Y-13497275D01*
X4121650Y-13559520D01*
X4050261Y-13630909D01*
X3986896Y-13725740D01*
X3943250Y-13831112D01*
X3921000Y-13942973D01*
X3921000Y-14057027D01*
X3943250Y-14168888D01*
X3986896Y-14274260D01*
X4050261Y-14369091D01*
X4121650Y-14440480D01*
X4110874Y-14460641D01*
X4068888Y-14443250D01*
X3957027Y-14421000D01*
X3867937Y-14421000D01*
X3857945Y-14402306D01*
X3785711Y-14314289D01*
X3697694Y-14242055D01*
X3597275Y-14188380D01*
X3488315Y-14155328D01*
X3375000Y-14144167D01*
X2975000Y-14144167D01*
X2861685Y-14155328D01*
X2752725Y-14188380D01*
X2652306Y-14242055D01*
X2564289Y-14314289D01*
X2492055Y-14402306D01*
X2438380Y-14502725D01*
X2405328Y-14611685D01*
X2394167Y-14725000D01*
X2394167Y-15275000D01*
X2405328Y-15388315D01*
X2438380Y-15497275D01*
X2492055Y-15597694D01*
X2564289Y-15685711D01*
X2642625Y-15750000D01*
X2564289Y-15814289D01*
X2492055Y-15902306D01*
X2438380Y-16002725D01*
X2405328Y-16111685D01*
X2394167Y-16225000D01*
X2394167Y-16775000D01*
X2405328Y-16888315D01*
X2438380Y-16997275D01*
X2492055Y-17097694D01*
X2536372Y-17151695D01*
X2486896Y-17225740D01*
X2443250Y-17331112D01*
X2421000Y-17442973D01*
X2421000Y-17557027D01*
X2421360Y-17558835D01*
X2405328Y-17611685D01*
X2394167Y-17725000D01*
X2394167Y-18275000D01*
X2405328Y-18388315D01*
X2438380Y-18497275D01*
X2492055Y-18597694D01*
X2560502Y-18681096D01*
X2504262Y-18698156D01*
X2438421Y-18733349D01*
X2380710Y-18780710D01*
X2333349Y-18838421D01*
X2298156Y-18904262D01*
X2276485Y-18975703D01*
X2269167Y-19050000D01*
X2269167Y-19950000D01*
X2276485Y-20024297D01*
X2298156Y-20095738D01*
X2333349Y-20161579D01*
X2380710Y-20219290D01*
X2438421Y-20266651D01*
X2504262Y-20301844D01*
X2575703Y-20323515D01*
X2650000Y-20330833D01*
X3062004Y-20330833D01*
X3438012Y-20706842D01*
X3388421Y-20733349D01*
X3330710Y-20780710D01*
X3283349Y-20838421D01*
X3248156Y-20904262D01*
X3226485Y-20975703D01*
X3224486Y-20996000D01*
X3024754Y-20996000D01*
X3000000Y-20993562D01*
X2975246Y-20996000D01*
X2901199Y-21003293D01*
X2806195Y-21032112D01*
X2718638Y-21078912D01*
X2641894Y-21141894D01*
X2626110Y-21161127D01*
X1661123Y-22126114D01*
X1641895Y-22141894D01*
X1626115Y-22161122D01*
X1578913Y-22218638D01*
X1532113Y-22306195D01*
X1503293Y-22401199D01*
X1493562Y-22500000D01*
X1496001Y-22524764D01*
X1496000Y-25650246D01*
X1493562Y-25675000D01*
X1496000Y-25699753D01*
X1503293Y-25773800D01*
X1532112Y-25868804D01*
X1578912Y-25956362D01*
X1641894Y-26033106D01*
X1644167Y-26034971D01*
X1644167Y-26375000D01*
X1655328Y-26488315D01*
X1688380Y-26597275D01*
X1742055Y-26697694D01*
X1814289Y-26785711D01*
X1902306Y-26857945D01*
X2002725Y-26911620D01*
X2111685Y-26944672D01*
X2225000Y-26955833D01*
X2775000Y-26955833D01*
X2888315Y-26944672D01*
X2997275Y-26911620D01*
X3097694Y-26857945D01*
X3185711Y-26785711D01*
X3257945Y-26697694D01*
X3267937Y-26679000D01*
X3983606Y-26679000D01*
X3866564Y-26854166D01*
X3770151Y-27086929D01*
X3723592Y-27321000D01*
X3267937Y-27321000D01*
X3257945Y-27302306D01*
X3185711Y-27214289D01*
X3097694Y-27142055D01*
X2997275Y-27088380D01*
X2888315Y-27055328D01*
X2775000Y-27044167D01*
X2225000Y-27044167D01*
X2111685Y-27055328D01*
X2002725Y-27088380D01*
X1902306Y-27142055D01*
X1814289Y-27214289D01*
X1742055Y-27302306D01*
X1688380Y-27402725D01*
X1655328Y-27511685D01*
X1644167Y-27625000D01*
X1644167Y-28025000D01*
X1655328Y-28138315D01*
X1688380Y-28247275D01*
X1742055Y-28347694D01*
X1814289Y-28435711D01*
X1902306Y-28507945D01*
X2002725Y-28561620D01*
X2111685Y-28594672D01*
X2225000Y-28605833D01*
X2775000Y-28605833D01*
X2888315Y-28594672D01*
X2997275Y-28561620D01*
X3097694Y-28507945D01*
X3185711Y-28435711D01*
X3257945Y-28347694D01*
X3267937Y-28329000D01*
X4060220Y-28329000D01*
X4184685Y-28453465D01*
X4391135Y-28591411D01*
X4193429Y-28687623D01*
X4096184Y-28752601D01*
X4024075Y-29021246D01*
X5000000Y-29997172D01*
X5975925Y-29021246D01*
X5903816Y-28752601D01*
X5643095Y-28600243D01*
X5611813Y-28589441D01*
X5815315Y-28453465D01*
X5993465Y-28275315D01*
X6133436Y-28065834D01*
X6229849Y-27833071D01*
X6279000Y-27585971D01*
X6279000Y-27535165D01*
X6331112Y-27556750D01*
X6442973Y-27579000D01*
X6557027Y-27579000D01*
X6668888Y-27556750D01*
X6774260Y-27513104D01*
X6796000Y-27498577D01*
X6796000Y-28512115D01*
X6786896Y-28525740D01*
X6743250Y-28631112D01*
X6721000Y-28742973D01*
X6721000Y-28857027D01*
X6743250Y-28968888D01*
X6786896Y-29074260D01*
X6850261Y-29169091D01*
X6930909Y-29249739D01*
X7025740Y-29313104D01*
X7131112Y-29356750D01*
X7242973Y-29379000D01*
X7357027Y-29379000D01*
X7468888Y-29356750D01*
X7574260Y-29313104D01*
X7669091Y-29249739D01*
X7749739Y-29169091D01*
X7813104Y-29074260D01*
X7856750Y-28968888D01*
X7879000Y-28857027D01*
X7879000Y-28742973D01*
X7856750Y-28631112D01*
X7813104Y-28525740D01*
X7804000Y-28512115D01*
X7804000Y-23324750D01*
X7806438Y-23299999D01*
X7798819Y-23222645D01*
X7796707Y-23201199D01*
X7767888Y-23106195D01*
X7721088Y-23018638D01*
X7658106Y-22941894D01*
X7638878Y-22926114D01*
X7502002Y-22789238D01*
X7502002Y-22699752D01*
X7660250Y-22858000D01*
X7975000Y-22861063D01*
X8099090Y-22848841D01*
X8218411Y-22812646D01*
X8328378Y-22753867D01*
X8424764Y-22674764D01*
X8503867Y-22578378D01*
X8562646Y-22468411D01*
X8598841Y-22349090D01*
X8611063Y-22225000D01*
X8608000Y-21935250D01*
X8449750Y-21777000D01*
X7502000Y-21777000D01*
X7502000Y-21797000D01*
X7498000Y-21797000D01*
X7498000Y-21777000D01*
X7478000Y-21777000D01*
X7478000Y-21773000D01*
X7498000Y-21773000D01*
X7498000Y-21753000D01*
X7502000Y-21753000D01*
X7502000Y-21773000D01*
X8449750Y-21773000D01*
X8608000Y-21614750D01*
X8611063Y-21325000D01*
X8598841Y-21200910D01*
X8562646Y-21081589D01*
X8503867Y-20971622D01*
X8424764Y-20875236D01*
X8328378Y-20796133D01*
X8277616Y-20769000D01*
X8844167Y-20769000D01*
X8844167Y-20800000D01*
X8851485Y-20874297D01*
X8873156Y-20945738D01*
X8908349Y-21011579D01*
X8955710Y-21069290D01*
X8971364Y-21082137D01*
X8979378Y-21163503D01*
X9012486Y-21272645D01*
X9066250Y-21373231D01*
X9098467Y-21412487D01*
X9138605Y-21461395D01*
X9160694Y-21479523D01*
X9500337Y-21819167D01*
X9225000Y-21819167D01*
X9150703Y-21826485D01*
X9079262Y-21848156D01*
X9013421Y-21883349D01*
X8955710Y-21930710D01*
X8908349Y-21988421D01*
X8873156Y-22054262D01*
X8851485Y-22125703D01*
X8844167Y-22200000D01*
X8844167Y-23420000D01*
X8851485Y-23494297D01*
X8873156Y-23565738D01*
X8908349Y-23631579D01*
X8955710Y-23689290D01*
X8971000Y-23701838D01*
X8971001Y-24921552D01*
X8971000Y-24921562D01*
X8971001Y-26021552D01*
X8971000Y-26021562D01*
X8971001Y-26620622D01*
X8971001Y-26986425D01*
X8962486Y-27002355D01*
X8929379Y-27111496D01*
X8918200Y-27225000D01*
X8929379Y-27338504D01*
X8962486Y-27447645D01*
X8971000Y-27463574D01*
X8971000Y-27710171D01*
X8835691Y-27845480D01*
X8813606Y-27863605D01*
X8795482Y-27885689D01*
X8795476Y-27885695D01*
X8741250Y-27951769D01*
X8717537Y-27996133D01*
X8687486Y-28052354D01*
X8654378Y-28161496D01*
X8646000Y-28246561D01*
X8646000Y-28246571D01*
X8644501Y-28261792D01*
X8571611Y-28321611D01*
X8496268Y-28413417D01*
X8440283Y-28518158D01*
X8405808Y-28631808D01*
X8394167Y-28750000D01*
X8394167Y-29250000D01*
X8405808Y-29368192D01*
X8440283Y-29481842D01*
X8471001Y-29539311D01*
X8471000Y-30088162D01*
X8455710Y-30100710D01*
X8408349Y-30158421D01*
X8373156Y-30224262D01*
X8351485Y-30295703D01*
X8344167Y-30370000D01*
X8344167Y-31257006D01*
X8070700Y-31530473D01*
X8070695Y-31530477D01*
X6280833Y-33320340D01*
X6280833Y-31640000D01*
X6273515Y-31565703D01*
X6251844Y-31494262D01*
X6216651Y-31428421D01*
X6169290Y-31370710D01*
X6111579Y-31323349D01*
X6045738Y-31288156D01*
X5974297Y-31266485D01*
X5900000Y-31259167D01*
X5886204Y-31259167D01*
X5903816Y-31247399D01*
X5975925Y-30978754D01*
X5000000Y-30002828D01*
X4024075Y-30978754D01*
X4096184Y-31247399D01*
X4116322Y-31259167D01*
X4100000Y-31259167D01*
X4025703Y-31266485D01*
X3954262Y-31288156D01*
X3888421Y-31323349D01*
X3830710Y-31370710D01*
X3783349Y-31428421D01*
X3748156Y-31494262D01*
X3726485Y-31565703D01*
X3719167Y-31640000D01*
X3719167Y-33400338D01*
X3130833Y-32812004D01*
X3130833Y-31756335D01*
X3199764Y-31699764D01*
X3278867Y-31603378D01*
X3337646Y-31493411D01*
X3373841Y-31374090D01*
X3386063Y-31250000D01*
X3383000Y-30660250D01*
X3224750Y-30502000D01*
X2002000Y-30502000D01*
X2002000Y-30522000D01*
X1998000Y-30522000D01*
X1998000Y-30502000D01*
X775250Y-30502000D01*
X617000Y-30660250D01*
X613937Y-31250000D01*
X626159Y-31374090D01*
X662354Y-31493411D01*
X721133Y-31603378D01*
X800236Y-31699764D01*
X869167Y-31756335D01*
X869167Y-33250000D01*
X876485Y-33324297D01*
X898156Y-33395738D01*
X933349Y-33461579D01*
X980710Y-33519290D01*
X1038421Y-33566651D01*
X1104262Y-33601844D01*
X1175703Y-33623515D01*
X1250000Y-33630833D01*
X2312004Y-33630833D01*
X2777171Y-34096000D01*
X404000Y-34096000D01*
X404000Y-29750000D01*
X613937Y-29750000D01*
X617000Y-30339750D01*
X775250Y-30498000D01*
X1998000Y-30498000D01*
X1998000Y-29275250D01*
X2002000Y-29275250D01*
X2002000Y-30498000D01*
X3224750Y-30498000D01*
X3383000Y-30339750D01*
X3385068Y-29941522D01*
X3460691Y-29941522D01*
X3478861Y-30242949D01*
X3555485Y-30535041D01*
X3687623Y-30806571D01*
X3752601Y-30903816D01*
X4021246Y-30975925D01*
X4997172Y-30000000D01*
X5002828Y-30000000D01*
X5978754Y-30975925D01*
X6247399Y-30903816D01*
X6399757Y-30643095D01*
X6498322Y-30357659D01*
X6539309Y-30058478D01*
X6521139Y-29757051D01*
X6444515Y-29464959D01*
X6312377Y-29193429D01*
X6247399Y-29096184D01*
X5978754Y-29024075D01*
X5002828Y-30000000D01*
X4997172Y-30000000D01*
X4021246Y-29024075D01*
X3752601Y-29096184D01*
X3600243Y-29356905D01*
X3501678Y-29642341D01*
X3460691Y-29941522D01*
X3385068Y-29941522D01*
X3386063Y-29750000D01*
X3373841Y-29625910D01*
X3337646Y-29506589D01*
X3278867Y-29396622D01*
X3199764Y-29300236D01*
X3103378Y-29221133D01*
X2993411Y-29162354D01*
X2874090Y-29126159D01*
X2750000Y-29113937D01*
X2160250Y-29117000D01*
X2002000Y-29275250D01*
X1998000Y-29275250D01*
X1839750Y-29117000D01*
X1250000Y-29113937D01*
X1125910Y-29126159D01*
X1006589Y-29162354D01*
X896622Y-29221133D01*
X800236Y-29300236D01*
X721133Y-29396622D01*
X662354Y-29506589D01*
X626159Y-29625910D01*
X613937Y-29750000D01*
X404000Y-29750000D01*
X404000Y-6125000D01*
X11331910Y-6125000D01*
X11240236Y-6200236D01*
G04 #@! TA.AperFunction,Conductor*
D23*
G36*
X11240236Y-6200236D02*
G01*
X11161133Y-6296622D01*
X11102354Y-6406589D01*
X11066159Y-6525910D01*
X11053937Y-6650000D01*
X11054899Y-6866626D01*
X10954627Y-6716558D01*
X10783442Y-6545373D01*
X10582150Y-6410874D01*
X10358486Y-6318229D01*
X10121046Y-6271000D01*
X9878954Y-6271000D01*
X9641514Y-6318229D01*
X9417850Y-6410874D01*
X9216558Y-6545373D01*
X9045373Y-6716558D01*
X8910874Y-6917850D01*
X8818229Y-7141514D01*
X8771000Y-7378954D01*
X8771000Y-7621046D01*
X8771566Y-7623892D01*
X8757027Y-7621000D01*
X8689000Y-7621000D01*
X8689000Y-7378954D01*
X8641771Y-7141514D01*
X8549126Y-6917850D01*
X8414627Y-6716558D01*
X8243442Y-6545373D01*
X8042150Y-6410874D01*
X7818486Y-6318229D01*
X7581046Y-6271000D01*
X7338954Y-6271000D01*
X7101514Y-6318229D01*
X6877850Y-6410874D01*
X6676558Y-6545373D01*
X6505373Y-6716558D01*
X6370874Y-6917850D01*
X6338503Y-6996000D01*
X6287885Y-6996000D01*
X6274260Y-6986896D01*
X6168888Y-6943250D01*
X6057027Y-6921000D01*
X5942973Y-6921000D01*
X5831112Y-6943250D01*
X5725740Y-6986896D01*
X5630909Y-7050261D01*
X5550261Y-7130909D01*
X5486896Y-7225740D01*
X5443250Y-7331112D01*
X5421000Y-7442973D01*
X5421000Y-7557027D01*
X5443250Y-7668888D01*
X5486896Y-7774260D01*
X5550261Y-7869091D01*
X5630909Y-7949739D01*
X5725740Y-8013104D01*
X5831112Y-8056750D01*
X5942973Y-8079000D01*
X6057027Y-8079000D01*
X6168888Y-8056750D01*
X6274260Y-8013104D01*
X6287885Y-8004000D01*
X6338503Y-8004000D01*
X6370874Y-8082150D01*
X6505373Y-8283442D01*
X6676558Y-8454627D01*
X6877850Y-8589126D01*
X7101514Y-8681771D01*
X7338954Y-8729000D01*
X7581046Y-8729000D01*
X7818486Y-8681771D01*
X8042150Y-8589126D01*
X8195280Y-8486808D01*
X8250261Y-8569091D01*
X8330909Y-8649739D01*
X8425740Y-8713104D01*
X8531112Y-8756750D01*
X8642973Y-8779000D01*
X8757027Y-8779000D01*
X8868888Y-8756750D01*
X8974260Y-8713104D01*
X8987885Y-8704000D01*
X9275246Y-8704000D01*
X9300000Y-8706438D01*
X9365367Y-8700000D01*
X9398801Y-8696707D01*
X9493805Y-8667888D01*
X9543662Y-8641239D01*
X9641514Y-8681771D01*
X9878954Y-8729000D01*
X10121046Y-8729000D01*
X10358486Y-8681771D01*
X10582150Y-8589126D01*
X10783442Y-8454627D01*
X10954627Y-8283442D01*
X11054899Y-8133374D01*
X11053937Y-8350000D01*
X11066159Y-8474090D01*
X11102354Y-8593411D01*
X11161133Y-8703378D01*
X11240236Y-8799764D01*
X11336622Y-8878867D01*
X11446589Y-8937646D01*
X11565910Y-8973841D01*
X11690000Y-8986063D01*
X12379750Y-8983000D01*
X12538000Y-8824750D01*
X12538000Y-7502000D01*
X12518000Y-7502000D01*
X12518000Y-7498000D01*
X12538000Y-7498000D01*
X12538000Y-7478000D01*
X12542000Y-7478000D01*
X12542000Y-7498000D01*
X12562000Y-7498000D01*
X12562000Y-7502000D01*
X12542000Y-7502000D01*
X12542000Y-8824750D01*
X12700250Y-8983000D01*
X13390000Y-8986063D01*
X13421001Y-8983010D01*
X13421002Y-10018533D01*
X13358106Y-9941894D01*
X13338878Y-9926114D01*
X12673890Y-9261127D01*
X12658106Y-9241894D01*
X12581362Y-9178912D01*
X12493805Y-9132112D01*
X12398801Y-9103293D01*
X12324754Y-9096000D01*
X12300000Y-9093562D01*
X12275246Y-9096000D01*
X6608764Y-9096000D01*
X5873890Y-8361127D01*
X5858106Y-8341894D01*
X5781362Y-8278912D01*
X5693805Y-8232112D01*
X5598801Y-8203293D01*
X5524754Y-8196000D01*
X5500000Y-8193562D01*
X5475246Y-8196000D01*
X2387885Y-8196000D01*
X2374260Y-8186896D01*
X2268888Y-8143250D01*
X2157027Y-8121000D01*
X2042973Y-8121000D01*
X1931112Y-8143250D01*
X1825740Y-8186896D01*
X1730909Y-8250261D01*
X1650261Y-8330909D01*
X1586896Y-8425740D01*
X1543250Y-8531112D01*
X1521000Y-8642973D01*
X1521000Y-8757027D01*
X1543250Y-8868888D01*
X1586896Y-8974260D01*
X1650261Y-9069091D01*
X1730909Y-9149739D01*
X1825740Y-9213104D01*
X1931112Y-9256750D01*
X2042973Y-9279000D01*
X2141409Y-9279000D01*
X2142000Y-9339750D01*
X2300250Y-9498000D01*
X3223000Y-9498000D01*
X3223000Y-9478000D01*
X3227000Y-9478000D01*
X3227000Y-9498000D01*
X3247000Y-9498000D01*
X3247000Y-9502000D01*
X3227000Y-9502000D01*
X3227000Y-9522000D01*
X3223000Y-9522000D01*
X3223000Y-9502000D01*
X2300250Y-9502000D01*
X2142000Y-9660250D01*
X2138937Y-9975000D01*
X2151159Y-10099090D01*
X2187354Y-10218411D01*
X2246133Y-10328378D01*
X2325236Y-10424764D01*
X2421622Y-10503867D01*
X2531589Y-10562646D01*
X2627931Y-10591870D01*
X2643250Y-10668888D01*
X2669704Y-10732755D01*
X2652306Y-10742055D01*
X2564289Y-10814289D01*
X2492055Y-10902306D01*
X2438380Y-11002725D01*
X2405328Y-11111685D01*
X2394167Y-11225000D01*
X2394167Y-11775000D01*
X2405328Y-11888315D01*
X2438380Y-11997275D01*
X2492055Y-12097694D01*
X2564289Y-12185711D01*
X2596000Y-12211736D01*
X2596000Y-12288264D01*
X2564289Y-12314289D01*
X2492055Y-12402306D01*
X2438380Y-12502725D01*
X2405328Y-12611685D01*
X2394167Y-12725000D01*
X2394167Y-13275000D01*
X2405328Y-13388315D01*
X2438380Y-13497275D01*
X2492055Y-13597694D01*
X2564289Y-13685711D01*
X2652306Y-13757945D01*
X2752725Y-13811620D01*
X2861685Y-13844672D01*
X2975000Y-13855833D01*
X3375000Y-13855833D01*
X3488315Y-13844672D01*
X3597275Y-13811620D01*
X3697694Y-13757945D01*
X3785711Y-13685711D01*
X3857945Y-13597694D01*
X3911620Y-13497275D01*
X3913372Y-13491499D01*
X3930912Y-13486179D01*
X3958953Y-13480601D01*
X3985370Y-13469659D01*
X4012711Y-13461365D01*
X4037906Y-13447898D01*
X4064325Y-13436955D01*
X4069112Y-13433756D01*
X4088380Y-13497275D01*
X4121650Y-13559520D01*
X4050261Y-13630909D01*
X3986896Y-13725740D01*
X3943250Y-13831112D01*
X3921000Y-13942973D01*
X3921000Y-14057027D01*
X3943250Y-14168888D01*
X3986896Y-14274260D01*
X4050261Y-14369091D01*
X4121650Y-14440480D01*
X4110874Y-14460641D01*
X4068888Y-14443250D01*
X3957027Y-14421000D01*
X3867937Y-14421000D01*
X3857945Y-14402306D01*
X3785711Y-14314289D01*
X3697694Y-14242055D01*
X3597275Y-14188380D01*
X3488315Y-14155328D01*
X3375000Y-14144167D01*
X2975000Y-14144167D01*
X2861685Y-14155328D01*
X2752725Y-14188380D01*
X2652306Y-14242055D01*
X2564289Y-14314289D01*
X2492055Y-14402306D01*
X2438380Y-14502725D01*
X2405328Y-14611685D01*
X2394167Y-14725000D01*
X2394167Y-15275000D01*
X2405328Y-15388315D01*
X2438380Y-15497275D01*
X2492055Y-15597694D01*
X2564289Y-15685711D01*
X2642625Y-15750000D01*
X2564289Y-15814289D01*
X2492055Y-15902306D01*
X2438380Y-16002725D01*
X2405328Y-16111685D01*
X2394167Y-16225000D01*
X2394167Y-16775000D01*
X2405328Y-16888315D01*
X2438380Y-16997275D01*
X2492055Y-17097694D01*
X2536372Y-17151695D01*
X2486896Y-17225740D01*
X2443250Y-17331112D01*
X2421000Y-17442973D01*
X2421000Y-17557027D01*
X2421360Y-17558835D01*
X2405328Y-17611685D01*
X2394167Y-17725000D01*
X2394167Y-18275000D01*
X2405328Y-18388315D01*
X2438380Y-18497275D01*
X2492055Y-18597694D01*
X2560502Y-18681096D01*
X2504262Y-18698156D01*
X2438421Y-18733349D01*
X2380710Y-18780710D01*
X2333349Y-18838421D01*
X2298156Y-18904262D01*
X2276485Y-18975703D01*
X2269167Y-19050000D01*
X2269167Y-19950000D01*
X2276485Y-20024297D01*
X2298156Y-20095738D01*
X2333349Y-20161579D01*
X2380710Y-20219290D01*
X2438421Y-20266651D01*
X2504262Y-20301844D01*
X2575703Y-20323515D01*
X2650000Y-20330833D01*
X3062004Y-20330833D01*
X3438012Y-20706842D01*
X3388421Y-20733349D01*
X3330710Y-20780710D01*
X3283349Y-20838421D01*
X3248156Y-20904262D01*
X3226485Y-20975703D01*
X3224486Y-20996000D01*
X3024754Y-20996000D01*
X3000000Y-20993562D01*
X2975246Y-20996000D01*
X2901199Y-21003293D01*
X2806195Y-21032112D01*
X2718638Y-21078912D01*
X2641894Y-21141894D01*
X2626110Y-21161127D01*
X1661123Y-22126114D01*
X1641895Y-22141894D01*
X1626115Y-22161122D01*
X1578913Y-22218638D01*
X1532113Y-22306195D01*
X1503293Y-22401199D01*
X1493562Y-22500000D01*
X1496001Y-22524764D01*
X1496000Y-25650246D01*
X1493562Y-25675000D01*
X1496000Y-25699753D01*
X1503293Y-25773800D01*
X1532112Y-25868804D01*
X1578912Y-25956362D01*
X1641894Y-26033106D01*
X1644167Y-26034971D01*
X1644167Y-26375000D01*
X1655328Y-26488315D01*
X1688380Y-26597275D01*
X1742055Y-26697694D01*
X1814289Y-26785711D01*
X1902306Y-26857945D01*
X2002725Y-26911620D01*
X2111685Y-26944672D01*
X2225000Y-26955833D01*
X2775000Y-26955833D01*
X2888315Y-26944672D01*
X2997275Y-26911620D01*
X3097694Y-26857945D01*
X3185711Y-26785711D01*
X3257945Y-26697694D01*
X3267937Y-26679000D01*
X3983606Y-26679000D01*
X3866564Y-26854166D01*
X3770151Y-27086929D01*
X3723592Y-27321000D01*
X3267937Y-27321000D01*
X3257945Y-27302306D01*
X3185711Y-27214289D01*
X3097694Y-27142055D01*
X2997275Y-27088380D01*
X2888315Y-27055328D01*
X2775000Y-27044167D01*
X2225000Y-27044167D01*
X2111685Y-27055328D01*
X2002725Y-27088380D01*
X1902306Y-27142055D01*
X1814289Y-27214289D01*
X1742055Y-27302306D01*
X1688380Y-27402725D01*
X1655328Y-27511685D01*
X1644167Y-27625000D01*
X1644167Y-28025000D01*
X1655328Y-28138315D01*
X1688380Y-28247275D01*
X1742055Y-28347694D01*
X1814289Y-28435711D01*
X1902306Y-28507945D01*
X2002725Y-28561620D01*
X2111685Y-28594672D01*
X2225000Y-28605833D01*
X2775000Y-28605833D01*
X2888315Y-28594672D01*
X2997275Y-28561620D01*
X3097694Y-28507945D01*
X3185711Y-28435711D01*
X3257945Y-28347694D01*
X3267937Y-28329000D01*
X4060220Y-28329000D01*
X4184685Y-28453465D01*
X4391135Y-28591411D01*
X4193429Y-28687623D01*
X4096184Y-28752601D01*
X4024075Y-29021246D01*
X5000000Y-29997172D01*
X5975925Y-29021246D01*
X5903816Y-28752601D01*
X5643095Y-28600243D01*
X5611813Y-28589441D01*
X5815315Y-28453465D01*
X5993465Y-28275315D01*
X6133436Y-28065834D01*
X6229849Y-27833071D01*
X6279000Y-27585971D01*
X6279000Y-27535165D01*
X6331112Y-27556750D01*
X6442973Y-27579000D01*
X6557027Y-27579000D01*
X6668888Y-27556750D01*
X6774260Y-27513104D01*
X6796000Y-27498577D01*
X6796000Y-28512115D01*
X6786896Y-28525740D01*
X6743250Y-28631112D01*
X6721000Y-28742973D01*
X6721000Y-28857027D01*
X6743250Y-28968888D01*
X6786896Y-29074260D01*
X6850261Y-29169091D01*
X6930909Y-29249739D01*
X7025740Y-29313104D01*
X7131112Y-29356750D01*
X7242973Y-29379000D01*
X7357027Y-29379000D01*
X7468888Y-29356750D01*
X7574260Y-29313104D01*
X7669091Y-29249739D01*
X7749739Y-29169091D01*
X7813104Y-29074260D01*
X7856750Y-28968888D01*
X7879000Y-28857027D01*
X7879000Y-28742973D01*
X7856750Y-28631112D01*
X7813104Y-28525740D01*
X7804000Y-28512115D01*
X7804000Y-23324750D01*
X7806438Y-23299999D01*
X7798819Y-23222645D01*
X7796707Y-23201199D01*
X7767888Y-23106195D01*
X7721088Y-23018638D01*
X7658106Y-22941894D01*
X7638878Y-22926114D01*
X7502002Y-22789238D01*
X7502002Y-22699752D01*
X7660250Y-22858000D01*
X7975000Y-22861063D01*
X8099090Y-22848841D01*
X8218411Y-22812646D01*
X8328378Y-22753867D01*
X8424764Y-22674764D01*
X8503867Y-22578378D01*
X8562646Y-22468411D01*
X8598841Y-22349090D01*
X8611063Y-22225000D01*
X8608000Y-21935250D01*
X8449750Y-21777000D01*
X7502000Y-21777000D01*
X7502000Y-21797000D01*
X7498000Y-21797000D01*
X7498000Y-21777000D01*
X7478000Y-21777000D01*
X7478000Y-21773000D01*
X7498000Y-21773000D01*
X7498000Y-21753000D01*
X7502000Y-21753000D01*
X7502000Y-21773000D01*
X8449750Y-21773000D01*
X8608000Y-21614750D01*
X8611063Y-21325000D01*
X8598841Y-21200910D01*
X8562646Y-21081589D01*
X8503867Y-20971622D01*
X8424764Y-20875236D01*
X8328378Y-20796133D01*
X8277616Y-20769000D01*
X8844167Y-20769000D01*
X8844167Y-20800000D01*
X8851485Y-20874297D01*
X8873156Y-20945738D01*
X8908349Y-21011579D01*
X8955710Y-21069290D01*
X8971364Y-21082137D01*
X8979378Y-21163503D01*
X9012486Y-21272645D01*
X9066250Y-21373231D01*
X9098467Y-21412487D01*
X9138605Y-21461395D01*
X9160694Y-21479523D01*
X9500337Y-21819167D01*
X9225000Y-21819167D01*
X9150703Y-21826485D01*
X9079262Y-21848156D01*
X9013421Y-21883349D01*
X8955710Y-21930710D01*
X8908349Y-21988421D01*
X8873156Y-22054262D01*
X8851485Y-22125703D01*
X8844167Y-22200000D01*
X8844167Y-23420000D01*
X8851485Y-23494297D01*
X8873156Y-23565738D01*
X8908349Y-23631579D01*
X8955710Y-23689290D01*
X8971000Y-23701838D01*
X8971001Y-24921552D01*
X8971000Y-24921562D01*
X8971001Y-26021552D01*
X8971000Y-26021562D01*
X8971001Y-26620622D01*
X8971001Y-26986425D01*
X8962486Y-27002355D01*
X8929379Y-27111496D01*
X8918200Y-27225000D01*
X8929379Y-27338504D01*
X8962486Y-27447645D01*
X8971000Y-27463574D01*
X8971000Y-27710171D01*
X8835691Y-27845480D01*
X8813606Y-27863605D01*
X8795482Y-27885689D01*
X8795476Y-27885695D01*
X8741250Y-27951769D01*
X8717537Y-27996133D01*
X8687486Y-28052354D01*
X8654378Y-28161496D01*
X8646000Y-28246561D01*
X8646000Y-28246571D01*
X8644501Y-28261792D01*
X8571611Y-28321611D01*
X8496268Y-28413417D01*
X8440283Y-28518158D01*
X8405808Y-28631808D01*
X8394167Y-28750000D01*
X8394167Y-29250000D01*
X8405808Y-29368192D01*
X8440283Y-29481842D01*
X8471001Y-29539311D01*
X8471000Y-30088162D01*
X8455710Y-30100710D01*
X8408349Y-30158421D01*
X8373156Y-30224262D01*
X8351485Y-30295703D01*
X8344167Y-30370000D01*
X8344167Y-31257006D01*
X8070700Y-31530473D01*
X8070695Y-31530477D01*
X6280833Y-33320340D01*
X6280833Y-31640000D01*
X6273515Y-31565703D01*
X6251844Y-31494262D01*
X6216651Y-31428421D01*
X6169290Y-31370710D01*
X6111579Y-31323349D01*
X6045738Y-31288156D01*
X5974297Y-31266485D01*
X5900000Y-31259167D01*
X5886204Y-31259167D01*
X5903816Y-31247399D01*
X5975925Y-30978754D01*
X5000000Y-30002828D01*
X4024075Y-30978754D01*
X4096184Y-31247399D01*
X4116322Y-31259167D01*
X4100000Y-31259167D01*
X4025703Y-31266485D01*
X3954262Y-31288156D01*
X3888421Y-31323349D01*
X3830710Y-31370710D01*
X3783349Y-31428421D01*
X3748156Y-31494262D01*
X3726485Y-31565703D01*
X3719167Y-31640000D01*
X3719167Y-33400338D01*
X3130833Y-32812004D01*
X3130833Y-31756335D01*
X3199764Y-31699764D01*
X3278867Y-31603378D01*
X3337646Y-31493411D01*
X3373841Y-31374090D01*
X3386063Y-31250000D01*
X3383000Y-30660250D01*
X3224750Y-30502000D01*
X2002000Y-30502000D01*
X2002000Y-30522000D01*
X1998000Y-30522000D01*
X1998000Y-30502000D01*
X775250Y-30502000D01*
X617000Y-30660250D01*
X613937Y-31250000D01*
X626159Y-31374090D01*
X662354Y-31493411D01*
X721133Y-31603378D01*
X800236Y-31699764D01*
X869167Y-31756335D01*
X869167Y-33250000D01*
X876485Y-33324297D01*
X898156Y-33395738D01*
X933349Y-33461579D01*
X980710Y-33519290D01*
X1038421Y-33566651D01*
X1104262Y-33601844D01*
X1175703Y-33623515D01*
X1250000Y-33630833D01*
X2312004Y-33630833D01*
X2777171Y-34096000D01*
X404000Y-34096000D01*
X404000Y-29750000D01*
X613937Y-29750000D01*
X617000Y-30339750D01*
X775250Y-30498000D01*
X1998000Y-30498000D01*
X1998000Y-29275250D01*
X2002000Y-29275250D01*
X2002000Y-30498000D01*
X3224750Y-30498000D01*
X3383000Y-30339750D01*
X3385068Y-29941522D01*
X3460691Y-29941522D01*
X3478861Y-30242949D01*
X3555485Y-30535041D01*
X3687623Y-30806571D01*
X3752601Y-30903816D01*
X4021246Y-30975925D01*
X4997172Y-30000000D01*
X5002828Y-30000000D01*
X5978754Y-30975925D01*
X6247399Y-30903816D01*
X6399757Y-30643095D01*
X6498322Y-30357659D01*
X6539309Y-30058478D01*
X6521139Y-29757051D01*
X6444515Y-29464959D01*
X6312377Y-29193429D01*
X6247399Y-29096184D01*
X5978754Y-29024075D01*
X5002828Y-30000000D01*
X4997172Y-30000000D01*
X4021246Y-29024075D01*
X3752601Y-29096184D01*
X3600243Y-29356905D01*
X3501678Y-29642341D01*
X3460691Y-29941522D01*
X3385068Y-29941522D01*
X3386063Y-29750000D01*
X3373841Y-29625910D01*
X3337646Y-29506589D01*
X3278867Y-29396622D01*
X3199764Y-29300236D01*
X3103378Y-29221133D01*
X2993411Y-29162354D01*
X2874090Y-29126159D01*
X2750000Y-29113937D01*
X2160250Y-29117000D01*
X2002000Y-29275250D01*
X1998000Y-29275250D01*
X1839750Y-29117000D01*
X1250000Y-29113937D01*
X1125910Y-29126159D01*
X1006589Y-29162354D01*
X896622Y-29221133D01*
X800236Y-29300236D01*
X721133Y-29396622D01*
X662354Y-29506589D01*
X626159Y-29625910D01*
X613937Y-29750000D01*
X404000Y-29750000D01*
X404000Y-6125000D01*
X11331910Y-6125000D01*
X11240236Y-6200236D01*
G37*
G04 #@! TD.AperFunction*
D21*
X10002000Y-30898000D02*
X10022000Y-30898000D01*
X10022000Y-30902000D01*
X10002000Y-30902000D01*
X10002000Y-31904750D01*
X10160250Y-32063000D01*
X10325000Y-32066063D01*
X10449090Y-32053841D01*
X10568411Y-32017646D01*
X10678378Y-31958867D01*
X10715576Y-31928339D01*
X10976404Y-32189167D01*
X10625000Y-32189167D01*
X10550703Y-32196485D01*
X10479262Y-32218156D01*
X10413421Y-32253349D01*
X10355710Y-32300710D01*
X10308349Y-32358421D01*
X10273156Y-32424262D01*
X10251485Y-32495703D01*
X10244167Y-32570000D01*
X10244167Y-32774431D01*
X10168888Y-32743250D01*
X10156838Y-32740853D01*
X10081362Y-32678912D01*
X9993805Y-32632112D01*
X9898801Y-32603293D01*
X9824754Y-32596000D01*
X9800000Y-32593562D01*
X9775246Y-32596000D01*
X9755833Y-32596000D01*
X9755833Y-32570000D01*
X9748515Y-32495703D01*
X9726844Y-32424262D01*
X9691651Y-32358421D01*
X9644290Y-32300710D01*
X9586579Y-32253349D01*
X9520738Y-32218156D01*
X9449297Y-32196485D01*
X9375000Y-32189167D01*
X9049664Y-32189167D01*
X9298742Y-31940090D01*
X9321622Y-31958867D01*
X9431589Y-32017646D01*
X9550910Y-32053841D01*
X9675000Y-32066063D01*
X9839750Y-32063000D01*
X9998000Y-31904750D01*
X9998000Y-30902000D01*
X9978000Y-30902000D01*
X9978000Y-30898000D01*
X9998000Y-30898000D01*
X9998000Y-30878000D01*
X10002000Y-30878000D01*
X10002000Y-30898000D01*
G04 #@! TA.AperFunction,Conductor*
D23*
G36*
X10002000Y-30898000D02*
G01*
X10022000Y-30898000D01*
X10022000Y-30902000D01*
X10002000Y-30902000D01*
X10002000Y-31904750D01*
X10160250Y-32063000D01*
X10325000Y-32066063D01*
X10449090Y-32053841D01*
X10568411Y-32017646D01*
X10678378Y-31958867D01*
X10715576Y-31928339D01*
X10976404Y-32189167D01*
X10625000Y-32189167D01*
X10550703Y-32196485D01*
X10479262Y-32218156D01*
X10413421Y-32253349D01*
X10355710Y-32300710D01*
X10308349Y-32358421D01*
X10273156Y-32424262D01*
X10251485Y-32495703D01*
X10244167Y-32570000D01*
X10244167Y-32774431D01*
X10168888Y-32743250D01*
X10156838Y-32740853D01*
X10081362Y-32678912D01*
X9993805Y-32632112D01*
X9898801Y-32603293D01*
X9824754Y-32596000D01*
X9800000Y-32593562D01*
X9775246Y-32596000D01*
X9755833Y-32596000D01*
X9755833Y-32570000D01*
X9748515Y-32495703D01*
X9726844Y-32424262D01*
X9691651Y-32358421D01*
X9644290Y-32300710D01*
X9586579Y-32253349D01*
X9520738Y-32218156D01*
X9449297Y-32196485D01*
X9375000Y-32189167D01*
X9049664Y-32189167D01*
X9298742Y-31940090D01*
X9321622Y-31958867D01*
X9431589Y-32017646D01*
X9550910Y-32053841D01*
X9675000Y-32066063D01*
X9839750Y-32063000D01*
X9998000Y-31904750D01*
X9998000Y-30902000D01*
X9978000Y-30902000D01*
X9978000Y-30898000D01*
X9998000Y-30898000D01*
X9998000Y-30878000D01*
X10002000Y-30878000D01*
X10002000Y-30898000D01*
G37*
G04 #@! TD.AperFunction*
D21*
X13070481Y-23889311D02*
X13088605Y-23911395D01*
X13110689Y-23929519D01*
X13110694Y-23929524D01*
X13134264Y-23948867D01*
X13176769Y-23983750D01*
X13277354Y-24037514D01*
X13386496Y-24070622D01*
X13471561Y-24079000D01*
X13471568Y-24079000D01*
X13500000Y-24081800D01*
X13528432Y-24079000D01*
X15608715Y-24079000D01*
X15997998Y-24468284D01*
X15997998Y-24625248D01*
X15839750Y-24467000D01*
X15000000Y-24463937D01*
X14875910Y-24476159D01*
X14756589Y-24512354D01*
X14646622Y-24571133D01*
X14550236Y-24650236D01*
X14471133Y-24746622D01*
X14412354Y-24856589D01*
X14376159Y-24975910D01*
X14363937Y-25100000D01*
X14367000Y-25339750D01*
X14525250Y-25498000D01*
X15998000Y-25498000D01*
X15998000Y-25478000D01*
X16002000Y-25478000D01*
X16002000Y-25498000D01*
X16022000Y-25498000D01*
X16022000Y-25502000D01*
X16002000Y-25502000D01*
X16002000Y-26374750D01*
X16160250Y-26533000D01*
X17000000Y-26536063D01*
X17124090Y-26523841D01*
X17243411Y-26487646D01*
X17353378Y-26428867D01*
X17421001Y-26373370D01*
X17421001Y-26769167D01*
X16550000Y-26769167D01*
X16475703Y-26776485D01*
X16404262Y-26798156D01*
X16338421Y-26833349D01*
X16280710Y-26880710D01*
X16233349Y-26938421D01*
X16198156Y-27004262D01*
X16197079Y-27007814D01*
X16133436Y-26854166D01*
X15993465Y-26644685D01*
X15860765Y-26511985D01*
X15998000Y-26374750D01*
X15998000Y-25502000D01*
X14525250Y-25502000D01*
X14367000Y-25660250D01*
X14363937Y-25900000D01*
X14376159Y-26024090D01*
X14412354Y-26143411D01*
X14471133Y-26253378D01*
X14496432Y-26284204D01*
X14394166Y-26326564D01*
X14184685Y-26466535D01*
X14006535Y-26644685D01*
X13866564Y-26854166D01*
X13770151Y-27086929D01*
X13721000Y-27334029D01*
X13721000Y-27585971D01*
X13770151Y-27833071D01*
X13866564Y-28065834D01*
X14006535Y-28275315D01*
X14036670Y-28305450D01*
X14031196Y-28307111D01*
X13943639Y-28353911D01*
X13866895Y-28416893D01*
X13851115Y-28436121D01*
X12661123Y-29626114D01*
X12641895Y-29641894D01*
X12626115Y-29661122D01*
X12578913Y-29718638D01*
X12532113Y-29806195D01*
X12503293Y-29901199D01*
X12493562Y-30000000D01*
X12496001Y-30024763D01*
X12496001Y-30441974D01*
X12402306Y-30492055D01*
X12314289Y-30564289D01*
X12242055Y-30652306D01*
X12188380Y-30752725D01*
X12155328Y-30861685D01*
X12144167Y-30975000D01*
X12144167Y-31375000D01*
X12155328Y-31488315D01*
X12188380Y-31597275D01*
X12242055Y-31697694D01*
X12314289Y-31785711D01*
X12402306Y-31857945D01*
X12502725Y-31911620D01*
X12611685Y-31944672D01*
X12725000Y-31955833D01*
X13275000Y-31955833D01*
X13388315Y-31944672D01*
X13497275Y-31911620D01*
X13597694Y-31857945D01*
X13685711Y-31785711D01*
X13719167Y-31744945D01*
X13719167Y-32255055D01*
X13685711Y-32214289D01*
X13597694Y-32142055D01*
X13497275Y-32088380D01*
X13388315Y-32055328D01*
X13275000Y-32044167D01*
X12725000Y-32044167D01*
X12611685Y-32055328D01*
X12502725Y-32088380D01*
X12402306Y-32142055D01*
X12376223Y-32163460D01*
X11654661Y-31441898D01*
X11655833Y-31430000D01*
X11655833Y-30370000D01*
X11648515Y-30295703D01*
X11626844Y-30224262D01*
X11591651Y-30158421D01*
X11544290Y-30100710D01*
X11486579Y-30053349D01*
X11486192Y-30053142D01*
X11578378Y-30003867D01*
X11674764Y-29924764D01*
X11753867Y-29828378D01*
X11812646Y-29718411D01*
X11848841Y-29599090D01*
X11861063Y-29475000D01*
X11858000Y-29160250D01*
X11699750Y-29002000D01*
X10777000Y-29002000D01*
X10777000Y-29022000D01*
X10773000Y-29022000D01*
X10773000Y-29002000D01*
X10753000Y-29002000D01*
X10753000Y-28998000D01*
X10773000Y-28998000D01*
X10773000Y-28978000D01*
X10777000Y-28978000D01*
X10777000Y-28998000D01*
X11699750Y-28998000D01*
X11858000Y-28839750D01*
X11861063Y-28525000D01*
X11848841Y-28400910D01*
X11812646Y-28281589D01*
X11753867Y-28171622D01*
X11705789Y-28113040D01*
X11839306Y-27979523D01*
X11861395Y-27961395D01*
X11933750Y-27873231D01*
X11987514Y-27772646D01*
X12020622Y-27663504D01*
X12029000Y-27578439D01*
X12029000Y-27578430D01*
X12031800Y-27550001D01*
X12029000Y-27521572D01*
X12029000Y-23701838D01*
X12044290Y-23689290D01*
X12091651Y-23631579D01*
X12126844Y-23565738D01*
X12148515Y-23494297D01*
X12155833Y-23420000D01*
X12155833Y-22974662D01*
X13070481Y-23889311D01*
G04 #@! TA.AperFunction,Conductor*
D23*
G36*
X13070481Y-23889311D02*
G01*
X13088605Y-23911395D01*
X13110689Y-23929519D01*
X13110694Y-23929524D01*
X13134264Y-23948867D01*
X13176769Y-23983750D01*
X13277354Y-24037514D01*
X13386496Y-24070622D01*
X13471561Y-24079000D01*
X13471568Y-24079000D01*
X13500000Y-24081800D01*
X13528432Y-24079000D01*
X15608715Y-24079000D01*
X15997998Y-24468284D01*
X15997998Y-24625248D01*
X15839750Y-24467000D01*
X15000000Y-24463937D01*
X14875910Y-24476159D01*
X14756589Y-24512354D01*
X14646622Y-24571133D01*
X14550236Y-24650236D01*
X14471133Y-24746622D01*
X14412354Y-24856589D01*
X14376159Y-24975910D01*
X14363937Y-25100000D01*
X14367000Y-25339750D01*
X14525250Y-25498000D01*
X15998000Y-25498000D01*
X15998000Y-25478000D01*
X16002000Y-25478000D01*
X16002000Y-25498000D01*
X16022000Y-25498000D01*
X16022000Y-25502000D01*
X16002000Y-25502000D01*
X16002000Y-26374750D01*
X16160250Y-26533000D01*
X17000000Y-26536063D01*
X17124090Y-26523841D01*
X17243411Y-26487646D01*
X17353378Y-26428867D01*
X17421001Y-26373370D01*
X17421001Y-26769167D01*
X16550000Y-26769167D01*
X16475703Y-26776485D01*
X16404262Y-26798156D01*
X16338421Y-26833349D01*
X16280710Y-26880710D01*
X16233349Y-26938421D01*
X16198156Y-27004262D01*
X16197079Y-27007814D01*
X16133436Y-26854166D01*
X15993465Y-26644685D01*
X15860765Y-26511985D01*
X15998000Y-26374750D01*
X15998000Y-25502000D01*
X14525250Y-25502000D01*
X14367000Y-25660250D01*
X14363937Y-25900000D01*
X14376159Y-26024090D01*
X14412354Y-26143411D01*
X14471133Y-26253378D01*
X14496432Y-26284204D01*
X14394166Y-26326564D01*
X14184685Y-26466535D01*
X14006535Y-26644685D01*
X13866564Y-26854166D01*
X13770151Y-27086929D01*
X13721000Y-27334029D01*
X13721000Y-27585971D01*
X13770151Y-27833071D01*
X13866564Y-28065834D01*
X14006535Y-28275315D01*
X14036670Y-28305450D01*
X14031196Y-28307111D01*
X13943639Y-28353911D01*
X13866895Y-28416893D01*
X13851115Y-28436121D01*
X12661123Y-29626114D01*
X12641895Y-29641894D01*
X12626115Y-29661122D01*
X12578913Y-29718638D01*
X12532113Y-29806195D01*
X12503293Y-29901199D01*
X12493562Y-30000000D01*
X12496001Y-30024763D01*
X12496001Y-30441974D01*
X12402306Y-30492055D01*
X12314289Y-30564289D01*
X12242055Y-30652306D01*
X12188380Y-30752725D01*
X12155328Y-30861685D01*
X12144167Y-30975000D01*
X12144167Y-31375000D01*
X12155328Y-31488315D01*
X12188380Y-31597275D01*
X12242055Y-31697694D01*
X12314289Y-31785711D01*
X12402306Y-31857945D01*
X12502725Y-31911620D01*
X12611685Y-31944672D01*
X12725000Y-31955833D01*
X13275000Y-31955833D01*
X13388315Y-31944672D01*
X13497275Y-31911620D01*
X13597694Y-31857945D01*
X13685711Y-31785711D01*
X13719167Y-31744945D01*
X13719167Y-32255055D01*
X13685711Y-32214289D01*
X13597694Y-32142055D01*
X13497275Y-32088380D01*
X13388315Y-32055328D01*
X13275000Y-32044167D01*
X12725000Y-32044167D01*
X12611685Y-32055328D01*
X12502725Y-32088380D01*
X12402306Y-32142055D01*
X12376223Y-32163460D01*
X11654661Y-31441898D01*
X11655833Y-31430000D01*
X11655833Y-30370000D01*
X11648515Y-30295703D01*
X11626844Y-30224262D01*
X11591651Y-30158421D01*
X11544290Y-30100710D01*
X11486579Y-30053349D01*
X11486192Y-30053142D01*
X11578378Y-30003867D01*
X11674764Y-29924764D01*
X11753867Y-29828378D01*
X11812646Y-29718411D01*
X11848841Y-29599090D01*
X11861063Y-29475000D01*
X11858000Y-29160250D01*
X11699750Y-29002000D01*
X10777000Y-29002000D01*
X10777000Y-29022000D01*
X10773000Y-29022000D01*
X10773000Y-29002000D01*
X10753000Y-29002000D01*
X10753000Y-28998000D01*
X10773000Y-28998000D01*
X10773000Y-28978000D01*
X10777000Y-28978000D01*
X10777000Y-28998000D01*
X11699750Y-28998000D01*
X11858000Y-28839750D01*
X11861063Y-28525000D01*
X11848841Y-28400910D01*
X11812646Y-28281589D01*
X11753867Y-28171622D01*
X11705789Y-28113040D01*
X11839306Y-27979523D01*
X11861395Y-27961395D01*
X11933750Y-27873231D01*
X11987514Y-27772646D01*
X12020622Y-27663504D01*
X12029000Y-27578439D01*
X12029000Y-27578430D01*
X12031800Y-27550001D01*
X12029000Y-27521572D01*
X12029000Y-23701838D01*
X12044290Y-23689290D01*
X12091651Y-23631579D01*
X12126844Y-23565738D01*
X12148515Y-23494297D01*
X12155833Y-23420000D01*
X12155833Y-22974662D01*
X13070481Y-23889311D01*
G37*
G04 #@! TD.AperFunction*
D21*
X15016971Y-29985858D02*
X15002828Y-30000000D01*
X15978754Y-30975925D01*
X16148565Y-30930345D01*
X16144167Y-30975000D01*
X16144167Y-31350093D01*
X16111579Y-31323349D01*
X16045738Y-31288156D01*
X15974297Y-31266485D01*
X15900000Y-31259167D01*
X15886204Y-31259167D01*
X15903816Y-31247399D01*
X15975925Y-30978754D01*
X15000000Y-30002828D01*
X14024075Y-30978754D01*
X14096184Y-31247399D01*
X14116322Y-31259167D01*
X14100000Y-31259167D01*
X14025703Y-31266485D01*
X13954262Y-31288156D01*
X13888421Y-31323349D01*
X13855833Y-31350093D01*
X13855833Y-30975000D01*
X13851435Y-30930345D01*
X14021246Y-30975925D01*
X14997172Y-30000000D01*
X14983030Y-29985858D01*
X14985858Y-29983030D01*
X15000000Y-29997172D01*
X15014142Y-29983029D01*
X15016971Y-29985858D01*
G04 #@! TA.AperFunction,Conductor*
D23*
G36*
X15016971Y-29985858D02*
G01*
X15002828Y-30000000D01*
X15978754Y-30975925D01*
X16148565Y-30930345D01*
X16144167Y-30975000D01*
X16144167Y-31350093D01*
X16111579Y-31323349D01*
X16045738Y-31288156D01*
X15974297Y-31266485D01*
X15900000Y-31259167D01*
X15886204Y-31259167D01*
X15903816Y-31247399D01*
X15975925Y-30978754D01*
X15000000Y-30002828D01*
X14024075Y-30978754D01*
X14096184Y-31247399D01*
X14116322Y-31259167D01*
X14100000Y-31259167D01*
X14025703Y-31266485D01*
X13954262Y-31288156D01*
X13888421Y-31323349D01*
X13855833Y-31350093D01*
X13855833Y-30975000D01*
X13851435Y-30930345D01*
X14021246Y-30975925D01*
X14997172Y-30000000D01*
X14983030Y-29985858D01*
X14985858Y-29983030D01*
X15000000Y-29997172D01*
X15014142Y-29983029D01*
X15016971Y-29985858D01*
G37*
G04 #@! TD.AperFunction*
D21*
X19596000Y-27748296D02*
X19595738Y-27748156D01*
X19524297Y-27726485D01*
X19450000Y-27719167D01*
X18579000Y-27719167D01*
X18579000Y-25679884D01*
X18581800Y-25651455D01*
X18579000Y-25623026D01*
X18579000Y-25623017D01*
X18570622Y-25537952D01*
X18537514Y-25428810D01*
X18483750Y-25328225D01*
X18461501Y-25301115D01*
X18429524Y-25262150D01*
X18429519Y-25262145D01*
X18411395Y-25240061D01*
X18389311Y-25221937D01*
X16278067Y-23110694D01*
X16259939Y-23088605D01*
X16171775Y-23016250D01*
X16071190Y-22962486D01*
X15962048Y-22929378D01*
X15876983Y-22921000D01*
X15876973Y-22921000D01*
X15848544Y-22918200D01*
X15820115Y-22921000D01*
X13739830Y-22921000D01*
X13676993Y-22858163D01*
X13975000Y-22861063D01*
X14099090Y-22848841D01*
X14218411Y-22812646D01*
X14328378Y-22753867D01*
X14424764Y-22674764D01*
X14503867Y-22578378D01*
X14562646Y-22468411D01*
X14598841Y-22349090D01*
X14611063Y-22225000D01*
X14608000Y-21935250D01*
X14449750Y-21777000D01*
X13502000Y-21777000D01*
X13502000Y-21797000D01*
X13498000Y-21797000D01*
X13498000Y-21777000D01*
X13478000Y-21777000D01*
X13478000Y-21773000D01*
X13498000Y-21773000D01*
X13498000Y-21753000D01*
X13502000Y-21753000D01*
X13502000Y-21773000D01*
X14449750Y-21773000D01*
X14608000Y-21614750D01*
X14611063Y-21325000D01*
X14598841Y-21200910D01*
X14562646Y-21081589D01*
X14503867Y-20971622D01*
X14424764Y-20875236D01*
X14328378Y-20796133D01*
X14266349Y-20762978D01*
X14309717Y-20681842D01*
X14344192Y-20568192D01*
X14355833Y-20450000D01*
X14355833Y-20000000D01*
X14344192Y-19881808D01*
X14309717Y-19768158D01*
X14253732Y-19663417D01*
X14178389Y-19571611D01*
X14086583Y-19496268D01*
X13981842Y-19440283D01*
X13868192Y-19405808D01*
X13750000Y-19394167D01*
X13250000Y-19394167D01*
X13131808Y-19405808D01*
X13018158Y-19440283D01*
X12913417Y-19496268D01*
X12821611Y-19571611D01*
X12746268Y-19663417D01*
X12715489Y-19721000D01*
X12155833Y-19721000D01*
X12155833Y-19580000D01*
X12148515Y-19505703D01*
X12126844Y-19434262D01*
X12091651Y-19368421D01*
X12044290Y-19310710D01*
X11986579Y-19263349D01*
X11920738Y-19228156D01*
X11849297Y-19206485D01*
X11775000Y-19199167D01*
X11125000Y-19199167D01*
X11050703Y-19206485D01*
X10979262Y-19228156D01*
X10913421Y-19263349D01*
X10855710Y-19310710D01*
X10808349Y-19368421D01*
X10773156Y-19434262D01*
X10751485Y-19505703D01*
X10744167Y-19580000D01*
X10744167Y-20800000D01*
X10751485Y-20874297D01*
X10765652Y-20921000D01*
X10239830Y-20921000D01*
X10235624Y-20916794D01*
X10248515Y-20874297D01*
X10255833Y-20800000D01*
X10255833Y-19580000D01*
X10248515Y-19505703D01*
X10226844Y-19434262D01*
X10191651Y-19368421D01*
X10144290Y-19310710D01*
X10129000Y-19298162D01*
X10129000Y-18989829D01*
X13539830Y-15579000D01*
X13910171Y-15579000D01*
X14220480Y-15889310D01*
X14238605Y-15911395D01*
X14260689Y-15929519D01*
X14260694Y-15929524D01*
X14326768Y-15983750D01*
X14363331Y-16003293D01*
X14427354Y-16037514D01*
X14478301Y-16052969D01*
X14496268Y-16086583D01*
X14571611Y-16178389D01*
X14663417Y-16253732D01*
X14768158Y-16309717D01*
X14881808Y-16344192D01*
X15000000Y-16355833D01*
X15450000Y-16355833D01*
X15496001Y-16351302D01*
X15496001Y-16466235D01*
X15318069Y-16644167D01*
X14975000Y-16644167D01*
X14861685Y-16655328D01*
X14752725Y-16688380D01*
X14652306Y-16742055D01*
X14564289Y-16814289D01*
X14492055Y-16902306D01*
X14438380Y-17002725D01*
X14405328Y-17111685D01*
X14394167Y-17225000D01*
X14394167Y-17775000D01*
X14405328Y-17888315D01*
X14438380Y-17997275D01*
X14492055Y-18097694D01*
X14564289Y-18185711D01*
X14652306Y-18257945D01*
X14752725Y-18311620D01*
X14861685Y-18344672D01*
X14975000Y-18355833D01*
X15375000Y-18355833D01*
X15488315Y-18344672D01*
X15597275Y-18311620D01*
X15697694Y-18257945D01*
X15785711Y-18185711D01*
X15816175Y-18148591D01*
X15837354Y-18218411D01*
X15896133Y-18328378D01*
X15975236Y-18424764D01*
X16026473Y-18466814D01*
X15971622Y-18496133D01*
X15875236Y-18575236D01*
X15796133Y-18671622D01*
X15762978Y-18733651D01*
X15681842Y-18690283D01*
X15568192Y-18655808D01*
X15450000Y-18644167D01*
X15000000Y-18644167D01*
X14881808Y-18655808D01*
X14768158Y-18690283D01*
X14663417Y-18746268D01*
X14571611Y-18821611D01*
X14496268Y-18913417D01*
X14440283Y-19018158D01*
X14405808Y-19131808D01*
X14394167Y-19250000D01*
X14394167Y-19750000D01*
X14405808Y-19868192D01*
X14440283Y-19981842D01*
X14496268Y-20086583D01*
X14571611Y-20178389D01*
X14663417Y-20253732D01*
X14702094Y-20274405D01*
X14668250Y-20356112D01*
X14646000Y-20467973D01*
X14646000Y-20582027D01*
X14668250Y-20693888D01*
X14709025Y-20792329D01*
X14663380Y-20877725D01*
X14630328Y-20986685D01*
X14619167Y-21100000D01*
X14619167Y-21500000D01*
X14630328Y-21613315D01*
X14663380Y-21722275D01*
X14717055Y-21822694D01*
X14789289Y-21910711D01*
X14877306Y-21982945D01*
X14977725Y-22036620D01*
X15086685Y-22069672D01*
X15200000Y-22080833D01*
X16800000Y-22080833D01*
X16913315Y-22069672D01*
X17022275Y-22036620D01*
X17122694Y-21982945D01*
X17210711Y-21910711D01*
X17282945Y-21822694D01*
X17336620Y-21722275D01*
X17369672Y-21613315D01*
X17380833Y-21500000D01*
X17380833Y-21100000D01*
X17369672Y-20986685D01*
X17336620Y-20877725D01*
X17282945Y-20777306D01*
X17210711Y-20689289D01*
X17122694Y-20617055D01*
X17109193Y-20609839D01*
X17225000Y-20611063D01*
X17349090Y-20598841D01*
X17468411Y-20562646D01*
X17578378Y-20503867D01*
X17674764Y-20424764D01*
X17753867Y-20328378D01*
X17812646Y-20218411D01*
X17848841Y-20099090D01*
X17861063Y-19975000D01*
X17858000Y-19660250D01*
X17699750Y-19502000D01*
X16777000Y-19502000D01*
X16777000Y-19522000D01*
X16773000Y-19522000D01*
X16773000Y-19502000D01*
X16753000Y-19502000D01*
X16753000Y-19498000D01*
X16773000Y-19498000D01*
X16773000Y-19478000D01*
X16777000Y-19478000D01*
X16777000Y-19498000D01*
X17699750Y-19498000D01*
X17858000Y-19339750D01*
X17861063Y-19025000D01*
X17848841Y-18900910D01*
X17812646Y-18781589D01*
X17753867Y-18671622D01*
X17674764Y-18575236D01*
X17583090Y-18500000D01*
X17674764Y-18424764D01*
X17753867Y-18328378D01*
X17812646Y-18218411D01*
X17848841Y-18099090D01*
X17861063Y-17975000D01*
X17858000Y-17660250D01*
X17699750Y-17502000D01*
X16827000Y-17502000D01*
X16827000Y-17522000D01*
X16823000Y-17522000D01*
X16823000Y-17502000D01*
X16803000Y-17502000D01*
X16803000Y-17498000D01*
X16823000Y-17498000D01*
X16823000Y-17478000D01*
X16827000Y-17478000D01*
X16827000Y-17498000D01*
X17699750Y-17498000D01*
X17858000Y-17339750D01*
X17861063Y-17025000D01*
X17848841Y-16900910D01*
X17812646Y-16781589D01*
X17753867Y-16671622D01*
X17674764Y-16575236D01*
X17583090Y-16500000D01*
X17674764Y-16424764D01*
X17753867Y-16328378D01*
X17812646Y-16218411D01*
X17848841Y-16099090D01*
X17861063Y-15975000D01*
X17858000Y-15660250D01*
X17699750Y-15502000D01*
X16777000Y-15502000D01*
X16777000Y-15522000D01*
X16773000Y-15522000D01*
X16773000Y-15502000D01*
X16753000Y-15502000D01*
X16753000Y-15498000D01*
X16773000Y-15498000D01*
X16773000Y-14550250D01*
X16722750Y-14500000D01*
X16773000Y-14449750D01*
X16773000Y-13502000D01*
X16777000Y-13502000D01*
X16777000Y-14449750D01*
X16827250Y-14500000D01*
X16777000Y-14550250D01*
X16777000Y-15498000D01*
X17699750Y-15498000D01*
X17858000Y-15339750D01*
X17861063Y-15025000D01*
X17848841Y-14900910D01*
X17812646Y-14781589D01*
X17753867Y-14671622D01*
X17674764Y-14575236D01*
X17583090Y-14500000D01*
X17674764Y-14424764D01*
X17753867Y-14328378D01*
X17812646Y-14218411D01*
X17848841Y-14099090D01*
X17861063Y-13975000D01*
X17858000Y-13660250D01*
X17699750Y-13502000D01*
X16777000Y-13502000D01*
X16773000Y-13502000D01*
X16753000Y-13502000D01*
X16753000Y-13498000D01*
X16773000Y-13498000D01*
X16773000Y-13478000D01*
X16777000Y-13478000D01*
X16777000Y-13498000D01*
X17699750Y-13498000D01*
X17858000Y-13339750D01*
X17861063Y-13025000D01*
X17848841Y-12900910D01*
X17812646Y-12781589D01*
X17753867Y-12671622D01*
X17674764Y-12575236D01*
X17583090Y-12500000D01*
X17674764Y-12424764D01*
X17753867Y-12328378D01*
X17812646Y-12218411D01*
X17848841Y-12099090D01*
X17861063Y-11975000D01*
X17858000Y-11660250D01*
X17699750Y-11502000D01*
X16827000Y-11502000D01*
X16827000Y-11522000D01*
X16823000Y-11522000D01*
X16823000Y-11502000D01*
X16803000Y-11502000D01*
X16803000Y-11498000D01*
X16823000Y-11498000D01*
X16823000Y-11478000D01*
X16827000Y-11478000D01*
X16827000Y-11498000D01*
X17699750Y-11498000D01*
X17858000Y-11339750D01*
X17861063Y-11025000D01*
X17848841Y-10900910D01*
X17812646Y-10781589D01*
X17753867Y-10671622D01*
X17674764Y-10575236D01*
X17578378Y-10496133D01*
X17564256Y-10488585D01*
X17594672Y-10388315D01*
X17605833Y-10275000D01*
X17605833Y-9725000D01*
X17594672Y-9611685D01*
X17561620Y-9502725D01*
X17507945Y-9402306D01*
X17435711Y-9314289D01*
X17399315Y-9284419D01*
X17385264Y-9213780D01*
X17428389Y-9178389D01*
X17503732Y-9086583D01*
X17559717Y-8981842D01*
X17594192Y-8868192D01*
X17605833Y-8750000D01*
X17605833Y-8250000D01*
X17594192Y-8131808D01*
X17559717Y-8018158D01*
X17557923Y-8014801D01*
X17578378Y-8003867D01*
X17674764Y-7924764D01*
X17753867Y-7828378D01*
X17812646Y-7718411D01*
X17848841Y-7599090D01*
X17861063Y-7475000D01*
X17858000Y-7160250D01*
X17699750Y-7002000D01*
X16777000Y-7002000D01*
X16777000Y-7022000D01*
X16773000Y-7022000D01*
X16773000Y-7002000D01*
X16753000Y-7002000D01*
X16753000Y-6998000D01*
X16773000Y-6998000D01*
X16773000Y-6978000D01*
X16777000Y-6978000D01*
X16777000Y-6998000D01*
X17699750Y-6998000D01*
X17858000Y-6839750D01*
X17861063Y-6525000D01*
X17848841Y-6400910D01*
X17812646Y-6281589D01*
X17753867Y-6171622D01*
X17715605Y-6125000D01*
X19596001Y-6125000D01*
X19596000Y-27748296D01*
G04 #@! TA.AperFunction,Conductor*
D23*
G36*
X19596000Y-27748296D02*
G01*
X19595738Y-27748156D01*
X19524297Y-27726485D01*
X19450000Y-27719167D01*
X18579000Y-27719167D01*
X18579000Y-25679884D01*
X18581800Y-25651455D01*
X18579000Y-25623026D01*
X18579000Y-25623017D01*
X18570622Y-25537952D01*
X18537514Y-25428810D01*
X18483750Y-25328225D01*
X18461501Y-25301115D01*
X18429524Y-25262150D01*
X18429519Y-25262145D01*
X18411395Y-25240061D01*
X18389311Y-25221937D01*
X16278067Y-23110694D01*
X16259939Y-23088605D01*
X16171775Y-23016250D01*
X16071190Y-22962486D01*
X15962048Y-22929378D01*
X15876983Y-22921000D01*
X15876973Y-22921000D01*
X15848544Y-22918200D01*
X15820115Y-22921000D01*
X13739830Y-22921000D01*
X13676993Y-22858163D01*
X13975000Y-22861063D01*
X14099090Y-22848841D01*
X14218411Y-22812646D01*
X14328378Y-22753867D01*
X14424764Y-22674764D01*
X14503867Y-22578378D01*
X14562646Y-22468411D01*
X14598841Y-22349090D01*
X14611063Y-22225000D01*
X14608000Y-21935250D01*
X14449750Y-21777000D01*
X13502000Y-21777000D01*
X13502000Y-21797000D01*
X13498000Y-21797000D01*
X13498000Y-21777000D01*
X13478000Y-21777000D01*
X13478000Y-21773000D01*
X13498000Y-21773000D01*
X13498000Y-21753000D01*
X13502000Y-21753000D01*
X13502000Y-21773000D01*
X14449750Y-21773000D01*
X14608000Y-21614750D01*
X14611063Y-21325000D01*
X14598841Y-21200910D01*
X14562646Y-21081589D01*
X14503867Y-20971622D01*
X14424764Y-20875236D01*
X14328378Y-20796133D01*
X14266349Y-20762978D01*
X14309717Y-20681842D01*
X14344192Y-20568192D01*
X14355833Y-20450000D01*
X14355833Y-20000000D01*
X14344192Y-19881808D01*
X14309717Y-19768158D01*
X14253732Y-19663417D01*
X14178389Y-19571611D01*
X14086583Y-19496268D01*
X13981842Y-19440283D01*
X13868192Y-19405808D01*
X13750000Y-19394167D01*
X13250000Y-19394167D01*
X13131808Y-19405808D01*
X13018158Y-19440283D01*
X12913417Y-19496268D01*
X12821611Y-19571611D01*
X12746268Y-19663417D01*
X12715489Y-19721000D01*
X12155833Y-19721000D01*
X12155833Y-19580000D01*
X12148515Y-19505703D01*
X12126844Y-19434262D01*
X12091651Y-19368421D01*
X12044290Y-19310710D01*
X11986579Y-19263349D01*
X11920738Y-19228156D01*
X11849297Y-19206485D01*
X11775000Y-19199167D01*
X11125000Y-19199167D01*
X11050703Y-19206485D01*
X10979262Y-19228156D01*
X10913421Y-19263349D01*
X10855710Y-19310710D01*
X10808349Y-19368421D01*
X10773156Y-19434262D01*
X10751485Y-19505703D01*
X10744167Y-19580000D01*
X10744167Y-20800000D01*
X10751485Y-20874297D01*
X10765652Y-20921000D01*
X10239830Y-20921000D01*
X10235624Y-20916794D01*
X10248515Y-20874297D01*
X10255833Y-20800000D01*
X10255833Y-19580000D01*
X10248515Y-19505703D01*
X10226844Y-19434262D01*
X10191651Y-19368421D01*
X10144290Y-19310710D01*
X10129000Y-19298162D01*
X10129000Y-18989829D01*
X13539830Y-15579000D01*
X13910171Y-15579000D01*
X14220480Y-15889310D01*
X14238605Y-15911395D01*
X14260689Y-15929519D01*
X14260694Y-15929524D01*
X14326768Y-15983750D01*
X14363331Y-16003293D01*
X14427354Y-16037514D01*
X14478301Y-16052969D01*
X14496268Y-16086583D01*
X14571611Y-16178389D01*
X14663417Y-16253732D01*
X14768158Y-16309717D01*
X14881808Y-16344192D01*
X15000000Y-16355833D01*
X15450000Y-16355833D01*
X15496001Y-16351302D01*
X15496001Y-16466235D01*
X15318069Y-16644167D01*
X14975000Y-16644167D01*
X14861685Y-16655328D01*
X14752725Y-16688380D01*
X14652306Y-16742055D01*
X14564289Y-16814289D01*
X14492055Y-16902306D01*
X14438380Y-17002725D01*
X14405328Y-17111685D01*
X14394167Y-17225000D01*
X14394167Y-17775000D01*
X14405328Y-17888315D01*
X14438380Y-17997275D01*
X14492055Y-18097694D01*
X14564289Y-18185711D01*
X14652306Y-18257945D01*
X14752725Y-18311620D01*
X14861685Y-18344672D01*
X14975000Y-18355833D01*
X15375000Y-18355833D01*
X15488315Y-18344672D01*
X15597275Y-18311620D01*
X15697694Y-18257945D01*
X15785711Y-18185711D01*
X15816175Y-18148591D01*
X15837354Y-18218411D01*
X15896133Y-18328378D01*
X15975236Y-18424764D01*
X16026473Y-18466814D01*
X15971622Y-18496133D01*
X15875236Y-18575236D01*
X15796133Y-18671622D01*
X15762978Y-18733651D01*
X15681842Y-18690283D01*
X15568192Y-18655808D01*
X15450000Y-18644167D01*
X15000000Y-18644167D01*
X14881808Y-18655808D01*
X14768158Y-18690283D01*
X14663417Y-18746268D01*
X14571611Y-18821611D01*
X14496268Y-18913417D01*
X14440283Y-19018158D01*
X14405808Y-19131808D01*
X14394167Y-19250000D01*
X14394167Y-19750000D01*
X14405808Y-19868192D01*
X14440283Y-19981842D01*
X14496268Y-20086583D01*
X14571611Y-20178389D01*
X14663417Y-20253732D01*
X14702094Y-20274405D01*
X14668250Y-20356112D01*
X14646000Y-20467973D01*
X14646000Y-20582027D01*
X14668250Y-20693888D01*
X14709025Y-20792329D01*
X14663380Y-20877725D01*
X14630328Y-20986685D01*
X14619167Y-21100000D01*
X14619167Y-21500000D01*
X14630328Y-21613315D01*
X14663380Y-21722275D01*
X14717055Y-21822694D01*
X14789289Y-21910711D01*
X14877306Y-21982945D01*
X14977725Y-22036620D01*
X15086685Y-22069672D01*
X15200000Y-22080833D01*
X16800000Y-22080833D01*
X16913315Y-22069672D01*
X17022275Y-22036620D01*
X17122694Y-21982945D01*
X17210711Y-21910711D01*
X17282945Y-21822694D01*
X17336620Y-21722275D01*
X17369672Y-21613315D01*
X17380833Y-21500000D01*
X17380833Y-21100000D01*
X17369672Y-20986685D01*
X17336620Y-20877725D01*
X17282945Y-20777306D01*
X17210711Y-20689289D01*
X17122694Y-20617055D01*
X17109193Y-20609839D01*
X17225000Y-20611063D01*
X17349090Y-20598841D01*
X17468411Y-20562646D01*
X17578378Y-20503867D01*
X17674764Y-20424764D01*
X17753867Y-20328378D01*
X17812646Y-20218411D01*
X17848841Y-20099090D01*
X17861063Y-19975000D01*
X17858000Y-19660250D01*
X17699750Y-19502000D01*
X16777000Y-19502000D01*
X16777000Y-19522000D01*
X16773000Y-19522000D01*
X16773000Y-19502000D01*
X16753000Y-19502000D01*
X16753000Y-19498000D01*
X16773000Y-19498000D01*
X16773000Y-19478000D01*
X16777000Y-19478000D01*
X16777000Y-19498000D01*
X17699750Y-19498000D01*
X17858000Y-19339750D01*
X17861063Y-19025000D01*
X17848841Y-18900910D01*
X17812646Y-18781589D01*
X17753867Y-18671622D01*
X17674764Y-18575236D01*
X17583090Y-18500000D01*
X17674764Y-18424764D01*
X17753867Y-18328378D01*
X17812646Y-18218411D01*
X17848841Y-18099090D01*
X17861063Y-17975000D01*
X17858000Y-17660250D01*
X17699750Y-17502000D01*
X16827000Y-17502000D01*
X16827000Y-17522000D01*
X16823000Y-17522000D01*
X16823000Y-17502000D01*
X16803000Y-17502000D01*
X16803000Y-17498000D01*
X16823000Y-17498000D01*
X16823000Y-17478000D01*
X16827000Y-17478000D01*
X16827000Y-17498000D01*
X17699750Y-17498000D01*
X17858000Y-17339750D01*
X17861063Y-17025000D01*
X17848841Y-16900910D01*
X17812646Y-16781589D01*
X17753867Y-16671622D01*
X17674764Y-16575236D01*
X17583090Y-16500000D01*
X17674764Y-16424764D01*
X17753867Y-16328378D01*
X17812646Y-16218411D01*
X17848841Y-16099090D01*
X17861063Y-15975000D01*
X17858000Y-15660250D01*
X17699750Y-15502000D01*
X16777000Y-15502000D01*
X16777000Y-15522000D01*
X16773000Y-15522000D01*
X16773000Y-15502000D01*
X16753000Y-15502000D01*
X16753000Y-15498000D01*
X16773000Y-15498000D01*
X16773000Y-14550250D01*
X16722750Y-14500000D01*
X16773000Y-14449750D01*
X16773000Y-13502000D01*
X16777000Y-13502000D01*
X16777000Y-14449750D01*
X16827250Y-14500000D01*
X16777000Y-14550250D01*
X16777000Y-15498000D01*
X17699750Y-15498000D01*
X17858000Y-15339750D01*
X17861063Y-15025000D01*
X17848841Y-14900910D01*
X17812646Y-14781589D01*
X17753867Y-14671622D01*
X17674764Y-14575236D01*
X17583090Y-14500000D01*
X17674764Y-14424764D01*
X17753867Y-14328378D01*
X17812646Y-14218411D01*
X17848841Y-14099090D01*
X17861063Y-13975000D01*
X17858000Y-13660250D01*
X17699750Y-13502000D01*
X16777000Y-13502000D01*
X16773000Y-13502000D01*
X16753000Y-13502000D01*
X16753000Y-13498000D01*
X16773000Y-13498000D01*
X16773000Y-13478000D01*
X16777000Y-13478000D01*
X16777000Y-13498000D01*
X17699750Y-13498000D01*
X17858000Y-13339750D01*
X17861063Y-13025000D01*
X17848841Y-12900910D01*
X17812646Y-12781589D01*
X17753867Y-12671622D01*
X17674764Y-12575236D01*
X17583090Y-12500000D01*
X17674764Y-12424764D01*
X17753867Y-12328378D01*
X17812646Y-12218411D01*
X17848841Y-12099090D01*
X17861063Y-11975000D01*
X17858000Y-11660250D01*
X17699750Y-11502000D01*
X16827000Y-11502000D01*
X16827000Y-11522000D01*
X16823000Y-11522000D01*
X16823000Y-11502000D01*
X16803000Y-11502000D01*
X16803000Y-11498000D01*
X16823000Y-11498000D01*
X16823000Y-11478000D01*
X16827000Y-11478000D01*
X16827000Y-11498000D01*
X17699750Y-11498000D01*
X17858000Y-11339750D01*
X17861063Y-11025000D01*
X17848841Y-10900910D01*
X17812646Y-10781589D01*
X17753867Y-10671622D01*
X17674764Y-10575236D01*
X17578378Y-10496133D01*
X17564256Y-10488585D01*
X17594672Y-10388315D01*
X17605833Y-10275000D01*
X17605833Y-9725000D01*
X17594672Y-9611685D01*
X17561620Y-9502725D01*
X17507945Y-9402306D01*
X17435711Y-9314289D01*
X17399315Y-9284419D01*
X17385264Y-9213780D01*
X17428389Y-9178389D01*
X17503732Y-9086583D01*
X17559717Y-8981842D01*
X17594192Y-8868192D01*
X17605833Y-8750000D01*
X17605833Y-8250000D01*
X17594192Y-8131808D01*
X17559717Y-8018158D01*
X17557923Y-8014801D01*
X17578378Y-8003867D01*
X17674764Y-7924764D01*
X17753867Y-7828378D01*
X17812646Y-7718411D01*
X17848841Y-7599090D01*
X17861063Y-7475000D01*
X17858000Y-7160250D01*
X17699750Y-7002000D01*
X16777000Y-7002000D01*
X16777000Y-7022000D01*
X16773000Y-7022000D01*
X16773000Y-7002000D01*
X16753000Y-7002000D01*
X16753000Y-6998000D01*
X16773000Y-6998000D01*
X16773000Y-6978000D01*
X16777000Y-6978000D01*
X16777000Y-6998000D01*
X17699750Y-6998000D01*
X17858000Y-6839750D01*
X17861063Y-6525000D01*
X17848841Y-6400910D01*
X17812646Y-6281589D01*
X17753867Y-6171622D01*
X17715605Y-6125000D01*
X19596001Y-6125000D01*
X19596000Y-27748296D01*
G37*
G04 #@! TD.AperFunction*
D21*
X10502000Y-22808000D02*
X10522000Y-22808000D01*
X10522000Y-22812000D01*
X10502000Y-22812000D01*
X10502000Y-23894750D01*
X10660250Y-24053000D01*
X10825000Y-24056063D01*
X10871000Y-24051532D01*
X10871001Y-26421561D01*
X10871000Y-27310171D01*
X10810171Y-27371000D01*
X10129000Y-27371000D01*
X10129000Y-27203429D01*
X10131800Y-27175000D01*
X10129000Y-27146571D01*
X10129000Y-24051532D01*
X10175000Y-24056063D01*
X10339750Y-24053000D01*
X10498000Y-23894750D01*
X10498000Y-22812000D01*
X10478000Y-22812000D01*
X10478000Y-22808000D01*
X10498000Y-22808000D01*
X10498000Y-22788000D01*
X10502000Y-22788000D01*
X10502000Y-22808000D01*
G04 #@! TA.AperFunction,Conductor*
D23*
G36*
X10502000Y-22808000D02*
G01*
X10522000Y-22808000D01*
X10522000Y-22812000D01*
X10502000Y-22812000D01*
X10502000Y-23894750D01*
X10660250Y-24053000D01*
X10825000Y-24056063D01*
X10871000Y-24051532D01*
X10871001Y-26421561D01*
X10871000Y-27310171D01*
X10810171Y-27371000D01*
X10129000Y-27371000D01*
X10129000Y-27203429D01*
X10131800Y-27175000D01*
X10129000Y-27146571D01*
X10129000Y-24051532D01*
X10175000Y-24056063D01*
X10339750Y-24053000D01*
X10498000Y-23894750D01*
X10498000Y-22812000D01*
X10478000Y-22812000D01*
X10478000Y-22808000D01*
X10498000Y-22808000D01*
X10498000Y-22788000D01*
X10502000Y-22788000D01*
X10502000Y-22808000D01*
G37*
G04 #@! TD.AperFunction*
D21*
X5776115Y-13988878D02*
X6876114Y-15088878D01*
X6891894Y-15108106D01*
X6968638Y-15171088D01*
X7056195Y-15217888D01*
X7122379Y-15237965D01*
X7151198Y-15246707D01*
X7250000Y-15256438D01*
X7274754Y-15254000D01*
X7551488Y-15254000D01*
X7611071Y-15272074D01*
X7700000Y-15280833D01*
X7966896Y-15280833D01*
X7967000Y-15289750D01*
X8125250Y-15448000D01*
X8719167Y-15448000D01*
X8719167Y-15452000D01*
X8125250Y-15452000D01*
X7967000Y-15610250D01*
X7963952Y-15870604D01*
X7975316Y-15994775D01*
X8010686Y-16114343D01*
X8068703Y-16224714D01*
X8147138Y-16321645D01*
X8242976Y-16401412D01*
X8352534Y-16460949D01*
X8471602Y-16497969D01*
X8589750Y-16508000D01*
X8748000Y-16349750D01*
X8748000Y-15955105D01*
X8752000Y-15968292D01*
X8752000Y-16349750D01*
X8910250Y-16508000D01*
X9028398Y-16497969D01*
X9147466Y-16460949D01*
X9257024Y-16401412D01*
X9352862Y-16321645D01*
X9413141Y-16247152D01*
X9413929Y-16247074D01*
X9499440Y-16221135D01*
X9500000Y-16220836D01*
X9500560Y-16221135D01*
X9586071Y-16247074D01*
X9675000Y-16255833D01*
X9825000Y-16255833D01*
X9913929Y-16247074D01*
X9999440Y-16221135D01*
X10000000Y-16220836D01*
X10000560Y-16221135D01*
X10086071Y-16247074D01*
X10175000Y-16255833D01*
X10325000Y-16255833D01*
X10413929Y-16247074D01*
X10499440Y-16221135D01*
X10500000Y-16220836D01*
X10500560Y-16221135D01*
X10586071Y-16247074D01*
X10675000Y-16255833D01*
X10825000Y-16255833D01*
X10913929Y-16247074D01*
X10999440Y-16221135D01*
X11000000Y-16220836D01*
X11000560Y-16221135D01*
X11086071Y-16247074D01*
X11175000Y-16255833D01*
X11225337Y-16255833D01*
X9160690Y-18320481D01*
X9138606Y-18338605D01*
X9120482Y-18360689D01*
X9120476Y-18360695D01*
X9066250Y-18426769D01*
X9012486Y-18527355D01*
X8979379Y-18636496D01*
X8968200Y-18750000D01*
X8971001Y-18778439D01*
X8971001Y-19298162D01*
X8955710Y-19310710D01*
X8908349Y-19368421D01*
X8873156Y-19434262D01*
X8851485Y-19505703D01*
X8844167Y-19580000D01*
X8844167Y-19611000D01*
X8210715Y-19611000D01*
X8178389Y-19571611D01*
X8086583Y-19496268D01*
X7981842Y-19440283D01*
X7868192Y-19405808D01*
X7750000Y-19394167D01*
X7250000Y-19394167D01*
X7131808Y-19405808D01*
X7018158Y-19440283D01*
X6913417Y-19496268D01*
X6821611Y-19571611D01*
X6746268Y-19663417D01*
X6690283Y-19768158D01*
X6655808Y-19881808D01*
X6644167Y-20000000D01*
X6644167Y-20450000D01*
X6655808Y-20568192D01*
X6690283Y-20681842D01*
X6733651Y-20762978D01*
X6671622Y-20796133D01*
X6604000Y-20851630D01*
X6604000Y-17799750D01*
X6606438Y-17774999D01*
X6604000Y-17750246D01*
X6596707Y-17676199D01*
X6567888Y-17581195D01*
X6521088Y-17493638D01*
X6458106Y-17416894D01*
X6438878Y-17401114D01*
X5605833Y-16568070D01*
X5605833Y-16225000D01*
X5594672Y-16111685D01*
X5561620Y-16002725D01*
X5507945Y-15902306D01*
X5435711Y-15814289D01*
X5357375Y-15750000D01*
X5435711Y-15685711D01*
X5507945Y-15597694D01*
X5561620Y-15497275D01*
X5594672Y-15388315D01*
X5605833Y-15275000D01*
X5605833Y-14725000D01*
X5594672Y-14611685D01*
X5561620Y-14502725D01*
X5507945Y-14402306D01*
X5435711Y-14314289D01*
X5347694Y-14242055D01*
X5247275Y-14188380D01*
X5138315Y-14155328D01*
X5064687Y-14148076D01*
X5163873Y-14048890D01*
X5183106Y-14033106D01*
X5246088Y-13956362D01*
X5292888Y-13868805D01*
X5321707Y-13773801D01*
X5321911Y-13771726D01*
X5347694Y-13757945D01*
X5435711Y-13685711D01*
X5452496Y-13665259D01*
X5776115Y-13988878D01*
G04 #@! TA.AperFunction,Conductor*
D23*
G36*
X5776115Y-13988878D02*
G01*
X6876114Y-15088878D01*
X6891894Y-15108106D01*
X6968638Y-15171088D01*
X7056195Y-15217888D01*
X7122379Y-15237965D01*
X7151198Y-15246707D01*
X7250000Y-15256438D01*
X7274754Y-15254000D01*
X7551488Y-15254000D01*
X7611071Y-15272074D01*
X7700000Y-15280833D01*
X7966896Y-15280833D01*
X7967000Y-15289750D01*
X8125250Y-15448000D01*
X8719167Y-15448000D01*
X8719167Y-15452000D01*
X8125250Y-15452000D01*
X7967000Y-15610250D01*
X7963952Y-15870604D01*
X7975316Y-15994775D01*
X8010686Y-16114343D01*
X8068703Y-16224714D01*
X8147138Y-16321645D01*
X8242976Y-16401412D01*
X8352534Y-16460949D01*
X8471602Y-16497969D01*
X8589750Y-16508000D01*
X8748000Y-16349750D01*
X8748000Y-15955105D01*
X8752000Y-15968292D01*
X8752000Y-16349750D01*
X8910250Y-16508000D01*
X9028398Y-16497969D01*
X9147466Y-16460949D01*
X9257024Y-16401412D01*
X9352862Y-16321645D01*
X9413141Y-16247152D01*
X9413929Y-16247074D01*
X9499440Y-16221135D01*
X9500000Y-16220836D01*
X9500560Y-16221135D01*
X9586071Y-16247074D01*
X9675000Y-16255833D01*
X9825000Y-16255833D01*
X9913929Y-16247074D01*
X9999440Y-16221135D01*
X10000000Y-16220836D01*
X10000560Y-16221135D01*
X10086071Y-16247074D01*
X10175000Y-16255833D01*
X10325000Y-16255833D01*
X10413929Y-16247074D01*
X10499440Y-16221135D01*
X10500000Y-16220836D01*
X10500560Y-16221135D01*
X10586071Y-16247074D01*
X10675000Y-16255833D01*
X10825000Y-16255833D01*
X10913929Y-16247074D01*
X10999440Y-16221135D01*
X11000000Y-16220836D01*
X11000560Y-16221135D01*
X11086071Y-16247074D01*
X11175000Y-16255833D01*
X11225337Y-16255833D01*
X9160690Y-18320481D01*
X9138606Y-18338605D01*
X9120482Y-18360689D01*
X9120476Y-18360695D01*
X9066250Y-18426769D01*
X9012486Y-18527355D01*
X8979379Y-18636496D01*
X8968200Y-18750000D01*
X8971001Y-18778439D01*
X8971001Y-19298162D01*
X8955710Y-19310710D01*
X8908349Y-19368421D01*
X8873156Y-19434262D01*
X8851485Y-19505703D01*
X8844167Y-19580000D01*
X8844167Y-19611000D01*
X8210715Y-19611000D01*
X8178389Y-19571611D01*
X8086583Y-19496268D01*
X7981842Y-19440283D01*
X7868192Y-19405808D01*
X7750000Y-19394167D01*
X7250000Y-19394167D01*
X7131808Y-19405808D01*
X7018158Y-19440283D01*
X6913417Y-19496268D01*
X6821611Y-19571611D01*
X6746268Y-19663417D01*
X6690283Y-19768158D01*
X6655808Y-19881808D01*
X6644167Y-20000000D01*
X6644167Y-20450000D01*
X6655808Y-20568192D01*
X6690283Y-20681842D01*
X6733651Y-20762978D01*
X6671622Y-20796133D01*
X6604000Y-20851630D01*
X6604000Y-17799750D01*
X6606438Y-17774999D01*
X6604000Y-17750246D01*
X6596707Y-17676199D01*
X6567888Y-17581195D01*
X6521088Y-17493638D01*
X6458106Y-17416894D01*
X6438878Y-17401114D01*
X5605833Y-16568070D01*
X5605833Y-16225000D01*
X5594672Y-16111685D01*
X5561620Y-16002725D01*
X5507945Y-15902306D01*
X5435711Y-15814289D01*
X5357375Y-15750000D01*
X5435711Y-15685711D01*
X5507945Y-15597694D01*
X5561620Y-15497275D01*
X5594672Y-15388315D01*
X5605833Y-15275000D01*
X5605833Y-14725000D01*
X5594672Y-14611685D01*
X5561620Y-14502725D01*
X5507945Y-14402306D01*
X5435711Y-14314289D01*
X5347694Y-14242055D01*
X5247275Y-14188380D01*
X5138315Y-14155328D01*
X5064687Y-14148076D01*
X5163873Y-14048890D01*
X5183106Y-14033106D01*
X5246088Y-13956362D01*
X5292888Y-13868805D01*
X5321707Y-13773801D01*
X5321911Y-13771726D01*
X5347694Y-13757945D01*
X5435711Y-13685711D01*
X5452496Y-13665259D01*
X5776115Y-13988878D01*
G37*
G04 #@! TD.AperFunction*
D21*
X6026114Y-9938878D02*
X6041894Y-9958106D01*
X6118638Y-10021088D01*
X6206195Y-10067888D01*
X6242540Y-10078913D01*
X6301198Y-10096707D01*
X6399999Y-10106438D01*
X6424753Y-10104000D01*
X10877170Y-10104000D01*
X10850261Y-10130909D01*
X10786896Y-10225740D01*
X10743250Y-10331112D01*
X10721000Y-10442973D01*
X10721000Y-10557027D01*
X10743250Y-10668888D01*
X10774431Y-10744167D01*
X10675000Y-10744167D01*
X10586071Y-10752926D01*
X10500560Y-10778865D01*
X10500000Y-10779164D01*
X10499440Y-10778865D01*
X10413929Y-10752926D01*
X10325000Y-10744167D01*
X10175000Y-10744167D01*
X10086071Y-10752926D01*
X10000560Y-10778865D01*
X10000000Y-10779164D01*
X9999440Y-10778865D01*
X9913929Y-10752926D01*
X9825000Y-10744167D01*
X9675000Y-10744167D01*
X9586071Y-10752926D01*
X9500560Y-10778865D01*
X9500000Y-10779164D01*
X9499440Y-10778865D01*
X9413929Y-10752926D01*
X9413141Y-10752848D01*
X9352862Y-10678355D01*
X9257024Y-10598588D01*
X9147466Y-10539051D01*
X9028398Y-10502031D01*
X8910250Y-10492000D01*
X8752000Y-10650250D01*
X8752000Y-11031708D01*
X8748000Y-11044895D01*
X8748000Y-10650250D01*
X8589750Y-10492000D01*
X8471602Y-10502031D01*
X8352534Y-10539051D01*
X8242976Y-10598588D01*
X8147138Y-10678355D01*
X8068703Y-10775286D01*
X8010686Y-10885657D01*
X7975316Y-11005225D01*
X7963952Y-11129396D01*
X7967000Y-11389750D01*
X8125250Y-11548000D01*
X8719167Y-11548000D01*
X8719167Y-11552000D01*
X8125250Y-11552000D01*
X7967000Y-11710250D01*
X7966896Y-11719167D01*
X7700000Y-11719167D01*
X7611071Y-11727926D01*
X7525560Y-11753865D01*
X7446753Y-11795989D01*
X7377677Y-11852677D01*
X7372162Y-11859398D01*
X5537037Y-10024274D01*
X5559717Y-9981842D01*
X5594192Y-9868192D01*
X5605833Y-9750000D01*
X5605833Y-9518597D01*
X6026114Y-9938878D01*
G04 #@! TA.AperFunction,Conductor*
D23*
G36*
X6026114Y-9938878D02*
G01*
X6041894Y-9958106D01*
X6118638Y-10021088D01*
X6206195Y-10067888D01*
X6242540Y-10078913D01*
X6301198Y-10096707D01*
X6399999Y-10106438D01*
X6424753Y-10104000D01*
X10877170Y-10104000D01*
X10850261Y-10130909D01*
X10786896Y-10225740D01*
X10743250Y-10331112D01*
X10721000Y-10442973D01*
X10721000Y-10557027D01*
X10743250Y-10668888D01*
X10774431Y-10744167D01*
X10675000Y-10744167D01*
X10586071Y-10752926D01*
X10500560Y-10778865D01*
X10500000Y-10779164D01*
X10499440Y-10778865D01*
X10413929Y-10752926D01*
X10325000Y-10744167D01*
X10175000Y-10744167D01*
X10086071Y-10752926D01*
X10000560Y-10778865D01*
X10000000Y-10779164D01*
X9999440Y-10778865D01*
X9913929Y-10752926D01*
X9825000Y-10744167D01*
X9675000Y-10744167D01*
X9586071Y-10752926D01*
X9500560Y-10778865D01*
X9500000Y-10779164D01*
X9499440Y-10778865D01*
X9413929Y-10752926D01*
X9413141Y-10752848D01*
X9352862Y-10678355D01*
X9257024Y-10598588D01*
X9147466Y-10539051D01*
X9028398Y-10502031D01*
X8910250Y-10492000D01*
X8752000Y-10650250D01*
X8752000Y-11031708D01*
X8748000Y-11044895D01*
X8748000Y-10650250D01*
X8589750Y-10492000D01*
X8471602Y-10502031D01*
X8352534Y-10539051D01*
X8242976Y-10598588D01*
X8147138Y-10678355D01*
X8068703Y-10775286D01*
X8010686Y-10885657D01*
X7975316Y-11005225D01*
X7963952Y-11129396D01*
X7967000Y-11389750D01*
X8125250Y-11548000D01*
X8719167Y-11548000D01*
X8719167Y-11552000D01*
X8125250Y-11552000D01*
X7967000Y-11710250D01*
X7966896Y-11719167D01*
X7700000Y-11719167D01*
X7611071Y-11727926D01*
X7525560Y-11753865D01*
X7446753Y-11795989D01*
X7377677Y-11852677D01*
X7372162Y-11859398D01*
X5537037Y-10024274D01*
X5559717Y-9981842D01*
X5594192Y-9868192D01*
X5605833Y-9750000D01*
X5605833Y-9518597D01*
X6026114Y-9938878D01*
G37*
G04 #@! TD.AperFunction*
D21*
X15227000Y-8498000D02*
X15247000Y-8498000D01*
X15247000Y-8502000D01*
X15227000Y-8502000D01*
X15227000Y-8522000D01*
X15223000Y-8522000D01*
X15223000Y-8502000D01*
X15203000Y-8502000D01*
X15203000Y-8498000D01*
X15223000Y-8498000D01*
X15223000Y-8478000D01*
X15227000Y-8478000D01*
X15227000Y-8498000D01*
G04 #@! TA.AperFunction,Conductor*
D23*
G36*
X15227000Y-8498000D02*
G01*
X15247000Y-8498000D01*
X15247000Y-8502000D01*
X15227000Y-8502000D01*
X15227000Y-8522000D01*
X15223000Y-8522000D01*
X15223000Y-8502000D01*
X15203000Y-8502000D01*
X15203000Y-8498000D01*
X15223000Y-8498000D01*
X15223000Y-8478000D01*
X15227000Y-8478000D01*
X15227000Y-8498000D01*
G37*
G04 #@! TD.AperFunction*
M02*
